<?xml version="1.0" encoding="UTF-8" standalone="no"?>
<svg
   xmlns:dc="http://purl.org/dc/elements/1.1/"
   xmlns:cc="http://creativecommons.org/ns#"
   xmlns:rdf="http://www.w3.org/1999/02/22-rdf-syntax-ns#"
   xmlns:svg="http://www.w3.org/2000/svg"
   xmlns="http://www.w3.org/2000/svg"
   viewBox="0 0 561.14667 332.76532"
   height="332.76532"
   width="561.14667"
   xml:space="preserve"
   id="svg2"
   version="1.1"><metadata
     id="metadata8"><rdf:RDF><cc:Work
         rdf:about=""><dc:format>image/svg+xml</dc:format><dc:type
           rdf:resource="http://purl.org/dc/dcmitype/StillImage" /></cc:Work></rdf:RDF></metadata><defs
     id="defs6" /><g
     transform="matrix(1.3333333,0,0,-1.3333333,0,332.76533)"
     id="g10"><g
       transform="translate(63.932,43.317)"
       id="g12"><g
         id="g14"><g
           id="g16" /><g
           id="g18"><g
             id="g20"><g
               id="g22"><g
                 id="g24" /></g></g><g
             id="g26"><g
               id="g28"><g
                 id="g30" /></g></g><g
             id="g32"><g
               id="g34"><g
                 id="g36" /></g></g><g
             id="g38"><g
               id="g40"><g
                 id="g42" /></g></g><g
             id="g44"><g
               id="g46"><g
                 id="g48" /></g></g><g
             id="g50"><g
               id="g52"><g
                 id="g54" /></g></g><g
             id="g56"><g
               id="g58"><g
                 id="g60" /></g></g><g
             id="g62"><g
               id="g64"><g
                 id="g66" /></g></g><g
             id="g68"><g
               id="g70"><path
                 id="path72"
                 style="fill:#b3b3ff;fill-opacity:1;fill-rule:nonzero;stroke:none"
                 d="M 52.70853,14.17339 H -52.70853 c -2.20094,0 -3.9851,-1.78417 -3.9851,-3.98511 v -20.37656 c 0,-2.20094 1.78416,-3.98511 3.9851,-3.98511 H 52.70853 c 2.20094,0 3.9851,1.78417 3.9851,3.98511 v 20.37656 c 0,2.20094 -1.78416,3.98511 -3.9851,3.98511 z" /></g><g
               transform="translate(-12.315,-2.491)"
               id="g74"><g
                 id="g76"><g
                   transform="translate(-51.617,-40.826)"
                   id="g78"><text
                     id="text82"
                     style="font-variant:normal;font-weight:normal;font-size:9.96259975px;font-family:CMR10;-inkscape-font-specification:CMR10;writing-mode:lr-tb;fill:#000000;fill-opacity:1;fill-rule:nonzero;stroke:none"
                     transform="matrix(1,0,0,-1,51.617,40.826)"><tspan
                       id="tspan80"
                       y="0"
                       x="0 9.1327152 14.114016 19.370283">Moby</tspan></text>
<g
                     transform="translate(51.617,40.826)"
                     id="g84" /></g></g><g
                 transform="translate(12.315,2.491)"
                 id="g86" /></g></g><g
             id="g88"><g
               transform="translate(-60.611,20.926)"
               id="g90"><g
                 id="g92" /><g
                 transform="translate(60.611,-20.926)"
                 id="g94" /></g></g><g
             id="g96"><g
               id="g98"><path
                 id="path100"
                 style="fill:#ecb3c6;fill-opacity:1;fill-rule:nonzero;stroke:#000000;stroke-width:0.3985;stroke-linecap:butt;stroke-linejoin:miter;stroke-miterlimit:10;stroke-dasharray:none;stroke-opacity:1"
                 d="m -46.7046,28.01326 h -6.20318 c -2.20094,0 -3.9851,-1.78416 -3.9851,-3.98511 v -6.20317 c 0,-2.20094 1.78416,-3.98511 3.9851,-3.98511 h 6.20318 c 2.20094,0 3.9851,1.78417 3.9851,3.98511 v 6.20317 c 0,2.20095 -1.78416,3.98511 -3.9851,3.98511 z" /></g><g
               transform="translate(-49.806,20.926)"
               id="g102"><g
                 id="g104" /><g
                 transform="translate(49.806,-20.926)"
                 id="g106" /></g></g><g
             id="g108"><g
               id="g110"><path
                 id="path112"
                 style="fill:#ecb3c6;fill-opacity:1;fill-rule:nonzero;stroke:#000000;stroke-width:0.3985;stroke-linecap:butt;stroke-linejoin:miter;stroke-miterlimit:10;stroke-dasharray:none;stroke-opacity:1"
                 d="m -32.13272,28.01326 h -6.20317 c -2.20094,0 -3.98511,-1.78416 -3.98511,-3.98511 v -6.20317 c 0,-2.20094 1.78417,-3.98511 3.98511,-3.98511 h 6.20317 c 2.20094,0 3.98511,1.78417 3.98511,3.98511 v 6.20317 c 0,2.20095 -1.78417,3.98511 -3.98511,3.98511 z" /></g><g
               transform="translate(-35.234,20.926)"
               id="g114"><g
                 id="g116" /><g
                 transform="translate(35.234,-20.926)"
                 id="g118" /></g></g><g
             id="g120"><g
               id="g122"><path
                 id="path124"
                 style="fill:#ecb3c6;fill-opacity:1;fill-rule:nonzero;stroke:#000000;stroke-width:0.3985;stroke-linecap:butt;stroke-linejoin:miter;stroke-miterlimit:10;stroke-dasharray:none;stroke-opacity:1"
                 d="m -17.56084,28.01326 h -6.20315 c -2.20095,0 -3.98511,-1.78416 -3.98511,-3.98511 v -6.20317 c 0,-2.20094 1.78416,-3.98511 3.98511,-3.98511 h 6.20315 c 2.20094,0 3.98511,1.78417 3.98511,3.98511 v 6.20317 c 0,2.20095 -1.78417,3.98511 -3.98511,3.98511 z" /></g><g
               transform="translate(-20.662,20.926)"
               id="g126"><g
                 id="g128" /><g
                 transform="translate(20.662,-20.926)"
                 id="g130" /></g></g><g
             id="g132"><g
               id="g134"><path
                 id="path136"
                 style="fill:#ecb3c6;fill-opacity:1;fill-rule:nonzero;stroke:#000000;stroke-width:0.3985;stroke-linecap:butt;stroke-linejoin:miter;stroke-miterlimit:10;stroke-dasharray:none;stroke-opacity:1"
                 d="m -2.98894,28.01326 h -6.20317 c -2.20094,0 -3.98511,-1.78416 -3.98511,-3.98511 v -6.20317 c 0,-2.20094 1.78417,-3.98511 3.98511,-3.98511 h 6.20317 c 2.20093,0 3.98509,1.78417 3.98509,3.98511 v 6.20317 c 0,2.20095 -1.78416,3.98511 -3.98509,3.98511 z" /></g><g
               transform="translate(-6.091,20.926)"
               id="g138"><g
                 id="g140" /><g
                 transform="translate(6.091,-20.926)"
                 id="g142" /></g></g><g
             id="g144"><g
               id="g146"><path
                 id="path148"
                 style="fill:#ecb3c6;fill-opacity:1;fill-rule:nonzero;stroke:#000000;stroke-width:0.3985;stroke-linecap:butt;stroke-linejoin:miter;stroke-miterlimit:10;stroke-dasharray:none;stroke-opacity:1"
                 d="M 11.58293,28.01326 H 5.37976 c -2.20094,0 -3.98511,-1.78416 -3.98511,-3.98511 v -6.20317 c 0,-2.20094 1.78417,-3.98511 3.98511,-3.98511 h 6.20317 c 2.20094,0 3.98511,1.78417 3.98511,3.98511 v 6.20317 c 0,2.20095 -1.78417,3.98511 -3.98511,3.98511 z" /></g><g
               transform="translate(8.481,20.926)"
               id="g150"><g
                 id="g152" /><g
                 transform="translate(-8.481,-20.926)"
                 id="g154" /></g></g><g
             id="g156"><g
               id="g158"><path
                 id="path160"
                 style="fill:#ecb3c6;fill-opacity:1;fill-rule:nonzero;stroke:#000000;stroke-width:0.3985;stroke-linecap:butt;stroke-linejoin:miter;stroke-miterlimit:10;stroke-dasharray:none;stroke-opacity:1"
                 d="m 26.15482,28.01326 h -6.20318 c -2.20094,0 -3.9851,-1.78416 -3.9851,-3.98511 v -6.20317 c 0,-2.20094 1.78416,-3.98511 3.9851,-3.98511 h 6.20318 c 2.20094,0 3.9851,1.78417 3.9851,3.98511 v 6.20317 c 0,2.20095 -1.78416,3.98511 -3.9851,3.98511 z" /></g><g
               transform="translate(23.053,20.926)"
               id="g162"><g
                 id="g164" /><g
                 transform="translate(-23.053,-20.926)"
                 id="g166" /></g></g><g
             id="g168"><g
               id="g170"><path
                 id="path172"
                 style="fill:#ecb3c6;fill-opacity:1;fill-rule:nonzero;stroke:#000000;stroke-width:0.3985;stroke-linecap:butt;stroke-linejoin:miter;stroke-miterlimit:10;stroke-dasharray:none;stroke-opacity:1"
                 d="m 40.7267,28.01326 h -6.20317 c -2.20094,0 -3.98511,-1.78416 -3.98511,-3.98511 v -6.20317 c 0,-2.20094 1.78417,-3.98511 3.98511,-3.98511 h 6.20317 c 2.20094,0 3.9851,1.78417 3.9851,3.98511 v 6.20317 c 0,2.20095 -1.78416,3.98511 -3.9851,3.98511 z" /></g><g
               transform="translate(37.624,20.926)"
               id="g174"><g
                 id="g176" /><g
                 transform="translate(-37.624,-20.926)"
                 id="g178" /></g></g><g
             id="g180"><g
               id="g182"><path
                 id="path184"
                 style="fill:#ecb3c6;fill-opacity:1;fill-rule:nonzero;stroke:#000000;stroke-width:0.3985;stroke-linecap:butt;stroke-linejoin:miter;stroke-miterlimit:10;stroke-dasharray:none;stroke-opacity:1"
                 d="m 55.29858,28.01326 h -6.20317 c -2.20094,0 -3.98511,-1.78416 -3.98511,-3.98511 v -6.20317 c 0,-2.20094 1.78417,-3.98511 3.98511,-3.98511 h 6.20317 c 2.20095,0 3.98511,1.78417 3.98511,3.98511 v 6.20317 c 0,2.20095 -1.78416,3.98511 -3.98511,3.98511 z" /></g><g
               transform="translate(52.196,20.926)"
               id="g186"><g
                 id="g188" /><g
                 transform="translate(-52.196,-20.926)"
                 id="g190" /></g></g><g
             id="g192"><g
               transform="translate(-23.426,32.264)"
               id="g194"><g
                 id="g196"><g
                   transform="translate(-40.506,-75.581)"
                   id="g198"><text
                     id="text202"
                     style="font-variant:normal;font-weight:normal;font-size:9.96259975px;font-family:CMR10;-inkscape-font-specification:CMR10;writing-mode:lr-tb;fill:#000000;fill-opacity:1;fill-rule:nonzero;stroke:none"
                     transform="matrix(1,0,0,-1,40.506,75.581)"><tspan
                       id="tspan200"
                       y="0"
                       x="0 7.1949897 12.17629 17.432558 21.307013 26.288313 29.055923 34.591145 39.018524 42.920872">Containers</tspan></text>
<g
                     transform="translate(40.506,75.581)"
                     id="g204" /></g></g><g
                 transform="translate(23.426,-32.264)"
                 id="g206" /></g></g><g
             id="g208"><path
               id="path210"
               style="fill:none;stroke:#000000;stroke-width:0.3985;stroke-linecap:butt;stroke-linejoin:miter;stroke-miterlimit:10;stroke-dasharray:none;stroke-opacity:1"
               d="M -26.9462,35.66905 H -49.80618 V 28.67079" /><g
               transform="rotate(-90,-10.567695,39.238485)"
               id="g212"><g
                 id="g214"><path
                   id="path216"
                   style="fill:none;stroke:#000000;stroke-width:0.31878999;stroke-linecap:round;stroke-linejoin:round;stroke-miterlimit:10;stroke-dasharray:none;stroke-opacity:1"
                   d="M -1.19551,1.59401 C -1.09587,0.99626 0,0.09961 0.29886,0 0,-0.09961 -1.09587,-0.99626 -1.19551,-1.59401" /></g></g></g><g
             id="g218"><path
               id="path220"
               style="fill:none;stroke:#000000;stroke-width:0.3985;stroke-linecap:butt;stroke-linejoin:miter;stroke-miterlimit:10;stroke-dasharray:none;stroke-opacity:1"
               d="M 26.9462,35.66905 H 52.197 v -6.99826" /><g
               transform="rotate(-90,40.433895,-11.763105)"
               id="g222"><g
                 id="g224"><path
                   id="path226"
                   style="fill:none;stroke:#000000;stroke-width:0.31878999;stroke-linecap:round;stroke-linejoin:round;stroke-miterlimit:10;stroke-dasharray:none;stroke-opacity:1"
                   d="M -1.19551,1.59401 C -1.09587,0.99626 0,0.09961 0.29886,0 0,-0.09961 -1.09587,-0.99626 -1.19551,-1.59401" /></g></g></g><g
             id="g228"><g
               id="g230"><path
                 id="path232"
                 style="fill:#b3e6fa;fill-opacity:1;fill-rule:nonzero;stroke:none"
                 d="M 52.70853,-14.9704 H -52.70853 c -2.20094,0 -3.9851,-1.78416 -3.9851,-3.9851 v -20.37659 c 0,-2.20095 1.78416,-3.98511 3.9851,-3.98511 H 52.70853 c 2.20094,0 3.9851,1.78416 3.9851,3.98511 v 20.37659 c 0,2.20094 -1.78416,3.9851 -3.9851,3.9851 z" /></g><g
               transform="translate(-34.205,-32.603)"
               id="g234"><g
                 id="g236"><g
                   transform="translate(-29.727,-10.714)"
                   id="g238"><text
                     id="text242"
                     style="font-variant:normal;font-weight:normal;font-size:9.96259975px;font-family:CMR10;-inkscape-font-specification:CMR10;writing-mode:lr-tb;fill:#000000;fill-opacity:1;fill-rule:nonzero;stroke:none"
                     transform="matrix(1,0,0,-1,29.727,10.714)"><tspan
                       id="tspan240"
                       y="0"
                       x="0 7.4719501 12.45325 16.3825 23.574501 32.707214 37.688515 41.846905 47.382126 50.149734 55.674995 63.429882">HostMachine0</tspan></text>
<g
                     transform="translate(29.727,10.714)"
                     id="g244" /></g></g><g
                 transform="translate(34.205,32.603)"
                 id="g246" /></g></g><g
             id="g248"><g
               id="g250"><path
                 id="path252"
                 style="fill:#ecb3c6;fill-opacity:1;fill-rule:nonzero;stroke:#000000;stroke-width:0.3985;stroke-linecap:butt;stroke-linejoin:miter;stroke-miterlimit:10;stroke-dasharray:none;stroke-opacity:1"
                 d="m -2.98894,141.79901 h -6.20317 c -2.20094,0 -3.98511,-1.78416 -3.98511,-3.98511 v -6.20317 c 0,-2.20093 1.78417,-3.9851 3.98511,-3.9851 h 6.20317 c 2.20093,0 3.98509,1.78417 3.98509,3.9851 v 6.20317 c 0,2.20095 -1.78416,3.98511 -3.98509,3.98511 z" /></g><g
               transform="translate(-6.091,134.71)"
               id="g254"><g
                 id="g256" /><g
                 transform="translate(6.091,-134.71)"
                 id="g258" /></g></g><g
             id="g260"><g
               id="g262"><path
                 id="path264"
                 style="fill:#ffffff;fill-opacity:1;fill-rule:nonzero;stroke:#ffffff;stroke-width:0.79701;stroke-linecap:butt;stroke-linejoin:miter;stroke-miterlimit:10;stroke-dasharray:0.79701, 1.99255;stroke-dashoffset:0;stroke-opacity:1"
                 d="m -2.98894,28.01326 h -6.20317 c -2.20094,0 -3.98511,-1.78416 -3.98511,-3.98511 v -6.20317 c 0,-2.20094 1.78417,-3.98511 3.98511,-3.98511 h 6.20317 c 2.20093,0 3.98509,1.78417 3.98509,3.98511 v 6.20317 c 0,2.20095 -1.78416,3.98511 -3.98509,3.98511 z" /></g><g
               transform="translate(-6.091,20.926)"
               id="g266"><g
                 id="g268" /><g
                 transform="translate(6.091,-20.926)"
                 id="g270" /></g></g><g
             id="g272"><g
               id="g274"><path
                 id="path276"
                 style="fill:#4c4c4c;fill-opacity:1;fill-rule:nonzero;stroke:#999999;stroke-width:0.79701;stroke-linecap:butt;stroke-linejoin:miter;stroke-miterlimit:10;stroke-dasharray:none;stroke-opacity:1"
                 d="M 347.3899,192.18222 H 76.36635 c -2.20093,0 -3.98511,-1.78416 -3.98511,-3.98511 V 81.22754 c 0,-2.20094 1.78418,-3.98511 3.98511,-3.98511 H 347.3899 c 2.20094,0 3.9851,1.78417 3.9851,3.98511 v 106.96957 c 0,2.20095 -1.78416,3.98511 -3.9851,3.98511 z" /></g><g
               transform="matrix(0.8,0,0,0.8,75.812,188.748)"
               id="g278"><g
                 id="g280"><g
                   transform="translate(-139.744,-232.065)"
                   id="g282"><text
                     id="text288"
                     style="font-variant:normal;font-weight:normal;font-size:9.96259975px;font-family:CMR10;-inkscape-font-specification:CMR10;writing-mode:lr-tb;fill:#ffffff;fill-opacity:1;fill-rule:nonzero;stroke:none"
                     transform="matrix(1,0,0,-1,141.349,214.132)"><tspan
                       id="tspan284"
                       y="0"
                       x="0 5.4375873 9.5581188 16.159338 22.206635 27.211845 32.207092 41.022003 46.525341 52.572639 58.066017 64.123276 70.170578 76.771797 82.829056 88.876358 94.369736 99.87307 105.92037 125.52676 130.39648">[jboss@e0c98b91ee17]$</tspan><tspan
                       id="tspan286"
                       y="11.955"
                       x="0 5.4375873 9.5581188 16.159338 22.206635 27.211845 32.207092 41.022003 46.525341 52.572639 58.066017 64.123276 70.170578 76.771797 82.829056 88.876358 94.369736 99.87307 105.92037 125.52676 130.39648 143.60689 148.12791">[jboss@e0c98b91ee17]$ls</tspan></text>
<text
                     id="text292"
                     style="font-variant:normal;font-weight:normal;font-size:9.96259975px;font-family:CMSY10;-inkscape-font-specification:CMSY10;writing-mode:lr-tb;fill:#ffffff;fill-opacity:1;fill-rule:nonzero;stroke:none"
                     transform="matrix(1,0,0,-1,299.959,202.177)"><tspan
                       id="tspan290"
                       y="0"
                       x="0">−</tspan></text>
<text
                     id="text300"
                     style="font-variant:normal;font-weight:normal;font-size:9.96259975px;font-family:CMR10;-inkscape-font-specification:CMR10;writing-mode:lr-tb;fill:#ffffff;fill-opacity:1;fill-rule:nonzero;stroke:none"
                     transform="matrix(1,0,0,-1,308.52,202.177)"><tspan
                       id="tspan294"
                       y="0"
                       x="0 4.1723371">la</tspan><tspan
                       id="tspan296"
                       y="11.955"
                       x="-167.20799 -161.76941 -155.21402 -149.77544 -143.22005 -132.24326 -126.60443">total12</tspan><tspan
                       id="tspan298"
                       y="23.91"
                       x="-168.37601 -162.44228 -158.14142 -150.54793 -144.89116 -140.5903 -132.98685">drwxrwx</tspan></text>
<text
                     id="text304"
                     style="font-variant:normal;font-weight:normal;font-size:9.96259975px;font-family:CMSY10;-inkscape-font-specification:CMSY10;writing-mode:lr-tb;fill:#ffffff;fill-opacity:1;fill-rule:nonzero;stroke:none"
                     transform="matrix(1,0,0,-1,181.287,178.267)"><tspan
                       id="tspan302"
                       y="0"
                       x="0 7.1511545 14.292346">−−−</tspan></text>
<text
                     id="text310"
                     style="font-variant:normal;font-weight:normal;font-size:9.96259975px;font-family:CMR10;-inkscape-font-specification:CMR10;writing-mode:lr-tb;fill:#ffffff;fill-opacity:1;fill-rule:nonzero;stroke:none"
                     transform="matrix(1,0,0,-1,203.031,178.267)"><tspan
                       id="tspan306"
                       y="0"
                       x="0 8.9444227 21.816101 26.265398 33.215309 39.601334 44.945274 57.502136 62.639847 68.856506 75.06321 92.795639 98.444435 110.0409 119.15369 124.11507 140.45074 153.10324 159.29002 165.46683 169.43991 175.61673 189.37508">.3jbossroot73Mar114:36.</tspan><tspan
                       id="tspan308"
                       y="11.956"
                       x="-62.702 -56.578987 -52.098804 -44.316021 -38.469967">drwxr</tspan></text>
<text
                     id="text314"
                     style="font-variant:normal;font-weight:normal;font-size:9.96259975px;font-family:CMSY10;-inkscape-font-specification:CMSY10;writing-mode:lr-tb;fill:#ffffff;fill-opacity:1;fill-rule:nonzero;stroke:none"
                     transform="matrix(1,0,0,-1,168.746,166.311)"><tspan
                       id="tspan312"
                       y="0"
                       x="0">−</tspan></text>
<text
                     id="text318"
                     style="font-variant:normal;font-weight:normal;font-size:9.96259975px;font-family:CMR10;-inkscape-font-specification:CMR10;writing-mode:lr-tb;fill:#ffffff;fill-opacity:1;fill-rule:nonzero;stroke:none"
                     transform="matrix(1,0,0,-1,176.308,166.311)"><tspan
                       id="tspan316"
                       y="0"
                       x="0 5.9556422">xr</tspan></text>
<text
                     id="text322"
                     style="font-variant:normal;font-weight:normal;font-size:9.96259975px;font-family:CMSY10;-inkscape-font-specification:CMSY10;writing-mode:lr-tb;fill:#ffffff;fill-opacity:1;fill-rule:nonzero;stroke:none"
                     transform="matrix(1,0,0,-1,186.679,166.311)"><tspan
                       id="tspan320"
                       y="0"
                       x="0">−</tspan></text>
<text
                     id="text326"
                     style="font-variant:normal;font-weight:normal;font-size:9.96259975px;font-family:CMR10;-inkscape-font-specification:CMR10;writing-mode:lr-tb;fill:#ffffff;fill-opacity:1;fill-rule:nonzero;stroke:none"
                     transform="matrix(1,0,0,-1,193.902,166.311)"><tspan
                       id="tspan324"
                       y="0"
                       x="0 7.2208924 18.068171 30.760523 35.898235 42.114899 48.331562 66.631859 71.769577 77.976273 84.19294 101.92537 107.57417 119.76839 125.466 131.01517 143.76331 149.41209 162.23396 168.42075 174.59755 178.56067 184.74745 199.04378 203.95335">x.3rootroot19Jan2714:21..</tspan></text>
<text
                     id="text330"
                     style="font-variant:normal;font-weight:normal;font-size:9.96259975px;font-family:CMSY10;-inkscape-font-specification:CMSY10;writing-mode:lr-tb;fill:#ffffff;fill-opacity:1;fill-rule:nonzero;stroke:none"
                     transform="matrix(1,0,0,-1,138.563,154.356)"><tspan
                       id="tspan328"
                       y="0"
                       x="0">−</tspan></text>
<text
                     id="text334"
                     style="font-variant:normal;font-weight:normal;font-size:9.96259975px;font-family:CMR10;-inkscape-font-specification:CMR10;writing-mode:lr-tb;fill:#ffffff;fill-opacity:1;fill-rule:nonzero;stroke:none"
                     transform="matrix(1,0,0,-1,145.936,154.356)"><tspan
                       id="tspan332"
                       y="0"
                       x="0 4.1115651">rw</tspan></text>
<text
                     id="text338"
                     style="font-variant:normal;font-weight:normal;font-size:9.96259975px;font-family:CMSY10;-inkscape-font-specification:CMSY10;writing-mode:lr-tb;fill:#ffffff;fill-opacity:1;fill-rule:nonzero;stroke:none"
                     transform="matrix(1,0,0,-1,156.791,154.356)"><tspan
                       id="tspan336"
                       y="0"
                       x="0">−</tspan></text>
<text
                     id="text342"
                     style="font-variant:normal;font-weight:normal;font-size:9.96259975px;font-family:CMR10;-inkscape-font-specification:CMR10;writing-mode:lr-tb;fill:#ffffff;fill-opacity:1;fill-rule:nonzero;stroke:none"
                     transform="matrix(1,0,0,-1,163.869,154.356)"><tspan
                       id="tspan340"
                       y="0"
                       x="0 4.1115651">rw</tspan></text>
<text
                     id="text346"
                     style="font-variant:normal;font-weight:normal;font-size:9.96259975px;font-family:CMSY10;-inkscape-font-specification:CMSY10;writing-mode:lr-tb;fill:#ffffff;fill-opacity:1;fill-rule:nonzero;stroke:none"
                     transform="matrix(1,0,0,-1,174.724,154.356)"><tspan
                       id="tspan344"
                       y="0"
                       x="0">−</tspan></text>
<text
                     id="text350"
                     style="font-variant:normal;font-weight:normal;font-size:9.96259975px;font-family:CMR10;-inkscape-font-specification:CMR10;writing-mode:lr-tb;fill:#ffffff;fill-opacity:1;fill-rule:nonzero;stroke:none"
                     transform="matrix(1,0,0,-1,182.279,154.356)"><tspan
                       id="tspan348"
                       y="0"
                       x="0">r</tspan></text>
<text
                     id="text354"
                     style="font-variant:normal;font-weight:normal;font-size:9.96259975px;font-family:CMSY10;-inkscape-font-specification:CMSY10;writing-mode:lr-tb;fill:#ffffff;fill-opacity:1;fill-rule:nonzero;stroke:none"
                     transform="matrix(1,0,0,-1,187.499,154.356)"><tspan
                       id="tspan352"
                       y="0"
                       x="0 7.6193967">−−</tspan></text>
<text
                     id="text358"
                     style="font-variant:normal;font-weight:normal;font-size:9.96259975px;font-family:CMR10;-inkscape-font-specification:CMR10;writing-mode:lr-tb;fill:#ffffff;fill-opacity:1;fill-rule:nonzero;stroke:none"
                     transform="matrix(1,0,0,-1,202.797,154.356)"><tspan
                       id="tspan356"
                       y="0"
                       x="0 9.173562 22.04524 26.504501 33.444447 39.840439 45.184376 57.731274 62.868988 69.085648 75.302315 93.02478 98.673576 110.76817 118.98532 123.89091 134.8687 140.51749 153.33936 159.52614 165.70294 169.66606 175.85284 189.61119 195.23807 202.02858 208.26517 213.44971">.1jbossroot18Oct1710:05.bash</tspan></text>
<g
                     transform="translate(423.638,154.556)"
                     id="g360"><path
                       id="path362"
                       style="fill:none;stroke:#ffffff;stroke-width:0.398;stroke-linecap:butt;stroke-linejoin:miter;stroke-miterlimit:10;stroke-dasharray:none;stroke-opacity:1"
                       d="M 0,0 H 2.989" /></g><text
                     id="text366"
                     style="font-variant:normal;font-weight:normal;font-size:9.96259975px;font-family:CMR10;-inkscape-font-specification:CMR10;writing-mode:lr-tb;fill:#ffffff;fill-opacity:1;fill-rule:nonzero;stroke:none"
                     transform="matrix(1,0,0,-1,427.883,154.356)"><tspan
                       id="tspan364"
                       y="0"
                       x="0 4.0228977 10.259485 16.496073 22.73266 29.523169">logout</tspan></text>
<text
                     id="text370"
                     style="font-variant:normal;font-weight:normal;font-size:9.96259975px;font-family:CMSY10;-inkscape-font-specification:CMSY10;writing-mode:lr-tb;fill:#ffffff;fill-opacity:1;fill-rule:nonzero;stroke:none"
                     transform="matrix(1,0,0,-1,138.563,142.401)"><tspan
                       id="tspan368"
                       y="0"
                       x="0">−</tspan></text>
<text
                     id="text374"
                     style="font-variant:normal;font-weight:normal;font-size:9.96259975px;font-family:CMR10;-inkscape-font-specification:CMR10;writing-mode:lr-tb;fill:#ffffff;fill-opacity:1;fill-rule:nonzero;stroke:none"
                     transform="matrix(1,0,0,-1,145.936,142.401)"><tspan
                       id="tspan372"
                       y="0"
                       x="0 4.1115651">rw</tspan></text>
<text
                     id="text378"
                     style="font-variant:normal;font-weight:normal;font-size:9.96259975px;font-family:CMSY10;-inkscape-font-specification:CMSY10;writing-mode:lr-tb;fill:#ffffff;fill-opacity:1;fill-rule:nonzero;stroke:none"
                     transform="matrix(1,0,0,-1,156.791,142.401)"><tspan
                       id="tspan376"
                       y="0"
                       x="0">−</tspan></text>
<text
                     id="text382"
                     style="font-variant:normal;font-weight:normal;font-size:9.96259975px;font-family:CMR10;-inkscape-font-specification:CMR10;writing-mode:lr-tb;fill:#ffffff;fill-opacity:1;fill-rule:nonzero;stroke:none"
                     transform="matrix(1,0,0,-1,163.869,142.401)"><tspan
                       id="tspan380"
                       y="0"
                       x="0 4.1115651">rw</tspan></text>
<text
                     id="text386"
                     style="font-variant:normal;font-weight:normal;font-size:9.96259975px;font-family:CMSY10;-inkscape-font-specification:CMSY10;writing-mode:lr-tb;fill:#ffffff;fill-opacity:1;fill-rule:nonzero;stroke:none"
                     transform="matrix(1,0,0,-1,174.724,142.401)"><tspan
                       id="tspan384"
                       y="0"
                       x="0">−</tspan></text>
<text
                     id="text390"
                     style="font-variant:normal;font-weight:normal;font-size:9.96259975px;font-family:CMR10;-inkscape-font-specification:CMR10;writing-mode:lr-tb;fill:#ffffff;fill-opacity:1;fill-rule:nonzero;stroke:none"
                     transform="matrix(1,0,0,-1,182.279,142.401)"><tspan
                       id="tspan388"
                       y="0"
                       x="0">r</tspan></text>
<text
                     id="text394"
                     style="font-variant:normal;font-weight:normal;font-size:9.96259975px;font-family:CMSY10;-inkscape-font-specification:CMSY10;writing-mode:lr-tb;fill:#ffffff;fill-opacity:1;fill-rule:nonzero;stroke:none"
                     transform="matrix(1,0,0,-1,187.498,142.401)"><tspan
                       id="tspan392"
                       y="0"
                       x="0 7.6193967">−−</tspan></text>
<text
                     id="text398"
                     style="font-variant:normal;font-weight:normal;font-size:9.96259975px;font-family:CMR10;-inkscape-font-specification:CMR10;writing-mode:lr-tb;fill:#ffffff;fill-opacity:1;fill-rule:nonzero;stroke:none"
                     transform="matrix(1,0,0,-1,202.797,142.401)"><tspan
                       id="tspan396"
                       y="0"
                       x="0 9.173562 22.04524 26.504501 33.444447 39.840439 45.184376 57.731274 62.868988 69.085648 75.302315 87.136887 92.865379 98.593872 110.76817 118.98532 123.89091 134.8687 140.51749 153.33936 159.52614 165.70294 169.66606 175.85284 189.61119 195.5768 202.70604 209.29131 214.81458">.1jbossroot193Oct1710:05.bash</tspan></text>
<g
                     transform="translate(425.338,142.6)"
                     id="g400"><path
                       id="path402"
                       style="fill:none;stroke:#ffffff;stroke-width:0.398;stroke-linecap:butt;stroke-linejoin:miter;stroke-miterlimit:10;stroke-dasharray:none;stroke-opacity:1"
                       d="M 0,0 H 2.989" /></g><text
                     id="text406"
                     style="font-variant:normal;font-weight:normal;font-size:9.96259975px;font-family:CMR10;-inkscape-font-specification:CMR10;writing-mode:lr-tb;fill:#ffffff;fill-opacity:1;fill-rule:nonzero;stroke:none"
                     transform="matrix(1,0,0,-1,429.922,142.401)"><tspan
                       id="tspan404"
                       y="0"
                       x="0 7.1292367 12.625603 19.200918 23.839506 28.211094 32.57272">profile</tspan></text>
<text
                     id="text410"
                     style="font-variant:normal;font-weight:normal;font-size:9.96259975px;font-family:CMSY10;-inkscape-font-specification:CMSY10;writing-mode:lr-tb;fill:#ffffff;fill-opacity:1;fill-rule:nonzero;stroke:none"
                     transform="matrix(1,0,0,-1,138.563,130.446)"><tspan
                       id="tspan408"
                       y="0"
                       x="0">−</tspan></text>
<text
                     id="text414"
                     style="font-variant:normal;font-weight:normal;font-size:9.96259975px;font-family:CMR10;-inkscape-font-specification:CMR10;writing-mode:lr-tb;fill:#ffffff;fill-opacity:1;fill-rule:nonzero;stroke:none"
                     transform="matrix(1,0,0,-1,145.936,130.446)"><tspan
                       id="tspan412"
                       y="0"
                       x="0 4.1115651">rw</tspan></text>
<text
                     id="text418"
                     style="font-variant:normal;font-weight:normal;font-size:9.96259975px;font-family:CMSY10;-inkscape-font-specification:CMSY10;writing-mode:lr-tb;fill:#ffffff;fill-opacity:1;fill-rule:nonzero;stroke:none"
                     transform="matrix(1,0,0,-1,156.791,130.446)"><tspan
                       id="tspan416"
                       y="0"
                       x="0">−</tspan></text>
<text
                     id="text422"
                     style="font-variant:normal;font-weight:normal;font-size:9.96259975px;font-family:CMR10;-inkscape-font-specification:CMR10;writing-mode:lr-tb;fill:#ffffff;fill-opacity:1;fill-rule:nonzero;stroke:none"
                     transform="matrix(1,0,0,-1,163.869,130.446)"><tspan
                       id="tspan420"
                       y="0"
                       x="0 4.1115651">rw</tspan></text>
<text
                     id="text426"
                     style="font-variant:normal;font-weight:normal;font-size:9.96259975px;font-family:CMSY10;-inkscape-font-specification:CMSY10;writing-mode:lr-tb;fill:#ffffff;fill-opacity:1;fill-rule:nonzero;stroke:none"
                     transform="matrix(1,0,0,-1,174.724,130.446)"><tspan
                       id="tspan424"
                       y="0"
                       x="0">−</tspan></text>
<text
                     id="text430"
                     style="font-variant:normal;font-weight:normal;font-size:9.96259975px;font-family:CMR10;-inkscape-font-specification:CMR10;writing-mode:lr-tb;fill:#ffffff;fill-opacity:1;fill-rule:nonzero;stroke:none"
                     transform="matrix(1,0,0,-1,182.279,130.446)"><tspan
                       id="tspan428"
                       y="0"
                       x="0">r</tspan></text>
<text
                     id="text434"
                     style="font-variant:normal;font-weight:normal;font-size:9.96259975px;font-family:CMSY10;-inkscape-font-specification:CMSY10;writing-mode:lr-tb;fill:#ffffff;fill-opacity:1;fill-rule:nonzero;stroke:none"
                     transform="matrix(1,0,0,-1,187.498,130.446)"><tspan
                       id="tspan432"
                       y="0"
                       x="0 7.6193967">−−</tspan></text>
<text
                     id="text440"
                     style="font-variant:normal;font-weight:normal;font-size:9.96259975px;font-family:CMR10;-inkscape-font-specification:CMR10;writing-mode:lr-tb;fill:#ffffff;fill-opacity:1;fill-rule:nonzero;stroke:none"
                     transform="matrix(1,0,0,-1,202.797,130.446)"><tspan
                       id="tspan436"
                       y="0"
                       x="0 9.173562 22.04524 26.504501 33.444447 39.840439 45.184376 57.731274 62.868988 69.085648 75.302315 87.136887 92.865379 98.593872 110.76817 118.98532 123.89091 134.8687 140.51749 153.33936 159.52614 165.70294 169.66606 175.85284 189.61119 195.06871 201.67989 207.73715 212.75232 219.36349 224.34181">.1jbossroot231Oct1710:05.bashrc</tspan><tspan
                       id="tspan438"
                       y="11.955"
                       x="-62.486 -56.382912 -51.912693 -44.149834 -38.323708 -33.853489 -26.09063 -20.264502">drwxrwxr</tspan></text>
<text
                     id="text444"
                     style="font-variant:normal;font-weight:normal;font-size:9.96259975px;font-family:CMSY10;-inkscape-font-specification:CMSY10;writing-mode:lr-tb;fill:#ffffff;fill-opacity:1;fill-rule:nonzero;stroke:none"
                     transform="matrix(1,0,0,-1,186.679,118.491)"><tspan
                       id="tspan442"
                       y="0"
                       x="0">−</tspan></text>
<text
                     id="text450"
                     style="font-variant:normal;font-weight:normal;font-size:9.96259975px;font-family:CMR10;-inkscape-font-specification:CMR10;writing-mode:lr-tb;fill:#ffffff;fill-opacity:1;fill-rule:nonzero;stroke:none"
                     transform="matrix(1,0,0,-1,193.902,118.491)"><tspan
                       id="tspan446"
                       y="0"
                       x="0 7.2208924 18.068171 30.93985 35.399109 42.339058 48.735046 54.078987 66.625885 71.763596 77.980263 84.196922 101.92935 107.56818 119.17461 128.2874 133.24878 149.58446 162.23695 168.41377 174.60054 178.56366 184.74048 198.50879 202.44203 210.29555">x.2jbossroot26Mar114:36.m2</tspan><tspan
                       id="tspan448"
                       y="11.955"
                       x="-52.553001 -47.115414 -42.994881 -36.393661 -30.346365 -25.341154 -20.345907 -11.530998 -6.027658 0.0196402 5.5130177 11.570278 17.617577 24.218796 30.276056 36.323353 41.81673 47.320072 53.367371 72.97377 77.843483">[jboss@e0c98b91ee17]$</tspan></text>
<g
                     transform="translate(139.744,232.065)"
                     id="g452" /></g></g><g
                 transform="translate(-75.812,-188.748)"
                 id="g454" /></g></g><g
             id="g456"><g
               transform="translate(70.143,52.311)"
               id="g458"><g
                 id="g460"><g
                   transform="translate(-134.075,-95.628)"
                   id="g462"><text
                     id="text468"
                     style="font-variant:normal;font-weight:normal;font-size:9.96259975px;font-family:CMR10;-inkscape-font-specification:CMR10;writing-mode:lr-tb;fill:#000000;fill-opacity:1;fill-rule:nonzero;stroke:none"
                     transform="matrix(1,0,0,-1,134.075,95.628)"><tspan
                       id="tspan464"
                       y="0"
                       x="0 7.1949897 12.17629 17.71151 23.246731 27.67411 32.10149 39.293491 43.167946 51.476753 55.904133 60.885433 66.141701 70.016159 74.997459 77.765068 83.300285 87.727669 91.63002 98.876816 101.92139 105.82373 110.80503 122.42442 127.41368 132.39499 137.93021 145.1501 150.68532 155.66663 159.59587 166.78787 175.08971 180.071 184.21944 189.75465 192.52226 198.05748 205.81238 211.3476 215.27684 218.04445 223.57967 231.87852 235.75298 241.28819 249.03313 258.16583 263.14713 268.40341">ConnecttocontainersfromyourhostmachineusingtheMoby</tspan><tspan
                       id="tspan466"
                       y="11.955"
                       x="0 4.4273796 7.1949897 9.9625998 14.389979 19.646248 26.848211 30.722666 36.247925 40.685265 49.538033 55.073254 60.608475 63.376083 66.143692 74.99646 79.975769 84.957069 90.492287 97.712181 102.69348 108.22871 113.76392 116.53153 119.29915 123.72652 128.70782 132.58228 135.34988 140.33119 145.86641 153.12317 155.89078 164.74355 169.72485 178.57761 183.00499 188.54021 192.96759 195.7352 200.71651 204.64575 209.07314 217.9259 222.35327 227.61951 232.87776 235.64537 239.54773 244.52902 250.06425 258.36609 262.79346 268.04974 271.92419">clientthenbuildyourapplicationsinanenclosedenvironment.</tspan></text>
<g
                     transform="translate(134.075,95.628)"
                     id="g470" /></g></g><g
                 transform="translate(-70.143,-52.311)"
                 id="g472" /></g></g><g
             id="g474"><g
               transform="translate(161.024,196.018)"
               id="g476"><g
                 id="g478"><g
                   transform="translate(-224.956,-239.335)"
                   id="g480"><text
                     id="text484"
                     style="font-variant:normal;font-weight:normal;font-size:9.96259975px;font-family:CMR10;-inkscape-font-specification:CMR10;writing-mode:lr-tb;fill:#000000;fill-opacity:1;fill-rule:nonzero;stroke:none"
                     transform="matrix(1,0,0,-1,224.956,239.335)"><tspan
                       id="tspan482"
                       y="0"
                       x="0 7.1949897 12.17629 17.432558 21.307013 26.288313 29.055923 34.591145 39.018524 46.248383 51.77364 57.308861 61.73624 64.503853 70.598969 76.134186 80.561569 84.490822 88.420067 91.187675 96.168976">ContainerShellSession</tspan></text>
<g
                     transform="translate(224.956,239.335)"
                     id="g486" /></g></g><g
                 transform="translate(-161.024,-196.018)"
                 id="g488" /></g></g><g
             id="g490"><g
               id="g492"><path
                 id="path494"
                 style="fill:none;stroke:#000000;stroke-width:0.3985;stroke-linecap:butt;stroke-linejoin:miter;stroke-miterlimit:10;stroke-dasharray:none;stroke-opacity:1"
                 d="M 1.1954,134.71233 H 71.60417" /><g
                 transform="translate(71.60417,134.71233)"
                 id="g496"><g
                   id="g498"><path
                     id="path500"
                     style="fill:none;stroke:#000000;stroke-width:0.31878999;stroke-linecap:round;stroke-linejoin:round;stroke-miterlimit:10;stroke-dasharray:none;stroke-opacity:1"
                     d="M -1.19551,1.59401 C -1.09587,0.99626 0,0.09961 0.29886,0 0,-0.09961 -1.09587,-0.99626 -1.19551,-1.59401" /></g></g></g></g><g
             id="g502"><path
               id="path504"
               style="fill:none;stroke:#000000;stroke-width:0.3985;stroke-linecap:butt;stroke-linejoin:miter;stroke-miterlimit:10;stroke-dasharray:none;stroke-opacity:1"
               d="m -6.09053,28.21251 v 98.7556" /><g
               transform="rotate(90,-66.52932,60.43879)"
               id="g506"><g
                 id="g508"><path
                   id="path510"
                   style="fill:none;stroke:#000000;stroke-width:0.31878999;stroke-linecap:round;stroke-linejoin:round;stroke-miterlimit:10;stroke-dasharray:none;stroke-opacity:1"
                   d="M -1.19551,1.59401 C -1.09587,0.99626 0,0.09961 0.29886,0 0,-0.09961 -1.09587,-0.99626 -1.19551,-1.59401" /></g></g><g
               id="g512"><g
                 transform="rotate(90,-31.1845,21.5745)"
                 id="g514"><g
                   id="g516"><g
                     transform="translate(-54.322,-96.076)"
                     id="g518"><text
                       id="text522"
                       style="font-variant:normal;font-weight:normal;font-size:9.96259975px;font-family:CMR10;-inkscape-font-specification:CMR10;writing-mode:lr-tb;fill:#000000;fill-opacity:1;fill-rule:nonzero;stroke:none"
                       transform="matrix(1,0,0,-1,54.322,96.076)"><tspan
                         id="tspan520"
                         y="0"
                         x="0 5.5352206 10.795473 14.9439 19.923208 24.350588 31.580446 36.007824 41.266087 45.693466">dockerexec</tspan></text>
<g
                       transform="translate(54.322,96.076)"
                       id="g524" /></g></g><g
                   transform="translate(9.61,-52.759)"
                   id="g526" /></g></g></g></g></g></g></g></svg>