<?xml version="1.0" encoding="UTF-8" standalone="no"?>
<svg
   xmlns:dc="http://purl.org/dc/elements/1.1/"
   xmlns:cc="http://creativecommons.org/ns#"
   xmlns:rdf="http://www.w3.org/1999/02/22-rdf-syntax-ns#"
   xmlns:svg="http://www.w3.org/2000/svg"
   xmlns="http://www.w3.org/2000/svg"
   viewBox="0 0 547.81732 162.70267"
   height="162.70267"
   width="547.81732"
   xml:space="preserve"
   id="svg2"
   version="1.1"><metadata
     id="metadata8"><rdf:RDF><cc:Work
         rdf:about=""><dc:format>image/svg+xml</dc:format><dc:type
           rdf:resource="http://purl.org/dc/dcmitype/StillImage" /></cc:Work></rdf:RDF></metadata><defs
     id="defs6" /><g
     transform="matrix(1.3333333,0,0,-1.3333333,0,162.70267)"
     id="g10"><g
       transform="translate(63.932,43.317)"
       id="g12"><g
         id="g14"><g
           id="g16" /><g
           id="g18"><g
             id="g20"><g
               id="g22"><g
                 id="g24" /></g></g><g
             id="g26"><g
               id="g28"><g
                 id="g30" /></g></g><g
             id="g32"><g
               id="g34"><g
                 id="g36" /></g></g><g
             id="g38"><g
               id="g40"><g
                 id="g42" /></g></g><g
             id="g44"><g
               id="g46"><g
                 id="g48" /></g></g><g
             id="g50"><g
               id="g52"><g
                 id="g54" /></g></g><g
             id="g56"><g
               id="g58"><g
                 id="g60" /></g></g><g
             id="g62"><g
               id="g64"><g
                 id="g66" /></g></g><g
             id="g68"><g
               id="g70"><path
                 id="path72"
                 style="fill:#b3b3ff;fill-opacity:1;fill-rule:nonzero;stroke:none"
                 d="M 52.70853,14.17339 H -52.70853 c -2.20094,0 -3.9851,-1.78417 -3.9851,-3.98511 v -20.37656 c 0,-2.20094 1.78416,-3.98511 3.9851,-3.98511 H 52.70853 c 2.20094,0 3.9851,1.78417 3.9851,3.98511 v 20.37656 c 0,2.20094 -1.78416,3.98511 -3.9851,3.98511 z" /></g><g
               transform="translate(-12.315,-2.491)"
               id="g74"><g
                 id="g76"><g
                   transform="translate(-51.617,-40.826)"
                   id="g78"><text
                     id="text82"
                     style="font-variant:normal;font-weight:normal;font-size:9.96259975px;font-family:CMR10;-inkscape-font-specification:CMR10;writing-mode:lr-tb;fill:#000000;fill-opacity:1;fill-rule:nonzero;stroke:none"
                     transform="matrix(1,0,0,-1,51.617,40.826)"><tspan
                       id="tspan80"
                       y="0"
                       x="0 9.1327152 14.114016 19.370283">Moby</tspan></text>
<g
                     transform="translate(51.617,40.826)"
                     id="g84" /></g></g><g
                 transform="translate(12.315,2.491)"
                 id="g86" /></g></g><g
             id="g88"><g
               transform="translate(-60.611,20.926)"
               id="g90"><g
                 id="g92" /><g
                 transform="translate(60.611,-20.926)"
                 id="g94" /></g></g><g
             id="g96"><g
               id="g98"><path
                 id="path100"
                 style="fill:#ecb3c6;fill-opacity:1;fill-rule:nonzero;stroke:#000000;stroke-width:0.3985;stroke-linecap:butt;stroke-linejoin:miter;stroke-miterlimit:10;stroke-dasharray:none;stroke-opacity:1"
                 d="m -46.7046,28.01326 h -6.20318 c -2.20094,0 -3.9851,-1.78416 -3.9851,-3.98511 v -6.20317 c 0,-2.20094 1.78416,-3.98511 3.9851,-3.98511 h 6.20318 c 2.20094,0 3.9851,1.78417 3.9851,3.98511 v 6.20317 c 0,2.20095 -1.78416,3.98511 -3.9851,3.98511 z" /></g><g
               transform="translate(-49.806,20.926)"
               id="g102"><g
                 id="g104" /><g
                 transform="translate(49.806,-20.926)"
                 id="g106" /></g></g><g
             id="g108"><g
               id="g110"><path
                 id="path112"
                 style="fill:#ecb3c6;fill-opacity:1;fill-rule:nonzero;stroke:#000000;stroke-width:0.3985;stroke-linecap:butt;stroke-linejoin:miter;stroke-miterlimit:10;stroke-dasharray:none;stroke-opacity:1"
                 d="m -32.13272,28.01326 h -6.20317 c -2.20094,0 -3.98511,-1.78416 -3.98511,-3.98511 v -6.20317 c 0,-2.20094 1.78417,-3.98511 3.98511,-3.98511 h 6.20317 c 2.20094,0 3.98511,1.78417 3.98511,3.98511 v 6.20317 c 0,2.20095 -1.78417,3.98511 -3.98511,3.98511 z" /></g><g
               transform="translate(-35.234,20.926)"
               id="g114"><g
                 id="g116" /><g
                 transform="translate(35.234,-20.926)"
                 id="g118" /></g></g><g
             id="g120"><g
               id="g122"><path
                 id="path124"
                 style="fill:#ecb3c6;fill-opacity:1;fill-rule:nonzero;stroke:#000000;stroke-width:0.3985;stroke-linecap:butt;stroke-linejoin:miter;stroke-miterlimit:10;stroke-dasharray:none;stroke-opacity:1"
                 d="m -17.56084,28.01326 h -6.20315 c -2.20095,0 -3.98511,-1.78416 -3.98511,-3.98511 v -6.20317 c 0,-2.20094 1.78416,-3.98511 3.98511,-3.98511 h 6.20315 c 2.20094,0 3.98511,1.78417 3.98511,3.98511 v 6.20317 c 0,2.20095 -1.78417,3.98511 -3.98511,3.98511 z" /></g><g
               transform="translate(-20.662,20.926)"
               id="g126"><g
                 id="g128" /><g
                 transform="translate(20.662,-20.926)"
                 id="g130" /></g></g><g
             id="g132"><g
               id="g134"><path
                 id="path136"
                 style="fill:#ecb3c6;fill-opacity:1;fill-rule:nonzero;stroke:#000000;stroke-width:0.3985;stroke-linecap:butt;stroke-linejoin:miter;stroke-miterlimit:10;stroke-dasharray:none;stroke-opacity:1"
                 d="m -2.98894,28.01326 h -6.20317 c -2.20094,0 -3.98511,-1.78416 -3.98511,-3.98511 v -6.20317 c 0,-2.20094 1.78417,-3.98511 3.98511,-3.98511 h 6.20317 c 2.20093,0 3.98509,1.78417 3.98509,3.98511 v 6.20317 c 0,2.20095 -1.78416,3.98511 -3.98509,3.98511 z" /></g><g
               transform="translate(-6.091,20.926)"
               id="g138"><g
                 id="g140" /><g
                 transform="translate(6.091,-20.926)"
                 id="g142" /></g></g><g
             id="g144"><g
               id="g146" /><g
               transform="translate(8.68,20.926)"
               id="g148"><g
                 id="g150" /><g
                 transform="translate(-8.68,-20.926)"
                 id="g152" /></g></g><g
             id="g154"><g
               id="g156" /><g
               transform="translate(23.65,20.926)"
               id="g158"><g
                 id="g160" /><g
                 transform="translate(-23.65,-20.926)"
                 id="g162" /></g></g><g
             id="g164"><g
               id="g166" /><g
               transform="translate(38.621,20.926)"
               id="g168"><g
                 id="g170" /><g
                 transform="translate(-38.621,-20.926)"
                 id="g172" /></g></g><g
             id="g174"><g
               id="g176" /><g
               transform="translate(53.591,20.926)"
               id="g178"><g
                 id="g180" /><g
                 transform="translate(-53.591,-20.926)"
                 id="g182" /></g></g><g
             id="g184"><g
               transform="translate(-23.426,32.264)"
               id="g186"><g
                 id="g188"><g
                   transform="translate(-40.506,-75.581)"
                   id="g190"><text
                     id="text194"
                     style="font-variant:normal;font-weight:normal;font-size:9.96259975px;font-family:CMR10;-inkscape-font-specification:CMR10;writing-mode:lr-tb;fill:#000000;fill-opacity:1;fill-rule:nonzero;stroke:none"
                     transform="matrix(1,0,0,-1,40.506,75.581)"><tspan
                       id="tspan192"
                       y="0"
                       x="0 7.1949897 12.17629 17.432558 21.307013 26.288313 29.055923 34.591145 39.018524 42.920872">Containers</tspan></text>
<g
                     transform="translate(40.506,75.581)"
                     id="g196" /></g></g><g
                 transform="translate(23.426,-32.264)"
                 id="g198" /></g></g><g
             id="g200"><path
               id="path202"
               style="fill:none;stroke:#000000;stroke-width:0.3985;stroke-linecap:butt;stroke-linejoin:miter;stroke-miterlimit:10;stroke-dasharray:none;stroke-opacity:1"
               d="M -26.9462,35.66905 H -49.80618 V 28.67079" /><g
               transform="rotate(-90,-10.567695,39.238485)"
               id="g204"><g
                 id="g206"><path
                   id="path208"
                   style="fill:none;stroke:#000000;stroke-width:0.31878999;stroke-linecap:round;stroke-linejoin:round;stroke-miterlimit:10;stroke-dasharray:none;stroke-opacity:1"
                   d="M -1.19551,1.59401 C -1.09587,0.99626 0,0.09961 0.29886,0 0,-0.09961 -1.09587,-0.99626 -1.19551,-1.59401" /></g></g></g><g
             id="g210"><path
               id="path212"
               style="fill:none;stroke:#000000;stroke-width:0.3985;stroke-linecap:butt;stroke-linejoin:miter;stroke-miterlimit:10;stroke-dasharray:none;stroke-opacity:1"
               d="M 26.9462,35.66905 H 53.59177 V 28.87004" /><g
               transform="rotate(-90,41.230905,-12.360865)"
               id="g214"><g
                 id="g216"><path
                   id="path218"
                   style="fill:none;stroke:#000000;stroke-width:0.31878999;stroke-linecap:round;stroke-linejoin:round;stroke-miterlimit:10;stroke-dasharray:none;stroke-opacity:1"
                   d="M -1.19551,1.59401 C -1.09587,0.99626 0,0.09961 0.29886,0 0,-0.09961 -1.09587,-0.99626 -1.19551,-1.59401" /></g></g></g><g
             id="g220"><g
               id="g222"><path
                 id="path224"
                 style="fill:#b3e6fa;fill-opacity:1;fill-rule:nonzero;stroke:none"
                 d="M 52.70853,-14.9704 H -52.70853 c -2.20094,0 -3.9851,-1.78416 -3.9851,-3.9851 v -20.37659 c 0,-2.20095 1.78416,-3.98511 3.9851,-3.98511 H 52.70853 c 2.20094,0 3.9851,1.78416 3.9851,3.98511 v 20.37659 c 0,2.20094 -1.78416,3.9851 -3.9851,3.9851 z" /></g><g
               transform="translate(-34.205,-32.603)"
               id="g226"><g
                 id="g228"><g
                   transform="translate(-29.727,-10.714)"
                   id="g230"><text
                     id="text234"
                     style="font-variant:normal;font-weight:normal;font-size:9.96259975px;font-family:CMR10;-inkscape-font-specification:CMR10;writing-mode:lr-tb;fill:#000000;fill-opacity:1;fill-rule:nonzero;stroke:none"
                     transform="matrix(1,0,0,-1,29.727,10.714)"><tspan
                       id="tspan232"
                       y="0"
                       x="0 7.4719501 12.45325 16.3825 23.574501 32.707214 37.688515 41.846905 47.382126 50.149734 55.674995 63.429882">HostMachine0</tspan></text>
<g
                     transform="translate(29.727,10.714)"
                     id="g236" /></g></g><g
                 transform="translate(34.205,32.603)"
                 id="g238" /></g></g><g
             id="g240"><g
               id="g242"><g
                 id="g244" /></g></g><g
             id="g246"><g
               id="g248"><g
                 id="g250" /></g></g><g
             id="g252"><g
               id="g254"><g
                 id="g256" /></g></g><g
             id="g258"><g
               id="g260"><g
                 id="g262" /></g></g><g
             id="g264"><g
               id="g266"><g
                 id="g268" /></g></g><g
             id="g270"><g
               id="g272"><g
                 id="g274" /></g></g><g
             id="g276"><g
               id="g278"><g
                 id="g280" /></g></g><g
             id="g282"><g
               id="g284"><g
                 id="g286" /></g></g><g
             id="g288"><g
               id="g290"><path
                 id="path292"
                 style="fill:#b3b3ff;fill-opacity:1;fill-rule:nonzero;stroke:none"
                 d="M 195.23961,14.17339 H 89.82256 c -2.20095,0 -3.98511,-1.78417 -3.98511,-3.98511 v -20.37656 c 0,-2.20094 1.78416,-3.98511 3.98511,-3.98511 h 105.41705 c 2.20094,0 3.98511,1.78417 3.98511,3.98511 v 20.37656 c 0,2.20094 -1.78417,3.98511 -3.98511,3.98511 z" /></g><g
               transform="translate(130.214,-2.491)"
               id="g294"><g
                 id="g296"><g
                   transform="translate(-194.146,-40.826)"
                   id="g298"><text
                     id="text302"
                     style="font-variant:normal;font-weight:normal;font-size:9.96259975px;font-family:CMR10;-inkscape-font-specification:CMR10;writing-mode:lr-tb;fill:#000000;fill-opacity:1;fill-rule:nonzero;stroke:none"
                     transform="matrix(1,0,0,-1,194.146,40.826)"><tspan
                       id="tspan300"
                       y="0"
                       x="0 9.1327152 14.114016 19.370283">Moby</tspan></text>
<g
                     transform="translate(194.146,40.826)"
                     id="g304" /></g></g><g
                 transform="translate(-130.214,2.491)"
                 id="g306" /></g></g><g
             id="g308"><g
               transform="translate(81.918,20.926)"
               id="g310"><g
                 id="g312" /><g
                 transform="translate(-81.918,-20.926)"
                 id="g314" /></g></g><g
             id="g316"><g
               id="g318"><path
                 id="path320"
                 style="fill:#ecb3c6;fill-opacity:1;fill-rule:nonzero;stroke:#000000;stroke-width:0.3985;stroke-linecap:butt;stroke-linejoin:miter;stroke-miterlimit:10;stroke-dasharray:none;stroke-opacity:1"
                 d="M 95.82646,28.01326 H 89.6233 c -2.20094,0 -3.9851,-1.78416 -3.9851,-3.98511 v -6.20317 c 0,-2.20094 1.78416,-3.98511 3.9851,-3.98511 h 6.20316 c 2.20094,0 3.98511,1.78417 3.98511,3.98511 v 6.20317 c 0,2.20095 -1.78417,3.98511 -3.98511,3.98511 z" /></g><g
               transform="translate(92.724,20.926)"
               id="g322"><g
                 id="g324" /><g
                 transform="translate(-92.724,-20.926)"
                 id="g326" /></g></g><g
             id="g328"><g
               id="g330"><path
                 id="path332"
                 style="fill:#ecb3c6;fill-opacity:1;fill-rule:nonzero;stroke:#000000;stroke-width:0.3985;stroke-linecap:butt;stroke-linejoin:miter;stroke-miterlimit:10;stroke-dasharray:none;stroke-opacity:1"
                 d="m 110.39836,28.01326 h -6.20317 c -2.20094,0 -3.98511,-1.78416 -3.98511,-3.98511 v -6.20317 c 0,-2.20094 1.78417,-3.98511 3.98511,-3.98511 h 6.20317 c 2.20094,0 3.98511,1.78417 3.98511,3.98511 v 6.20317 c 0,2.20095 -1.78417,3.98511 -3.98511,3.98511 z" /></g><g
               transform="translate(107.295,20.926)"
               id="g334"><g
                 id="g336" /><g
                 transform="translate(-107.295,-20.926)"
                 id="g338" /></g></g><g
             id="g340"><g
               id="g342" /><g
               transform="translate(122.066,20.926)"
               id="g344"><g
                 id="g346" /><g
                 transform="translate(-122.066,-20.926)"
                 id="g348" /></g></g><g
             id="g350"><g
               id="g352" /><g
               transform="translate(137.036,20.926)"
               id="g354"><g
                 id="g356" /><g
                 transform="translate(-137.036,-20.926)"
                 id="g358" /></g></g><g
             id="g360"><g
               id="g362" /><g
               transform="translate(152.007,20.926)"
               id="g364"><g
                 id="g366" /><g
                 transform="translate(-152.007,-20.926)"
                 id="g368" /></g></g><g
             id="g370"><g
               id="g372" /><g
               transform="translate(166.977,20.926)"
               id="g374"><g
                 id="g376" /><g
                 transform="translate(-166.977,-20.926)"
                 id="g378" /></g></g><g
             id="g380"><g
               id="g382" /><g
               transform="translate(181.947,20.926)"
               id="g384"><g
                 id="g386" /><g
                 transform="translate(-181.947,-20.926)"
                 id="g388" /></g></g><g
             id="g390"><g
               id="g392" /><g
               transform="translate(196.917,20.926)"
               id="g394"><g
                 id="g396" /><g
                 transform="translate(-196.917,-20.926)"
                 id="g398" /></g></g><g
             id="g400"><g
               id="g402"><path
                 id="path404"
                 style="fill:#b3e6fa;fill-opacity:1;fill-rule:nonzero;stroke:none"
                 d="M 195.23961,-14.9704 H 89.82256 c -2.20095,0 -3.98511,-1.78416 -3.98511,-3.9851 v -20.37659 c 0,-2.20095 1.78416,-3.98511 3.98511,-3.98511 h 105.41705 c 2.20094,0 3.98511,1.78416 3.98511,3.98511 v 20.37659 c 0,2.20094 -1.78417,3.9851 -3.98511,3.9851 z" /></g><g
               transform="translate(108.324,-32.603)"
               id="g406"><g
                 id="g408"><g
                   transform="translate(-172.256,-10.714)"
                   id="g410"><text
                     id="text414"
                     style="font-variant:normal;font-weight:normal;font-size:9.96259975px;font-family:CMR10;-inkscape-font-specification:CMR10;writing-mode:lr-tb;fill:#000000;fill-opacity:1;fill-rule:nonzero;stroke:none"
                     transform="matrix(1,0,0,-1,172.256,10.714)"><tspan
                       id="tspan412"
                       y="0"
                       x="0 7.4719501 12.45325 16.3825 23.574501 32.707214 37.688515 41.846905 47.382126 50.149734 55.684956 63.429882">HostMachine1</tspan></text>
<g
                     transform="translate(172.256,10.714)"
                     id="g416" /></g></g><g
                 transform="translate(-108.324,32.603)"
                 id="g418" /></g></g><g
             id="g420"><g
               id="g422"><g
                 id="g424" /></g></g><g
             id="g426"><g
               id="g428"><g
                 id="g430" /></g></g><g
             id="g432"><g
               id="g434"><g
                 id="g436" /></g></g><g
             id="g438"><g
               id="g440"><g
                 id="g442" /></g></g><g
             id="g444"><g
               id="g446"><g
                 id="g448" /></g></g><g
             id="g450"><g
               id="g452"><g
                 id="g454" /></g></g><g
             id="g456"><g
               id="g458"><g
                 id="g460" /></g></g><g
             id="g462"><g
               id="g464"><g
                 id="g466" /></g></g><g
             id="g468"><g
               id="g470"><path
                 id="path472"
                 style="fill:#b3b3ff;fill-opacity:1;fill-rule:nonzero;stroke:none"
                 d="M 337.77069,14.17339 H 232.35364 c -2.20094,0 -3.98511,-1.78417 -3.98511,-3.98511 v -20.37656 c 0,-2.20094 1.78417,-3.98511 3.98511,-3.98511 h 105.41705 c 2.20094,0 3.98511,1.78417 3.98511,3.98511 v 20.37656 c 0,2.20094 -1.78417,3.98511 -3.98511,3.98511 z" /></g><g
               transform="translate(272.743,-2.491)"
               id="g474"><g
                 id="g476"><g
                   transform="translate(-336.675,-40.826)"
                   id="g478"><text
                     id="text482"
                     style="font-variant:normal;font-weight:normal;font-size:9.96259975px;font-family:CMR10;-inkscape-font-specification:CMR10;writing-mode:lr-tb;fill:#000000;fill-opacity:1;fill-rule:nonzero;stroke:none"
                     transform="matrix(1,0,0,-1,336.675,40.826)"><tspan
                       id="tspan480"
                       y="0"
                       x="0 9.1327152 14.114016 19.370283">Moby</tspan></text>
<g
                     transform="translate(336.675,40.826)"
                     id="g484" /></g></g><g
                 transform="translate(-272.743,2.491)"
                 id="g486" /></g></g><g
             id="g488"><g
               transform="translate(224.447,20.926)"
               id="g490"><g
                 id="g492" /><g
                 transform="translate(-224.447,-20.926)"
                 id="g494" /></g></g><g
             id="g496"><g
               id="g498"><path
                 id="path500"
                 style="fill:#ecb3c6;fill-opacity:1;fill-rule:nonzero;stroke:#000000;stroke-width:0.3985;stroke-linecap:butt;stroke-linejoin:miter;stroke-miterlimit:10;stroke-dasharray:none;stroke-opacity:1"
                 d="m 238.35756,28.01326 h -6.20317 c -2.20094,0 -3.98511,-1.78416 -3.98511,-3.98511 v -6.20317 c 0,-2.20094 1.78417,-3.98511 3.98511,-3.98511 h 6.20317 c 2.20094,0 3.98511,1.78417 3.98511,3.98511 v 6.20317 c 0,2.20095 -1.78417,3.98511 -3.98511,3.98511 z" /></g><g
               transform="translate(235.253,20.926)"
               id="g502"><g
                 id="g504" /><g
                 transform="translate(-235.253,-20.926)"
                 id="g506" /></g></g><g
             id="g508"><g
               id="g510" /><g
               transform="translate(250.024,20.926)"
               id="g512"><g
                 id="g514" /><g
                 transform="translate(-250.024,-20.926)"
                 id="g516" /></g></g><g
             id="g518"><g
               id="g520" /><g
               transform="translate(264.994,20.926)"
               id="g522"><g
                 id="g524" /><g
                 transform="translate(-264.994,-20.926)"
                 id="g526" /></g></g><g
             id="g528"><g
               id="g530" /><g
               transform="translate(279.964,20.926)"
               id="g532"><g
                 id="g534" /><g
                 transform="translate(-279.964,-20.926)"
                 id="g536" /></g></g><g
             id="g538"><g
               id="g540" /><g
               transform="translate(294.934,20.926)"
               id="g542"><g
                 id="g544" /><g
                 transform="translate(-294.934,-20.926)"
                 id="g546" /></g></g><g
             id="g548"><g
               id="g550" /><g
               transform="translate(309.905,20.926)"
               id="g552"><g
                 id="g554" /><g
                 transform="translate(-309.905,-20.926)"
                 id="g556" /></g></g><g
             id="g558"><g
               id="g560" /><g
               transform="translate(324.875,20.926)"
               id="g562"><g
                 id="g564" /><g
                 transform="translate(-324.875,-20.926)"
                 id="g566" /></g></g><g
             id="g568"><g
               id="g570" /><g
               transform="translate(339.845,20.926)"
               id="g572"><g
                 id="g574" /><g
                 transform="translate(-339.845,-20.926)"
                 id="g576" /></g></g><g
             id="g578"><g
               id="g580"><path
                 id="path582"
                 style="fill:#b3e6fa;fill-opacity:1;fill-rule:nonzero;stroke:none"
                 d="M 337.77069,-14.9704 H 232.35364 c -2.20094,0 -3.98511,-1.78416 -3.98511,-3.9851 v -20.37659 c 0,-2.20095 1.78417,-3.98511 3.98511,-3.98511 h 105.41705 c 2.20094,0 3.98511,1.78416 3.98511,3.98511 v 20.37659 c 0,2.20094 -1.78417,3.9851 -3.98511,3.9851 z" /></g><g
               transform="translate(250.853,-32.603)"
               id="g584"><g
                 id="g586"><g
                   transform="translate(-314.785,-10.714)"
                   id="g588"><text
                     id="text592"
                     style="font-variant:normal;font-weight:normal;font-size:9.96259975px;font-family:CMR10;-inkscape-font-specification:CMR10;writing-mode:lr-tb;fill:#000000;fill-opacity:1;fill-rule:nonzero;stroke:none"
                     transform="matrix(1,0,0,-1,314.785,10.714)"><tspan
                       id="tspan590"
                       y="0"
                       x="0 7.4719501 12.45325 16.3825 23.574501 32.707214 37.688515 41.846905 47.382126 50.149734 55.684956 63.429882">HostMachine2</tspan></text>
<g
                     transform="translate(314.785,10.714)"
                     id="g594" /></g></g><g
                 transform="translate(-250.853,32.603)"
                 id="g596" /></g></g><g
             id="g598"><path
               id="path600"
               style="fill:none;stroke:#000000;stroke-width:0.3985;stroke-linecap:butt;stroke-linejoin:miter;stroke-miterlimit:10;stroke-dasharray:none;stroke-opacity:1"
               d="m 31.13,28.41176 c 19.05008,18.9411 49.94573,18.85081 68.56302,0.12642" /><g
               transform="matrix(0.70659,-0.71065,0.71065,0.70659,99.69301,28.53818)"
               id="g602"><g
                 id="g604"><path
                   id="path606"
                   style="fill:none;stroke:#000000;stroke-width:0.31878999;stroke-linecap:round;stroke-linejoin:round;stroke-miterlimit:10;stroke-dasharray:none;stroke-opacity:1"
                   d="M -1.19551,1.59401 C -1.09587,0.99626 0,0.09961 0.29886,0 0,-0.09961 -1.09587,-0.99626 -1.19551,-1.59401" /></g></g></g><g
             id="g608"><path
               id="path610"
               style="fill:none;stroke:#000000;stroke-width:0.3985;stroke-linecap:butt;stroke-linejoin:miter;stroke-miterlimit:10;stroke-dasharray:none;stroke-opacity:1"
               d="m 46.0972,28.41176 c 50.20853,50.09987 131.78209,50.00928 181.55696,0.12642" /><g
               transform="matrix(0.70917,-0.71065,0.71065,0.70917,227.65414,28.53818)"
               id="g612"><g
                 id="g614"><path
                   id="path616"
                   style="fill:none;stroke:#000000;stroke-width:0.31878999;stroke-linecap:round;stroke-linejoin:round;stroke-miterlimit:10;stroke-dasharray:none;stroke-opacity:1"
                   d="M -1.19551,1.59401 C -1.09587,0.99626 0,0.09961 0.29886,0 0,-0.09961 -1.09587,-0.99626 -1.19551,-1.59401" /></g></g></g><g
             id="g618"><path
               id="path620"
               style="fill:none;stroke:#000000;stroke-width:0.3985;stroke-linecap:butt;stroke-linejoin:miter;stroke-miterlimit:10;stroke-dasharray:none;stroke-opacity:1"
               d="m 61.07512,28.41176 c 6.77365,6.66397 17.70164,6.57439 24.04359,0.12805" /><g
               transform="matrix(0.70268,-0.7142,0.7142,0.70268,85.11871,28.53981)"
               id="g622"><g
                 id="g624"><path
                   id="path626"
                   style="fill:none;stroke:#000000;stroke-width:0.31878999;stroke-linecap:round;stroke-linejoin:round;stroke-miterlimit:10;stroke-dasharray:none;stroke-opacity:1"
                   d="M -1.19551,1.59401 C -1.09587,0.99626 0,0.09961 0.29886,0 0,-0.09961 -1.09587,-0.99626 -1.19551,-1.59401" /></g></g></g><g
             id="g628"><g
               id="g630"><g
                 id="g632" /></g></g></g></g></g></g></svg>