<?xml version="1.0" encoding="UTF-8" standalone="no"?>
<svg
   xmlns:dc="http://purl.org/dc/elements/1.1/"
   xmlns:cc="http://creativecommons.org/ns#"
   xmlns:rdf="http://www.w3.org/1999/02/22-rdf-syntax-ns#"
   xmlns:svg="http://www.w3.org/2000/svg"
   xmlns="http://www.w3.org/2000/svg"
   viewBox="0 0 379.54666 230.396"
   height="230.396"
   width="379.54666"
   xml:space="preserve"
   id="svg2"
   version="1.1"><metadata
     id="metadata8"><rdf:RDF><cc:Work
         rdf:about=""><dc:format>image/svg+xml</dc:format><dc:type
           rdf:resource="http://purl.org/dc/dcmitype/StillImage" /></cc:Work></rdf:RDF></metadata><defs
     id="defs6" /><g
     transform="matrix(1.3333333,0,0,-1.3333333,0,230.396)"
     id="g10"><g
       transform="translate(142.33,123.191)"
       id="g12"><g
         id="g14"><g
           id="g16" /><g
           id="g18"><g
             id="g20"><g
               id="g22"><path
                 id="path24"
                 style="fill:#006699;fill-opacity:1;fill-rule:nonzero;stroke:none"
                 d="m 137.749,49.60692 h -275.498 c -2.20094,0 -3.9851,-1.78417 -3.9851,-3.98511 v -91.24362 c 0,-2.20094 1.78416,-3.98511 3.9851,-3.98511 h 275.498 c 2.20094,0 3.9851,1.78417 3.9851,3.98511 v 91.24362 c 0,2.20094 -1.78416,3.98511 -3.9851,3.98511 z" /></g><g
               id="g26"><g
                 id="g28" /></g></g><g
             id="g30"><g
               transform="translate(-21.517,-39.073)"
               id="g32"><g
                 id="g34"><g
                   transform="translate(-120.813,-84.118)"
                   id="g36"><text
                     id="text40"
                     style="font-variant:normal;font-weight:normal;font-size:9.96259975px;font-family:CMR10;-inkscape-font-specification:CMR10;writing-mode:lr-tb;fill:#ffffff;fill-opacity:1;fill-rule:nonzero;stroke:none"
                     transform="matrix(1,0,0,-1,120.813,84.118)"><tspan
                       id="tspan38"
                       y="0"
                       x="0 7.4719501 11.401199 15.828579 19.730928 23.660179 29.1954 34.176701 38.60408">Userspace</tspan></text>
<g
                     transform="translate(120.813,84.118)"
                     id="g42" /></g></g><g
                 transform="translate(21.517,39.073)"
                 id="g44" /></g></g><g
             id="g46"><g
               id="g48"><path
                 id="path50"
                 style="fill:#003366;fill-opacity:1;fill-rule:nonzero;stroke:none"
                 d="m 137.749,-50.40393 h -275.498 c -2.20094,0 -3.9851,-1.78417 -3.9851,-3.98511 v -20.37659 c 0,-2.20092 1.78416,-3.9851 3.9851,-3.9851 h 275.498 c 2.20094,0 3.9851,1.78418 3.9851,3.9851 v 20.37659 c 0,2.20094 -1.78416,3.98511 -3.9851,3.98511 z" /></g><g
               transform="translate(-14.404,-68.036)"
               id="g52"><g
                 id="g54"><g
                   transform="translate(-127.926,-55.155)"
                   id="g56"><text
                     id="text60"
                     style="font-variant:normal;font-weight:normal;font-size:9.96259975px;font-family:CMR10;-inkscape-font-specification:CMR10;writing-mode:lr-tb;fill:#ffffff;fill-opacity:1;fill-rule:nonzero;stroke:none"
                     transform="matrix(1,0,0,-1,127.926,55.155)"><tspan
                       id="tspan58"
                       y="0"
                       x="0 7.7489104 12.17629 16.07864 21.613861 26.041241">Kernel</tspan></text>
<g
                     transform="translate(127.926,55.155)"
                     id="g62" /></g></g><g
                 transform="translate(14.404,68.036)"
                 id="g64" /></g></g><g
             id="g66"><g
               id="g68"><path
                 id="path70"
                 style="fill:#000033;fill-opacity:1;fill-rule:nonzero;stroke:none"
                 d="m 137.749,-78.75075 h -275.498 c -2.20094,0 -3.9851,-1.78416 -3.9851,-3.98511 v -20.37657 c 0,-2.20094 1.78416,-3.9851 3.9851,-3.9851 h 275.498 c 2.20094,0 3.9851,1.78416 3.9851,3.9851 v 20.37657 c 0,2.20095 -1.78416,3.98511 -3.9851,3.98511 z" /></g><g
               transform="translate(-21.06,-96.383)"
               id="g72"><g
                 id="g74"><g
                   transform="translate(-121.27,-26.808)"
                   id="g76"><text
                     id="text80"
                     style="font-variant:normal;font-weight:normal;font-size:9.96259975px;font-family:CMR10;-inkscape-font-specification:CMR10;writing-mode:lr-tb;fill:#ffffff;fill-opacity:1;fill-rule:nonzero;stroke:none"
                     transform="matrix(1,0,0,-1,121.27,26.808)"><tspan
                       id="tspan78"
                       y="0"
                       x="0 7.4719501 12.45325 16.3556 21.890821 28.806858 33.788158 37.69051">Hardware</tspan></text>
<g
                     transform="translate(121.27,26.808)"
                     id="g82" /></g></g><g
                 transform="translate(21.06,96.383)"
                 id="g84" /></g></g><g
             id="g86"><g
               transform="translate(-38.01,-117.933)"
               id="g88"><g
                 id="g90"><g
                   transform="translate(-104.32,-5.258)"
                   id="g92"><text
                     id="text96"
                     style="font-variant:normal;font-weight:normal;font-size:9.96259975px;font-family:CMR10;-inkscape-font-specification:CMR10;writing-mode:lr-tb;fill:#000000;fill-opacity:1;fill-rule:nonzero;stroke:none"
                     transform="matrix(1,0,0,-1,104.32,5.258)"><tspan
                       id="tspan94"
                       y="0"
                       x="0 6.7805457 12.036814 17.295074 21.224323 23.991934 28.419313 33.400612 39.485767 48.618484 53.599785 57.758175 63.293392 66.061005 71.596222">PhysicalMachine</tspan></text>
<g
                     transform="translate(104.32,5.258)"
                     id="g98" /></g></g><g
                 transform="translate(38.01,117.933)"
                 id="g100" /></g></g><g
             id="g102"><g
               id="g104"><path
                 id="path106"
                 style="fill:none;stroke:#000000;stroke-width:0.3985;stroke-linecap:butt;stroke-linejoin:miter;stroke-miterlimit:10;stroke-dasharray:none;stroke-opacity:1"
                 d="m -41.53061,-115.44376 h -100.602 v 7.48944" /><g
                 transform="rotate(90,-17.089145,-125.04346)"
                 id="g108"><g
                   id="g110"><path
                     id="path112"
                     style="fill:none;stroke:#000000;stroke-width:0.31878999;stroke-linecap:round;stroke-linejoin:round;stroke-miterlimit:10;stroke-dasharray:none;stroke-opacity:1"
                     d="M -1.19551,1.59401 C -1.09587,0.99626 0,0.09961 0.29886,0 0,-0.09961 -1.09587,-0.99626 -1.19551,-1.59401" /></g></g></g><g
               id="g114"><path
                 id="path116"
                 style="fill:none;stroke:#000000;stroke-width:0.3985;stroke-linecap:butt;stroke-linejoin:miter;stroke-miterlimit:10;stroke-dasharray:none;stroke-opacity:1"
                 d="m 41.53061,-115.44376 h 100.602 v 7.48944" /><g
                 transform="rotate(90,125.04346,17.089145)"
                 id="g118"><g
                   id="g120"><path
                     id="path122"
                     style="fill:none;stroke:#000000;stroke-width:0.31878999;stroke-linecap:round;stroke-linejoin:round;stroke-miterlimit:10;stroke-dasharray:none;stroke-opacity:1"
                     d="M -1.19551,1.59401 C -1.09587,0.99626 0,0.09961 0.29886,0 0,-0.09961 -1.09587,-0.99626 -1.19551,-1.59401" /></g></g></g></g><g
             id="g124"><g
               id="g126"><path
                 id="path128"
                 style="fill:#b3b3ff;fill-opacity:1;fill-rule:nonzero;stroke:none"
                 d="M 73.96864,27.9483 H -73.96864 c -2.20095,0 -3.98511,-1.78416 -3.98511,-3.9851 v -41.6367 c 0,-2.20094 1.78416,-3.9851 3.98511,-3.9851 H 73.96864 c 2.20095,0 3.98511,1.78416 3.98511,3.9851 v 41.6367 c 0,2.20094 -1.78416,3.9851 -3.98511,3.9851 z" /></g><g
               transform="translate(0,3.144)"
               id="g130"><g
                 id="g132" /><g
                 transform="translate(0,-3.144)"
                 id="g134" /></g></g><g
             id="g136"><g
               transform="translate(-38.135,-13.96)"
               id="g138"><g
                 id="g140"><g
                   transform="translate(-104.195,-109.231)"
                   id="g142"><text
                     id="text146"
                     style="font-variant:normal;font-weight:normal;font-size:9.96259975px;font-family:CMR10;-inkscape-font-specification:CMR10;writing-mode:lr-tb;fill:#000000;fill-opacity:1;fill-rule:nonzero;stroke:none"
                     transform="matrix(1,0,0,-1,104.195,109.231)"><tspan
                       id="tspan144"
                       y="0"
                       x="0 7.1949897 12.17629 17.432558 21.307013 26.288313 29.055923 34.591145 39.018524 46.248383 53.018963 58.554184 63.535484 66.303093 71.838318">ContainerEngine</tspan></text>
<g
                     transform="translate(104.195,109.231)"
                     id="g148" /></g></g><g
                 transform="translate(38.135,13.96)"
                 id="g150" /></g></g><g
             id="g152"><g
               transform="translate(-60.213,2.722)"
               id="g154"><g
                 id="g156" /><g
                 transform="translate(60.213,-2.722)"
                 id="g158" /></g></g><g
             id="g160"><g
               id="g162"><g
                 id="g164" /></g></g><g
             id="g166"><g
               id="g168"><g
                 id="g170" /></g></g><g
             id="g172"><g
               id="g174"><g
                 id="g176" /></g></g><g
             id="g178"><g
               id="g180"><g
                 id="g182" /></g></g><g
             id="g184"><g
               id="g186"><g
                 id="g188" /></g></g><g
             id="g190"><g
               id="g192"><g
                 id="g194" /></g></g><g
             id="g196"><g
               id="g198"><g
                 id="g200" /></g></g><g
             id="g202"><g
               id="g204"><g
                 id="g206" /></g></g><g
             id="g208"><g
               id="g210"><path
                 id="path212"
                 style="fill:#ecb3c6;fill-opacity:1;fill-rule:nonzero;stroke:#000000;stroke-width:0.3985;stroke-linecap:butt;stroke-linejoin:miter;stroke-miterlimit:10;stroke-dasharray:none;stroke-opacity:1"
                 d="m -46.3061,9.8095 h -6.20316 c -2.20094,0 -3.98511,-1.78417 -3.98511,-3.98511 v -6.20316 c 0,-2.20094 1.78417,-3.98511 3.98511,-3.98511 h 6.20316 c 2.20094,0 3.9851,1.78417 3.9851,3.98511 v 6.20316 c 0,2.20094 -1.78416,3.98511 -3.9851,3.98511 z" /></g><g
               transform="translate(-49.407,2.722)"
               id="g214"><g
                 id="g216" /><g
                 transform="translate(49.407,-2.722)"
                 id="g218" /></g></g><g
             id="g220"><g
               id="g222"><path
                 id="path224"
                 style="fill:#ecb3c6;fill-opacity:1;fill-rule:nonzero;stroke:#000000;stroke-width:0.3985;stroke-linecap:butt;stroke-linejoin:miter;stroke-miterlimit:10;stroke-dasharray:none;stroke-opacity:1"
                 d="m -31.7342,9.8095 h -6.20318 c -2.20094,0 -3.98511,-1.78417 -3.98511,-3.98511 v -6.20316 c 0,-2.20094 1.78417,-3.98511 3.98511,-3.98511 h 6.20318 c 2.20094,0 3.9851,1.78417 3.9851,3.98511 v 6.20316 c 0,2.20094 -1.78416,3.98511 -3.9851,3.98511 z" /></g><g
               transform="translate(-34.835,2.722)"
               id="g226"><g
                 id="g228" /><g
                 transform="translate(34.835,-2.722)"
                 id="g230" /></g></g><g
             id="g232"><g
               id="g234"><path
                 id="path236"
                 style="fill:#ecb3c6;fill-opacity:1;fill-rule:nonzero;stroke:#000000;stroke-width:0.3985;stroke-linecap:butt;stroke-linejoin:miter;stroke-miterlimit:10;stroke-dasharray:none;stroke-opacity:1"
                 d="m -17.16232,9.8095 h -6.20318 c -2.20094,0 -3.9851,-1.78417 -3.9851,-3.98511 v -6.20316 c 0,-2.20094 1.78416,-3.98511 3.9851,-3.98511 h 6.20318 c 2.20094,0 3.9851,1.78417 3.9851,3.98511 v 6.20316 c 0,2.20094 -1.78416,3.98511 -3.9851,3.98511 z" /></g><g
               transform="translate(-20.264,2.722)"
               id="g238"><g
                 id="g240" /><g
                 transform="translate(20.264,-2.722)"
                 id="g242" /></g></g><g
             id="g244"><g
               id="g246"><path
                 id="path248"
                 style="fill:#ecb3c6;fill-opacity:1;fill-rule:nonzero;stroke:#000000;stroke-width:0.3985;stroke-linecap:butt;stroke-linejoin:miter;stroke-miterlimit:10;stroke-dasharray:none;stroke-opacity:1"
                 d="m -2.59044,9.8095 h -6.20317 c -2.20094,0 -3.98511,-1.78417 -3.98511,-3.98511 v -6.20316 c 0,-2.20094 1.78417,-3.98511 3.98511,-3.98511 h 6.20317 c 2.20094,0 3.98509,1.78417 3.98509,3.98511 v 6.20316 c 0,2.20094 -1.78415,3.98511 -3.98509,3.98511 z" /></g><g
               transform="translate(-5.692,2.722)"
               id="g250"><g
                 id="g252" /><g
                 transform="translate(5.692,-2.722)"
                 id="g254" /></g></g><g
             id="g256"><g
               id="g258"><path
                 id="path260"
                 style="fill:#ecb3c6;fill-opacity:1;fill-rule:nonzero;stroke:#000000;stroke-width:0.3985;stroke-linecap:butt;stroke-linejoin:miter;stroke-miterlimit:10;stroke-dasharray:none;stroke-opacity:1"
                 d="M 11.98143,9.8095 H 5.77826 c -2.20094,0 -3.98511,-1.78417 -3.98511,-3.98511 v -6.20316 c 0,-2.20094 1.78417,-3.98511 3.98511,-3.98511 h 6.20317 c 2.20094,0 3.98511,1.78417 3.98511,3.98511 v 6.20316 c 0,2.20094 -1.78417,3.98511 -3.98511,3.98511 z" /></g><g
               transform="translate(8.88,2.722)"
               id="g262"><g
                 id="g264" /><g
                 transform="translate(-8.88,-2.722)"
                 id="g266" /></g></g><g
             id="g268"><g
               id="g270"><path
                 id="path272"
                 style="fill:#ecb3c6;fill-opacity:1;fill-rule:nonzero;stroke:#000000;stroke-width:0.3985;stroke-linecap:butt;stroke-linejoin:miter;stroke-miterlimit:10;stroke-dasharray:none;stroke-opacity:1"
                 d="m 26.55331,9.8095 h -6.20315 c -2.20094,0 -3.98511,-1.78417 -3.98511,-3.98511 v -6.20316 c 0,-2.20094 1.78417,-3.98511 3.98511,-3.98511 h 6.20315 c 2.20095,0 3.98511,1.78417 3.98511,3.98511 v 6.20316 c 0,2.20094 -1.78416,3.98511 -3.98511,3.98511 z" /></g><g
               transform="translate(23.451,2.722)"
               id="g274"><g
                 id="g276" /><g
                 transform="translate(-23.451,-2.722)"
                 id="g278" /></g></g><g
             id="g280"><g
               id="g282"><path
                 id="path284"
                 style="fill:#ecb3c6;fill-opacity:1;fill-rule:nonzero;stroke:#000000;stroke-width:0.3985;stroke-linecap:butt;stroke-linejoin:miter;stroke-miterlimit:10;stroke-dasharray:none;stroke-opacity:1"
                 d="m 41.1252,9.8095 h -6.20316 c -2.20094,0 -3.9851,-1.78417 -3.9851,-3.98511 v -6.20316 c 0,-2.20094 1.78416,-3.98511 3.9851,-3.98511 h 6.20316 c 2.20094,0 3.9851,1.78417 3.9851,3.98511 v 6.20316 c 0,2.20094 -1.78416,3.98511 -3.9851,3.98511 z" /></g><g
               transform="translate(38.023,2.722)"
               id="g286"><g
                 id="g288" /><g
                 transform="translate(-38.023,-2.722)"
                 id="g290" /></g></g><g
             id="g292"><g
               id="g294"><path
                 id="path296"
                 style="fill:#ecb3c6;fill-opacity:1;fill-rule:nonzero;stroke:#000000;stroke-width:0.3985;stroke-linecap:butt;stroke-linejoin:miter;stroke-miterlimit:10;stroke-dasharray:none;stroke-opacity:1"
                 d="m 55.6971,9.8095 h -6.20317 c -2.20095,0 -3.98511,-1.78417 -3.98511,-3.98511 v -6.20316 c 0,-2.20094 1.78416,-3.98511 3.98511,-3.98511 h 6.20317 c 2.20094,0 3.9851,1.78417 3.9851,3.98511 v 6.20316 c 0,2.20094 -1.78416,3.98511 -3.9851,3.98511 z" /></g><g
               transform="translate(52.595,2.722)"
               id="g298"><g
                 id="g300" /><g
                 transform="translate(-52.595,-2.722)"
                 id="g302" /></g></g><g
             id="g304"><g
               transform="translate(-56.693,2.722)"
               id="g306"><g
                 transform="translate(58.287)"
                 id="g308"><g
                   transform="translate(-58.287)"
                   id="g310" /></g><g
                 transform="translate(56.693,-2.722)"
                 id="g312" /></g></g><g
             id="g314"><g
               transform="translate(-20.074,12.796)"
               id="g316"><g
                 id="g318"><g
                   transform="translate(-122.256,-135.987)"
                   id="g320"><text
                     id="text324"
                     style="font-variant:normal;font-weight:normal;font-size:8.96640015px;font-family:CMR9;-inkscape-font-specification:CMR9;writing-mode:lr-tb;fill:#000000;fill-opacity:1;fill-rule:nonzero;stroke:none"
                     transform="matrix(1,0,0,-1,122.256,135.987)"><tspan
                       id="tspan322"
                       y="0"
                       x="0 6.6557589 11.263592 16.123381 19.707251 24.315084 26.87499 31.994804 36.094242 39.698734">Containers</tspan></text>
<g
                     transform="translate(122.256,135.987)"
                     id="g326" /></g></g><g
                 transform="translate(20.074,-12.796)"
                 id="g328" /></g></g><g
             id="g330"><path
               id="path332"
               style="fill:none;stroke:#000000;stroke-width:0.3985;stroke-linecap:butt;stroke-linejoin:miter;stroke-miterlimit:10;stroke-dasharray:none;stroke-opacity:1"
               d="M -23.59442,15.86008 H -49.40768 V 10.46703" /><g
               transform="rotate(-90,-19.470325,29.937355)"
               id="g334"><g
                 id="g336"><path
                   id="path338"
                   style="fill:none;stroke:#000000;stroke-width:0.31878999;stroke-linecap:round;stroke-linejoin:round;stroke-miterlimit:10;stroke-dasharray:none;stroke-opacity:1"
                   d="M -1.19551,1.59401 C -1.09587,0.99626 0,0.09961 0.29886,0 0,-0.09961 -1.09587,-0.99626 -1.19551,-1.59401" /></g></g></g><g
             id="g340"><path
               id="path342"
               style="fill:none;stroke:#000000;stroke-width:0.3985;stroke-linecap:butt;stroke-linejoin:miter;stroke-miterlimit:10;stroke-dasharray:none;stroke-opacity:1"
               d="M 26.78224,15.86008 H 52.5955 v -5.39305" /><g
               transform="rotate(-90,31.531265,-21.064235)"
               id="g344"><g
                 id="g346"><path
                   id="path348"
                   style="fill:none;stroke:#000000;stroke-width:0.31878999;stroke-linecap:round;stroke-linejoin:round;stroke-miterlimit:10;stroke-dasharray:none;stroke-opacity:1"
                   d="M -1.19551,1.59401 C -1.09587,0.99626 0,0.09961 0.29886,0 0,-0.09961 -1.09587,-0.99626 -1.19551,-1.59401" /></g></g></g></g></g></g></g></svg>