<?xml version="1.0" encoding="UTF-8" standalone="no"?>
<svg
   xmlns:dc="http://purl.org/dc/elements/1.1/"
   xmlns:cc="http://creativecommons.org/ns#"
   xmlns:rdf="http://www.w3.org/1999/02/22-rdf-syntax-ns#"
   xmlns:svg="http://www.w3.org/2000/svg"
   xmlns="http://www.w3.org/2000/svg"
   viewBox="0 0 531.25867 168.13333"
   height="168.13333"
   width="531.25867"
   xml:space="preserve"
   id="svg2"
   version="1.1"><metadata
     id="metadata8"><rdf:RDF><cc:Work
         rdf:about=""><dc:format>image/svg+xml</dc:format><dc:type
           rdf:resource="http://purl.org/dc/dcmitype/StillImage" /></cc:Work></rdf:RDF></metadata><defs
     id="defs6" /><g
     transform="matrix(1.3333333,0,0,-1.3333333,0,168.13333)"
     id="g10"><g
       transform="translate(56.693,43.317)"
       id="g12"><g
         id="g14"><g
           id="g16" /><g
           id="g18"><g
             id="g20"><g
               id="g22"><path
                 id="path24"
                 style="fill:#b3b3ff;fill-opacity:1;fill-rule:nonzero;stroke:none"
                 d="M 52.70853,14.17339 H -52.70853 c -2.20094,0 -3.9851,-1.78417 -3.9851,-3.98511 v -20.37656 c 0,-2.20094 1.78416,-3.98511 3.9851,-3.98511 H 52.70853 c 2.20094,0 3.9851,1.78417 3.9851,3.98511 v 20.37656 c 0,2.20094 -1.78416,3.98511 -3.9851,3.98511 z" /></g><g
               transform="translate(-15.165,-3.46)"
               id="g26"><g
                 id="g28"><g
                   transform="translate(-41.528,-39.857)"
                   id="g30"><text
                     id="text34"
                     style="font-variant:normal;font-weight:normal;font-size:9.96259975px;font-family:CMR10;-inkscape-font-specification:CMR10;writing-mode:lr-tb;fill:#000000;fill-opacity:1;fill-rule:nonzero;stroke:none"
                     transform="matrix(1,0,0,-1,41.528,39.857)"><tspan
                       id="tspan32"
                       y="0"
                       x="0 7.6104302 12.870683 17.01911 21.998417 26.425797">Docker</tspan></text>
<g
                     transform="translate(41.528,39.857)"
                     id="g36" /></g></g><g
                 transform="translate(15.165,3.46)"
                 id="g38" /></g></g><g
             id="g40"><g
               id="g42"><path
                 id="path44"
                 style="fill:#ecb3c6;fill-opacity:1;fill-rule:nonzero;stroke:none"
                 d="m -46.50536,28.34679 h -6.20317 c -2.20094,0 -3.9851,-1.78417 -3.9851,-3.98511 v -6.20317 c 0,-2.20094 1.78416,-3.98511 3.9851,-3.98511 h 6.20317 c 2.20095,0 3.98511,1.78417 3.98511,3.98511 v 6.20317 c 0,2.20094 -1.78416,3.98511 -3.98511,3.98511 z" /></g><g
               transform="translate(-49.606,21.259)"
               id="g46"><g
                 id="g48" /><g
                 transform="translate(49.606,-21.259)"
                 id="g50" /></g></g><g
             id="g52"><g
               id="g54"><path
                 id="path56"
                 style="fill:#ecb3c6;fill-opacity:1;fill-rule:nonzero;stroke:none"
                 d="m -31.53496,28.34679 h -6.20317 c -2.20094,0 -3.98511,-1.78417 -3.98511,-3.98511 v -6.20317 c 0,-2.20094 1.78417,-3.98511 3.98511,-3.98511 h 6.20317 c 2.20095,0 3.98511,1.78417 3.98511,3.98511 v 6.20317 c 0,2.20094 -1.78416,3.98511 -3.98511,3.98511 z" /></g><g
               transform="translate(-34.636,21.259)"
               id="g58"><g
                 id="g60" /><g
                 transform="translate(34.636,-21.259)"
                 id="g62" /></g></g><g
             id="g64"><g
               id="g66"><path
                 id="path68"
                 style="fill:#ecb3c6;fill-opacity:1;fill-rule:nonzero;stroke:none"
                 d="m -16.56458,28.34679 h -6.20315 c -2.20094,0 -3.98511,-1.78417 -3.98511,-3.98511 v -6.20317 c 0,-2.20094 1.78417,-3.98511 3.98511,-3.98511 h 6.20315 c 2.20095,0 3.98511,1.78417 3.98511,3.98511 v 6.20317 c 0,2.20094 -1.78416,3.98511 -3.98511,3.98511 z" /></g><g
               transform="translate(-19.666,21.259)"
               id="g70"><g
                 id="g72" /><g
                 transform="translate(19.666,-21.259)"
                 id="g74" /></g></g><g
             id="g76"><g
               id="g78"><path
                 id="path80"
                 style="fill:#ecb3c6;fill-opacity:1;fill-rule:nonzero;stroke:none"
                 d="m -1.59418,28.34679 h -6.20317 c -2.20094,0 -3.98511,-1.78417 -3.98511,-3.98511 v -6.20317 c 0,-2.20094 1.78417,-3.98511 3.98511,-3.98511 h 6.20317 c 2.20093,0 3.98509,1.78417 3.98509,3.98511 v 6.20317 c 0,2.20094 -1.78416,3.98511 -3.98509,3.98511 z" /></g><g
               transform="translate(-4.696,21.259)"
               id="g82"><g
                 id="g84" /><g
                 transform="translate(4.696,-21.259)"
                 id="g86" /></g></g><g
             id="g88"><g
               id="g90"><path
                 id="path92"
                 style="fill:#ffffff;fill-opacity:1;fill-rule:nonzero;stroke:none"
                 d="M 13.3762,28.34679 H 7.17303 c -2.20094,0 -3.9851,-1.78417 -3.9851,-3.98511 v -6.20317 c 0,-2.20094 1.78416,-3.98511 3.9851,-3.98511 h 6.20317 c 2.20093,0 3.98511,1.78417 3.98511,3.98511 v 6.20317 c 0,2.20094 -1.78418,3.98511 -3.98511,3.98511 z" /></g><g
               transform="translate(10.274,21.259)"
               id="g94"><g
                 id="g96" /><g
                 transform="translate(-10.274,-21.259)"
                 id="g98" /></g></g><g
             id="g100"><g
               id="g102"><path
                 id="path104"
                 style="fill:#ffffff;fill-opacity:1;fill-rule:nonzero;stroke:none"
                 d="m 28.34659,28.34679 h -6.20317 c -2.20095,0 -3.98511,-1.78417 -3.98511,-3.98511 v -6.20317 c 0,-2.20094 1.78416,-3.98511 3.98511,-3.98511 h 6.20317 c 2.20094,0 3.98511,1.78417 3.98511,3.98511 v 6.20317 c 0,2.20094 -1.78417,3.98511 -3.98511,3.98511 z" /></g><g
               transform="translate(25.245,21.259)"
               id="g106"><g
                 id="g108" /><g
                 transform="translate(-25.245,-21.259)"
                 id="g110" /></g></g><g
             id="g112"><g
               id="g114"><path
                 id="path116"
                 style="fill:#ffffff;fill-opacity:1;fill-rule:nonzero;stroke:none"
                 d="m 43.31699,28.34679 h -6.20317 c -2.20095,0 -3.98511,-1.78417 -3.98511,-3.98511 v -6.20317 c 0,-2.20094 1.78416,-3.98511 3.98511,-3.98511 h 6.20317 c 2.20094,0 3.98511,1.78417 3.98511,3.98511 v 6.20317 c 0,2.20094 -1.78417,3.98511 -3.98511,3.98511 z" /></g><g
               transform="translate(40.215,21.259)"
               id="g118"><g
                 id="g120" /><g
                 transform="translate(-40.215,-21.259)"
                 id="g122" /></g></g><g
             id="g124"><g
               id="g126"><path
                 id="path128"
                 style="fill:#b3e6fa;fill-opacity:1;fill-rule:nonzero;stroke:none"
                 d="M 52.70853,-14.9704 H -52.70853 c -2.20094,0 -3.9851,-1.78416 -3.9851,-3.9851 v -20.37659 c 0,-2.20095 1.78416,-3.98511 3.9851,-3.98511 H 52.70853 c 2.20094,0 3.9851,1.78416 3.9851,3.98511 v 20.37659 c 0,2.20094 -1.78416,3.9851 -3.9851,3.9851 z" /></g><g
               transform="translate(-34.205,-32.603)"
               id="g130"><g
                 id="g132"><g
                   transform="translate(-22.488,-10.714)"
                   id="g134"><text
                     id="text138"
                     style="font-variant:normal;font-weight:normal;font-size:9.96259975px;font-family:CMR10;-inkscape-font-specification:CMR10;writing-mode:lr-tb;fill:#000000;fill-opacity:1;fill-rule:nonzero;stroke:none"
                     transform="matrix(1,0,0,-1,22.488,10.714)"><tspan
                       id="tspan136"
                       y="0"
                       x="0 7.4719501 12.45325 16.3825 23.574501 32.707214 37.688515 41.846905 47.382126 50.149734 55.684956 63.429882">HostMachine1</tspan></text>
<g
                     transform="translate(22.488,10.714)"
                     id="g140" /></g></g><g
                 transform="translate(34.205,32.603)"
                 id="g142" /></g></g><g
             id="g144"><g
               transform="translate(-28.122,32.264)"
               id="g146"><g
                 id="g148"><g
                   transform="translate(-28.571,-75.581)"
                   id="g150"><text
                     id="text154"
                     style="font-variant:normal;font-weight:normal;font-size:9.96259975px;font-family:CMR10;-inkscape-font-specification:CMR10;writing-mode:lr-tb;fill:#000000;fill-opacity:1;fill-rule:nonzero;stroke:none"
                     transform="matrix(1,0,0,-1,28.571,75.581)"><tspan
                       id="tspan152"
                       y="0"
                       x="0 7.1949897 12.17629 17.432558 21.307013 26.288313 29.055923 34.591145 39.018524 42.920872">Containers</tspan></text>
<g
                     transform="translate(28.571,75.581)"
                     id="g156" /></g></g><g
                 transform="translate(28.122,-32.264)"
                 id="g158" /></g></g><g
             id="g160"><path
               id="path162"
               style="fill:none;stroke:#000000;stroke-width:0.3985;stroke-linecap:butt;stroke-linejoin:miter;stroke-miterlimit:10;stroke-dasharray:none;stroke-opacity:1"
               d="M -31.64197,35.66905 H -49.60693 V 29.20357" /><g
               transform="rotate(-90,-10.20168,39.40525)"
               id="g164"><g
                 id="g166"><path
                   id="path168"
                   style="fill:none;stroke:#000000;stroke-width:0.31878999;stroke-linecap:round;stroke-linejoin:round;stroke-miterlimit:10;stroke-dasharray:none;stroke-opacity:1"
                   d="M -1.19551,1.59401 C -1.09587,0.99626 0,0.09961 0.29886,0 0,-0.09961 -1.09587,-0.99626 -1.19551,-1.59401" /></g></g></g><g
             id="g170"><path
               id="path172"
               style="fill:none;stroke:#000000;stroke-width:0.3985;stroke-linecap:butt;stroke-linejoin:miter;stroke-miterlimit:10;stroke-dasharray:none;stroke-opacity:1"
               d="M 22.25043,35.66905 H 40.2154 v -6.46548" /><g
               transform="rotate(-90,34.709485,-5.505915)"
               id="g174"><g
                 id="g176"><path
                   id="path178"
                   style="fill:none;stroke:#000000;stroke-width:0.31878999;stroke-linecap:round;stroke-linejoin:round;stroke-miterlimit:10;stroke-dasharray:none;stroke-opacity:1"
                   d="M -1.19551,1.59401 C -1.09587,0.99626 0,0.09961 0.29886,0 0,-0.09961 -1.09587,-0.99626 -1.19551,-1.59401" /></g></g></g><g
             id="g180"><g
               id="g182"><path
                 id="path184"
                 style="fill:#b3b3ff;fill-opacity:1;fill-rule:nonzero;stroke:none"
                 d="M 195.23961,14.17339 H 89.82256 c -2.20095,0 -3.98511,-1.78417 -3.98511,-3.98511 v -20.37656 c 0,-2.20094 1.78416,-3.98511 3.98511,-3.98511 h 105.41705 c 2.20094,0 3.98511,1.78417 3.98511,3.98511 v 20.37656 c 0,2.20094 -1.78417,3.98511 -3.98511,3.98511 z" /></g><g
               transform="translate(127.364,-3.46)"
               id="g186"><g
                 id="g188"><g
                   transform="translate(-184.057,-39.857)"
                   id="g190"><text
                     id="text194"
                     style="font-variant:normal;font-weight:normal;font-size:9.96259975px;font-family:CMR10;-inkscape-font-specification:CMR10;writing-mode:lr-tb;fill:#000000;fill-opacity:1;fill-rule:nonzero;stroke:none"
                     transform="matrix(1,0,0,-1,184.057,39.857)"><tspan
                       id="tspan192"
                       y="0"
                       x="0 7.6104302 12.870683 17.01911 21.998417 26.425797">Docker</tspan></text>
<g
                     transform="translate(184.057,39.857)"
                     id="g196" /></g></g><g
                 transform="translate(-127.364,3.46)"
                 id="g198" /></g></g><g
             id="g200"><g
               id="g202"><path
                 id="path204"
                 style="fill:#ecb3c6;fill-opacity:1;fill-rule:nonzero;stroke:none"
                 d="m 96.02573,28.34679 h -6.20317 c -2.20095,0 -3.98511,-1.78417 -3.98511,-3.98511 v -6.20317 c 0,-2.20094 1.78416,-3.98511 3.98511,-3.98511 h 6.20317 c 2.20094,0 3.9851,1.78417 3.9851,3.98511 v 6.20317 c 0,2.20094 -1.78416,3.98511 -3.9851,3.98511 z" /></g><g
               transform="translate(92.923,21.259)"
               id="g206"><g
                 id="g208" /><g
                 transform="translate(-92.923,-21.259)"
                 id="g210" /></g></g><g
             id="g212"><g
               id="g214"><path
                 id="path216"
                 style="fill:#b3e6fa;fill-opacity:1;fill-rule:nonzero;stroke:none"
                 d="M 195.23961,-14.9704 H 89.82256 c -2.20095,0 -3.98511,-1.78416 -3.98511,-3.9851 v -20.37659 c 0,-2.20095 1.78416,-3.98511 3.98511,-3.98511 h 105.41705 c 2.20094,0 3.98511,1.78416 3.98511,3.98511 v 20.37659 c 0,2.20094 -1.78417,3.9851 -3.98511,3.9851 z" /></g><g
               transform="translate(108.324,-32.603)"
               id="g218"><g
                 id="g220"><g
                   transform="translate(-165.017,-10.714)"
                   id="g222"><text
                     id="text226"
                     style="font-variant:normal;font-weight:normal;font-size:9.96259975px;font-family:CMR10;-inkscape-font-specification:CMR10;writing-mode:lr-tb;fill:#000000;fill-opacity:1;fill-rule:nonzero;stroke:none"
                     transform="matrix(1,0,0,-1,165.017,10.714)"><tspan
                       id="tspan224"
                       y="0"
                       x="0 7.4719501 12.45325 16.3825 23.574501 32.707214 37.688515 41.846905 47.382126 50.149734 55.684956 63.429882">HostMachine2</tspan></text>
<g
                     transform="translate(165.017,10.714)"
                     id="g228" /></g></g><g
                 transform="translate(-108.324,32.603)"
                 id="g230" /></g></g><g
             id="g232"><g
               id="g234"><path
                 id="path236"
                 style="fill:#b3b3ff;fill-opacity:1;fill-rule:nonzero;stroke:none"
                 d="M 337.77069,14.17339 H 232.35364 c -2.20094,0 -3.98511,-1.78417 -3.98511,-3.98511 v -20.37656 c 0,-2.20094 1.78417,-3.98511 3.98511,-3.98511 h 105.41705 c 2.20094,0 3.98511,1.78417 3.98511,3.98511 v 20.37656 c 0,2.20094 -1.78417,3.98511 -3.98511,3.98511 z" /></g><g
               transform="translate(269.893,-3.46)"
               id="g238"><g
                 id="g240"><g
                   transform="translate(-326.586,-39.857)"
                   id="g242"><text
                     id="text246"
                     style="font-variant:normal;font-weight:normal;font-size:9.96259975px;font-family:CMR10;-inkscape-font-specification:CMR10;writing-mode:lr-tb;fill:#000000;fill-opacity:1;fill-rule:nonzero;stroke:none"
                     transform="matrix(1,0,0,-1,326.586,39.857)"><tspan
                       id="tspan244"
                       y="0"
                       x="0 7.6104302 12.870683 17.01911 21.998417 26.425797">Docker</tspan></text>
<g
                     transform="translate(326.586,39.857)"
                     id="g248" /></g></g><g
                 transform="translate(-269.893,3.46)"
                 id="g250" /></g></g><g
             id="g252"><g
               id="g254"><path
                 id="path256"
                 style="fill:#ecb3c6;fill-opacity:1;fill-rule:nonzero;stroke:none"
                 d="m 238.55681,28.34679 h -6.20317 c -2.20094,0 -3.98511,-1.78417 -3.98511,-3.98511 v -6.20317 c 0,-2.20094 1.78417,-3.98511 3.98511,-3.98511 h 6.20317 c 2.20094,0 3.98511,1.78417 3.98511,3.98511 v 6.20317 c 0,2.20094 -1.78417,3.98511 -3.98511,3.98511 z" /></g><g
               transform="translate(235.452,21.259)"
               id="g258"><g
                 id="g260" /><g
                 transform="translate(-235.452,-21.259)"
                 id="g262" /></g></g><g
             id="g264"><g
               id="g266"><path
                 id="path268"
                 style="fill:#ecb3c6;fill-opacity:1;fill-rule:nonzero;stroke:none"
                 d="m 110.99611,28.34679 h -6.20317 c -2.20093,0 -3.98511,-1.78417 -3.98511,-3.98511 v -6.20317 c 0,-2.20094 1.78418,-3.98511 3.98511,-3.98511 h 6.20317 c 2.20094,0 3.98511,1.78417 3.98511,3.98511 v 6.20317 c 0,2.20094 -1.78417,3.98511 -3.98511,3.98511 z" /></g><g
               transform="translate(107.893,21.259)"
               id="g270"><g
                 id="g272" /><g
                 transform="translate(-107.893,-21.259)"
                 id="g274" /></g></g><g
             id="g276"><g
               id="g278"><path
                 id="path280"
                 style="fill:#b3e6fa;fill-opacity:1;fill-rule:nonzero;stroke:none"
                 d="M 337.77069,-14.9704 H 232.35364 c -2.20094,0 -3.98511,-1.78416 -3.98511,-3.9851 v -20.37659 c 0,-2.20095 1.78417,-3.98511 3.98511,-3.98511 h 105.41705 c 2.20094,0 3.98511,1.78416 3.98511,3.98511 v 20.37659 c 0,2.20094 -1.78417,3.9851 -3.98511,3.9851 z" /></g><g
               transform="translate(250.853,-32.603)"
               id="g282"><g
                 id="g284"><g
                   transform="translate(-307.546,-10.714)"
                   id="g286"><text
                     id="text290"
                     style="font-variant:normal;font-weight:normal;font-size:9.96259975px;font-family:CMR10;-inkscape-font-specification:CMR10;writing-mode:lr-tb;fill:#000000;fill-opacity:1;fill-rule:nonzero;stroke:none"
                     transform="matrix(1,0,0,-1,307.546,10.714)"><tspan
                       id="tspan288"
                       y="0"
                       x="0 7.4719501 12.45325 16.3825 23.574501 32.707214 37.688515 41.846905 47.382126 50.149734 55.684956 63.429882">HostMachine3</tspan></text>
<g
                     transform="translate(307.546,10.714)"
                     id="g292" /></g></g><g
                 transform="translate(-250.853,32.603)"
                 id="g294" /></g></g><g
             id="g296"><path
               id="path298"
               style="fill:none;stroke:#000000;stroke-width:0.3985;stroke-linecap:butt;stroke-linejoin:miter;stroke-miterlimit:10;stroke-dasharray:none;stroke-opacity:1"
               d="M 47.69693,28.74529 C 58.10535,39.1537 75.0342,39.1537 85.11856,29.06934" /><g
               transform="matrix(0.70712,-0.7071,0.7071,0.70712,85.11855,29.06934)"
               id="g300"><g
                 id="g302"><path
                   id="path304"
                   style="fill:none;stroke:#000000;stroke-width:0.31878999;stroke-linecap:round;stroke-linejoin:round;stroke-miterlimit:10;stroke-dasharray:none;stroke-opacity:1"
                   d="M -1.19551,1.59401 C -1.09587,0.99626 0,0.09961 0.29886,0 0,-0.09961 -1.09587,-0.99626 -1.19551,-1.59401" /></g></g></g><g
             id="g306"><path
               id="path308"
               style="fill:none;stroke:#000000;stroke-width:0.3985;stroke-linecap:butt;stroke-linejoin:miter;stroke-miterlimit:10;stroke-dasharray:none;stroke-opacity:1"
               d="m 32.72574,28.74529 c 53.84015,53.84016 141.4086,53.84016 194.92471,0.32405" /><g
               transform="matrix(0.7071,-0.7071,0.7071,0.7071,227.65045,29.06934)"
               id="g310"><g
                 id="g312"><path
                   id="path314"
                   style="fill:none;stroke:#000000;stroke-width:0.31878999;stroke-linecap:round;stroke-linejoin:round;stroke-miterlimit:10;stroke-dasharray:none;stroke-opacity:1"
                   d="M -1.19551,1.59401 C -1.09587,0.99626 0,0.09961 0.29886,0 0,-0.09961 -1.09587,-0.99626 -1.19551,-1.59401" /></g></g></g><g
             id="g316"><path
               id="path318"
               style="fill:none;stroke:#000000;stroke-width:0.3985;stroke-linecap:butt;stroke-linejoin:miter;stroke-miterlimit:10;stroke-dasharray:none;stroke-opacity:1"
               d="m 17.75284,28.74529 c 22.79456,22.79457 59.86891,22.79457 82.33941,0.32405" /><g
               transform="matrix(0.70714,-0.7071,0.7071,0.70714,100.09224,29.06934)"
               id="g320"><g
                 id="g322"><path
                   id="path324"
                   style="fill:none;stroke:#000000;stroke-width:0.31878999;stroke-linecap:round;stroke-linejoin:round;stroke-miterlimit:10;stroke-dasharray:none;stroke-opacity:1"
                   d="M -1.19551,1.59401 C -1.09587,0.99626 0,0.09961 0.29886,0 0,-0.09961 -1.09587,-0.99626 -1.19551,-1.59401" /></g></g></g></g></g></g></g></svg>