<?xml version="1.0" encoding="UTF-8" standalone="no"?>
<svg
   xmlns:dc="http://purl.org/dc/elements/1.1/"
   xmlns:cc="http://creativecommons.org/ns#"
   xmlns:rdf="http://www.w3.org/1999/02/22-rdf-syntax-ns#"
   xmlns:svg="http://www.w3.org/2000/svg"
   xmlns="http://www.w3.org/2000/svg"
   viewBox="0 0 377.95334 227.83467"
   height="227.83467"
   width="377.95334"
   xml:space="preserve"
   id="svg2"
   version="1.1"><metadata
     id="metadata8"><rdf:RDF><cc:Work
         rdf:about=""><dc:format>image/svg+xml</dc:format><dc:type
           rdf:resource="http://purl.org/dc/dcmitype/StillImage" /></cc:Work></rdf:RDF></metadata><defs
     id="defs6" /><g
     transform="matrix(1.3333333,0,0,-1.3333333,0,227.83467)"
     id="g10"><g
       transform="translate(141.732,100.01)"
       id="g12"><g
         id="g14"><g
           id="g16" /><g
           id="g18"><g
             id="g20"><g
               id="g22"><path
                 id="path24"
                 style="fill:#006699;fill-opacity:1;fill-rule:nonzero;stroke:none"
                 d="m 24.3617,63.78033 h -48.7234 c -2.20094,0 -3.9851,-1.78416 -3.9851,-3.9851 V -59.79523 c 0,-2.20094 1.78416,-3.9851 3.9851,-3.9851 h 48.7234 c 2.20094,0 3.9851,1.78416 3.9851,3.9851 V 59.79523 c 0,2.20094 -1.78416,3.9851 -3.9851,3.9851 z" /></g><g
               id="g26"><g
                 id="g28" /></g></g><g
             id="g30"><g
               transform="translate(-21.516,-53.246)"
               id="g32"><g
                 id="g34"><g
                   transform="translate(-120.216,-46.764)"
                   id="g36"><text
                     id="text40"
                     style="font-variant:normal;font-weight:normal;font-size:9.96259975px;font-family:CMR10;-inkscape-font-specification:CMR10;writing-mode:lr-tb;fill:#ffffff;fill-opacity:1;fill-rule:nonzero;stroke:none"
                     transform="matrix(1,0,0,-1,120.216,46.764)"><tspan
                       id="tspan38"
                       y="0"
                       x="0 7.4719501 11.401199 15.828579 19.730928 23.660179 29.1954 34.176701 38.60408">Userspace</tspan></text>
<g
                     transform="translate(120.216,46.764)"
                     id="g42" /></g></g><g
                 transform="translate(21.516,53.246)"
                 id="g44" /></g></g><g
             id="g46"><g
               id="g48"><path
                 id="path50"
                 style="fill:#808080;fill-opacity:1;fill-rule:nonzero;stroke:none"
                 d="m 137.749,70.86703 h -275.498 c -2.20094,0 -3.9851,-1.78416 -3.9851,-3.9851 V -66.88193 c 0,-2.20094 1.78416,-3.9851 3.9851,-3.9851 h 275.498 c 2.20094,0 3.9851,1.78416 3.9851,3.9851 V 66.88193 c 0,2.20094 -1.78416,3.9851 -3.9851,3.9851 z" /></g><g
               id="g52"><g
                 id="g54" /></g></g><g
             id="g56"><g
               transform="translate(-22.139,-60.443)"
               id="g58"><g
                 id="g60"><g
                   transform="translate(-119.593,-39.567)"
                   id="g62"><text
                     id="text66"
                     style="font-variant:normal;font-weight:normal;font-size:9.96259975px;font-family:CMR10;-inkscape-font-specification:CMR10;writing-mode:lr-tb;fill:#000000;fill-opacity:1;fill-rule:nonzero;stroke:none"
                     transform="matrix(1,0,0,-1,119.593,39.566)"><tspan
                       id="tspan64"
                       y="0"
                       x="0 7.7489104 13.563084 17.990463 23.525684 29.060904 34.596127 37.363735 40.408306">OpenShift</tspan></text>
<g
                     transform="translate(119.593,39.566)"
                     id="g68" /></g></g><g
                 transform="translate(22.139,60.444)"
                 id="g70" /></g></g><g
             id="g72"><g
               id="g74"><path
                 id="path76"
                 style="fill:#b3b3ff;fill-opacity:1;fill-rule:nonzero;stroke:none"
                 d="M 52.70853,-14.17343 H -52.70853 c -2.20094,0 -3.9851,-1.78417 -3.9851,-3.98511 v -20.37659 c 0,-2.20094 1.78416,-3.9851 3.9851,-3.9851 H 52.70853 c 2.20094,0 3.9851,1.78416 3.9851,3.9851 v 20.37659 c 0,2.20094 -1.78416,3.98511 -3.9851,3.98511 z" /></g><g
               transform="translate(-15.165,-31.806)"
               id="g78"><g
                 id="g80"><g
                   transform="translate(-126.567,-68.204)"
                   id="g82"><text
                     id="text86"
                     style="font-variant:normal;font-weight:normal;font-size:9.96259975px;font-family:CMR10;-inkscape-font-specification:CMR10;writing-mode:lr-tb;fill:#000000;fill-opacity:1;fill-rule:nonzero;stroke:none"
                     transform="matrix(1,0,0,-1,126.567,68.204)"><tspan
                       id="tspan84"
                       y="0"
                       x="0 7.6104302 12.870683 17.01911 21.998417 26.425797">Docker</tspan></text>
<g
                     transform="translate(126.567,68.204)"
                     id="g88" /></g></g><g
                 transform="translate(15.165,31.806)"
                 id="g90" /></g></g><g
             id="g92"><g
               id="g94"><path
                 id="path96"
                 style="fill:#ecb3c6;fill-opacity:1;fill-rule:nonzero;stroke:#000000;stroke-width:0.3985;stroke-linecap:butt;stroke-linejoin:miter;stroke-miterlimit:10;stroke-dasharray:none;stroke-opacity:1"
                 d="m -103.7967,57.29132 h -6.20318 c -2.20094,0 -3.98511,-1.78416 -3.98511,-3.98511 v -6.20317 c 0,-2.20094 1.78417,-3.9851 3.98511,-3.9851 h 6.20318 c 2.20094,0 3.9851,1.78416 3.9851,3.9851 v 6.20317 c 0,2.20095 -1.78416,3.98511 -3.9851,3.98511 z" /></g><g
               transform="translate(-106.897,50.204)"
               id="g98"><g
                 id="g100" /><g
                 transform="translate(106.897,-50.204)"
                 id="g102" /></g></g><g
             id="g104"><g
               id="g106"><path
                 id="path108"
                 style="fill:#ecffb3;fill-opacity:0.4;fill-rule:nonzero;stroke:none"
                 d="m -100.27689,60.81114 h -13.24281 c -2.20094,0 -3.9851,-1.78416 -3.9851,-3.98511 V 43.58322 c 0,-2.20094 1.78416,-3.98511 3.9851,-3.98511 h 13.24281 c 2.20093,0 3.98511,1.78417 3.98511,3.98511 v 13.24281 c 0,2.20095 -1.78418,3.98511 -3.98511,3.98511 z" /></g><g
               transform="translate(-114.183,50.204)"
               id="g110"><g
                 transform="translate(7.286)"
                 id="g112"><g
                   transform="translate(-7.286)"
                   id="g114" /></g><g
                 transform="translate(114.183,-50.204)"
                 id="g116" /></g></g><g
             id="g118"><g
               id="g120"><path
                 id="path122"
                 style="fill:#ecb3c6;fill-opacity:1;fill-rule:nonzero;stroke:#000000;stroke-width:0.3985;stroke-linecap:butt;stroke-linejoin:miter;stroke-miterlimit:10;stroke-dasharray:none;stroke-opacity:1"
                 d="m 3.10158,57.29132 h -6.20316 c -2.20094,0 -3.98511,-1.78416 -3.98511,-3.98511 v -6.20317 c 0,-2.20094 1.78417,-3.9851 3.98511,-3.9851 h 6.20316 c 2.20094,0 3.98511,1.78416 3.98511,3.9851 v 6.20317 c 0,2.20095 -1.78417,3.98511 -3.98511,3.98511 z" /></g><g
               transform="translate(0,50.204)"
               id="g124"><g
                 id="g126" /><g
                 transform="translate(0,-50.204)"
                 id="g128" /></g></g><g
             id="g130"><g
               id="g132"><path
                 id="path134"
                 style="fill:#fffbb3;fill-opacity:0.4;fill-rule:nonzero;stroke:none"
                 d="M 6.6214,60.81114 H -6.6214 c -2.20094,0 -3.9851,-1.78416 -3.9851,-3.98511 V 43.58322 c 0,-2.20094 1.78416,-3.98511 3.9851,-3.98511 H 6.6214 c 2.20094,0 3.9851,1.78417 3.9851,3.98511 v 13.24281 c 0,2.20095 -1.78416,3.98511 -3.9851,3.98511 z" /></g><g
               transform="translate(-7.286,50.204)"
               id="g136"><g
                 transform="translate(7.286)"
                 id="g138"><g
                   transform="translate(-7.286)"
                   id="g140" /></g><g
                 transform="translate(7.286,-50.204)"
                 id="g142" /></g></g><g
             id="g144"><g
               id="g146"><path
                 id="path148"
                 style="fill:#ecb3c6;fill-opacity:1;fill-rule:nonzero;stroke:#000000;stroke-width:0.3985;stroke-linecap:butt;stroke-linejoin:miter;stroke-miterlimit:10;stroke-dasharray:none;stroke-opacity:1"
                 d="m -61.27649,43.1179 h -6.20317 c -2.20094,0 -3.98511,-1.78416 -3.98511,-3.9851 v -6.20316 c 0,-2.20094 1.78417,-3.98511 3.98511,-3.98511 h 6.20317 c 2.20094,0 3.98511,1.78417 3.98511,3.98511 v 6.20316 c 0,2.20094 -1.78417,3.9851 -3.98511,3.9851 z" /></g><g
               transform="translate(-64.377,36.03)"
               id="g150"><g
                 id="g152" /><g
                 transform="translate(64.377,-36.03)"
                 id="g154" /></g></g><g
             id="g156"><g
               id="g158"><path
                 id="path160"
                 style="fill:#ecb3c6;fill-opacity:1;fill-rule:nonzero;stroke:#000000;stroke-width:0.3985;stroke-linecap:butt;stroke-linejoin:miter;stroke-miterlimit:10;stroke-dasharray:none;stroke-opacity:1"
                 d="m -46.7046,43.1179 h -6.20318 c -2.20094,0 -3.9851,-1.78416 -3.9851,-3.9851 v -6.20316 c 0,-2.20094 1.78416,-3.98511 3.9851,-3.98511 h 6.20318 c 2.20094,0 3.9851,1.78417 3.9851,3.98511 v 6.20316 c 0,2.20094 -1.78416,3.9851 -3.9851,3.9851 z" /></g><g
               transform="translate(-49.805,36.03)"
               id="g162"><g
                 id="g164" /><g
                 transform="translate(49.805,-36.03)"
                 id="g166" /></g></g><g
             id="g168"><g
               id="g170"><path
                 id="path172"
                 style="fill:#ecb3c6;fill-opacity:1;fill-rule:nonzero;stroke:#000000;stroke-width:0.3985;stroke-linecap:butt;stroke-linejoin:miter;stroke-miterlimit:10;stroke-dasharray:none;stroke-opacity:1"
                 d="m -32.13272,43.1179 h -6.20317 c -2.20094,0 -3.98511,-1.78416 -3.98511,-3.9851 v -6.20316 c 0,-2.20094 1.78417,-3.98511 3.98511,-3.98511 h 6.20317 c 2.20094,0 3.98511,1.78417 3.98511,3.98511 v 6.20316 c 0,2.20094 -1.78417,3.9851 -3.98511,3.9851 z" /></g><g
               transform="translate(-35.234,36.03)"
               id="g174"><g
                 id="g176" /><g
                 transform="translate(35.234,-36.03)"
                 id="g178" /></g></g><g
             id="g180"><g
               id="g182"><path
                 id="path184"
                 style="fill:#ffb3b3;fill-opacity:0.4;fill-rule:nonzero;stroke:none"
                 d="m -28.6129,46.63773 h -42.38658 c -2.20094,0 -3.98511,-1.78417 -3.98511,-3.98511 v -13.2428 c 0,-2.20094 1.78417,-3.98511 3.98511,-3.98511 h 42.38658 c 2.20094,0 3.98511,1.78417 3.98511,3.98511 v 13.2428 c 0,2.20094 -1.78417,3.98511 -3.98511,3.98511 z" /></g><g
               transform="translate(-71.663,36.03)"
               id="g186"><g
                 transform="translate(21.858)"
                 id="g188"><g
                   transform="translate(-21.858)"
                   id="g190" /></g><g
                 transform="translate(71.663,-36.03)"
                 id="g192" /></g></g><g
             id="g194"><g
               id="g196"><path
                 id="path198"
                 style="fill:#ecb3c6;fill-opacity:1;fill-rule:nonzero;stroke:#000000;stroke-width:0.3985;stroke-linecap:butt;stroke-linejoin:miter;stroke-miterlimit:10;stroke-dasharray:none;stroke-opacity:1"
                 d="m -66.28754,-48.12903 h -6.20316 c -2.20095,0 -3.98511,-1.78417 -3.98511,-3.98511 v -6.20316 c 0,-2.20095 1.78416,-3.98511 3.98511,-3.98511 h 6.20316 c 2.20094,0 3.98511,1.78416 3.98511,3.98511 v 6.20316 c 0,2.20094 -1.78417,3.98511 -3.98511,3.98511 z" /></g><g
               transform="translate(-69.388,-55.215)"
               id="g200"><g
                 id="g202" /><g
                 transform="translate(69.388,55.215)"
                 id="g204" /></g></g><g
             id="g206"><g
               id="g208"><path
                 id="path210"
                 style="fill:#ecb3c6;fill-opacity:1;fill-rule:nonzero;stroke:#000000;stroke-width:0.3985;stroke-linecap:butt;stroke-linejoin:miter;stroke-miterlimit:10;stroke-dasharray:none;stroke-opacity:1"
                 d="m -51.71565,-48.12903 h -6.20316 c -2.20094,0 -3.98511,-1.78417 -3.98511,-3.98511 v -6.20316 c 0,-2.20095 1.78417,-3.98511 3.98511,-3.98511 h 6.20316 c 2.20094,0 3.9851,1.78416 3.9851,3.98511 v 6.20316 c 0,2.20094 -1.78416,3.98511 -3.9851,3.98511 z" /></g><g
               transform="translate(-54.816,-55.215)"
               id="g212"><g
                 id="g214" /><g
                 transform="translate(54.816,55.215)"
                 id="g216" /></g></g><g
             id="g218"><g
               id="g220"><path
                 id="path222"
                 style="fill:#ffd9b3;fill-opacity:0.4;fill-rule:nonzero;stroke:none"
                 d="m -48.19583,-44.6092 h -27.8147 c -2.20094,0 -3.98511,-1.78417 -3.98511,-3.98511 v -13.24282 c 0,-2.20094 1.78417,-3.98511 3.98511,-3.98511 h 27.8147 c 2.20094,0 3.98511,1.78417 3.98511,3.98511 v 13.24282 c 0,2.20094 -1.78417,3.98511 -3.98511,3.98511 z" /></g><g
               transform="translate(-76.674,-55.215)"
               id="g224"><g
                 transform="translate(14.572)"
                 id="g226"><g
                   transform="translate(-14.572)"
                   id="g228" /></g><g
                 transform="translate(76.674,55.215)"
                 id="g230" /></g></g><g
             id="g232"><g
               id="g234"><path
                 id="path236"
                 style="fill:#ecb3c6;fill-opacity:1;fill-rule:nonzero;stroke:#000000;stroke-width:0.3985;stroke-linecap:butt;stroke-linejoin:miter;stroke-miterlimit:10;stroke-dasharray:none;stroke-opacity:1"
                 d="m -103.7967,-43.11798 h -6.20318 c -2.20094,0 -3.98511,-1.78417 -3.98511,-3.98511 v -6.20317 c 0,-2.20094 1.78417,-3.98511 3.98511,-3.98511 h 6.20318 c 2.20094,0 3.9851,1.78417 3.9851,3.98511 v 6.20317 c 0,2.20094 -1.78416,3.98511 -3.9851,3.98511 z" /></g><g
               transform="translate(-106.897,-50.204)"
               id="g238"><g
                 id="g240" /><g
                 transform="translate(106.897,50.204)"
                 id="g242" /></g></g><g
             id="g244"><g
               id="g246"><path
                 id="path248"
                 style="fill:#fffbb3;fill-opacity:0.4;fill-rule:nonzero;stroke:none"
                 d="m -100.27689,-39.59816 h -13.24281 c -2.20094,0 -3.9851,-1.78416 -3.9851,-3.98511 v -13.24281 c 0,-2.20094 1.78416,-3.98511 3.9851,-3.98511 h 13.24281 c 2.20093,0 3.98511,1.78417 3.98511,3.98511 v 13.24281 c 0,2.20095 -1.78418,3.98511 -3.98511,3.98511 z" /></g><g
               transform="translate(-114.183,-50.204)"
               id="g250"><g
                 transform="translate(7.286)"
                 id="g252"><g
                   transform="translate(-7.286)"
                   id="g254" /></g><g
                 transform="translate(114.183,50.204)"
                 id="g256" /></g></g><g
             id="g258"><g
               id="g260"><path
                 id="path262"
                 style="fill:#ecb3c6;fill-opacity:1;fill-rule:nonzero;stroke:#000000;stroke-width:0.3985;stroke-linecap:butt;stroke-linejoin:miter;stroke-miterlimit:10;stroke-dasharray:none;stroke-opacity:1"
                 d="m 109.99988,14.77109 h -6.20318 c -2.20094,0 -3.9851,-1.78417 -3.9851,-3.98511 V 4.58281 c 0,-2.20094 1.78416,-3.98511 3.9851,-3.98511 h 6.20318 c 2.20094,0 3.98511,1.78417 3.98511,3.98511 v 6.20317 c 0,2.20094 -1.78417,3.98511 -3.98511,3.98511 z" /></g><g
               transform="translate(106.897,7.684)"
               id="g264"><g
                 id="g266" /><g
                 transform="translate(-106.897,-7.684)"
                 id="g268" /></g></g><g
             id="g270"><g
               id="g272"><path
                 id="path274"
                 style="fill:#ecb3c6;fill-opacity:1;fill-rule:nonzero;stroke:#000000;stroke-width:0.3985;stroke-linecap:butt;stroke-linejoin:miter;stroke-miterlimit:10;stroke-dasharray:none;stroke-opacity:1"
                 d="m 109.99988,0.1992 h -6.20318 c -2.20094,0 -3.9851,-1.78415 -3.9851,-3.98509 v -6.20317 c 0,-2.20094 1.78416,-3.98511 3.9851,-3.98511 h 6.20318 c 2.20094,0 3.98511,1.78417 3.98511,3.98511 v 6.20317 c 0,2.20094 -1.78417,3.98509 -3.98511,3.98509 z" /></g><g
               transform="translate(106.897,-6.888)"
               id="g276"><g
                 id="g278" /><g
                 transform="translate(-106.897,6.888)"
                 id="g280" /></g></g><g
             id="g282"><g
               id="g284"><path
                 id="path286"
                 style="fill:#b3e6fa;fill-opacity:0.4;fill-rule:nonzero;stroke:none"
                 d="m 113.5197,18.29091 h -13.24281 c -2.20093,0 -3.98511,-1.78417 -3.98511,-3.98511 v -27.81468 c 0,-2.20094 1.78418,-3.98511 3.98511,-3.98511 h 13.24281 c 2.20094,0 3.9851,1.78417 3.9851,3.98511 V 14.3058 c 0,2.20094 -1.78416,3.98511 -3.9851,3.98511 z" /></g><g
               transform="translate(99.611,0.398)"
               id="g288"><g
                 transform="translate(7.286)"
                 id="g290"><g
                   transform="translate(-7.286)"
                   id="g292" /></g><g
                 transform="translate(-99.611,-0.398)"
                 id="g294" /></g></g><g
             id="g296"><g
               id="g298"><path
                 id="path300"
                 style="fill:#ecb3c6;fill-opacity:1;fill-rule:nonzero;stroke:#000000;stroke-width:0.3985;stroke-linecap:butt;stroke-linejoin:miter;stroke-miterlimit:10;stroke-dasharray:none;stroke-opacity:1"
                 d="m 67.47966,-50.20468 h -6.20317 c -2.20094,0 -3.98511,-1.78417 -3.98511,-3.98511 v -6.20317 c 0,-2.20094 1.78417,-3.98511 3.98511,-3.98511 h 6.20317 c 2.20094,0 3.98511,1.78417 3.98511,3.98511 v 6.20317 c 0,2.20094 -1.78417,3.98511 -3.98511,3.98511 z" /></g><g
               transform="translate(64.377,-57.291)"
               id="g302"><g
                 id="g304" /><g
                 transform="translate(-64.377,57.291)"
                 id="g306" /></g></g><g
             id="g308"><g
               id="g310"><path
                 id="path312"
                 style="fill:#d9b3d9;fill-opacity:0.4;fill-rule:nonzero;stroke:none"
                 d="M 70.99948,-46.68486 H 57.75667 c -2.20094,0 -3.98511,-1.78416 -3.98511,-3.98511 v -13.24281 c 0,-2.20093 1.78417,-3.98511 3.98511,-3.98511 h 13.24281 c 2.20094,0 3.98511,1.78418 3.98511,3.98511 v 13.24281 c 0,2.20095 -1.78417,3.98511 -3.98511,3.98511 z" /></g><g
               transform="translate(57.091,-57.291)"
               id="g314"><g
                 transform="translate(7.286)"
                 id="g316"><g
                   transform="translate(-7.286)"
                   id="g318" /></g><g
                 transform="translate(-57.091,57.291)"
                 id="g320" /></g></g><g
             id="g322"><g
               id="g324"><path
                 id="path326"
                 style="fill:#ecb3c6;fill-opacity:1;fill-rule:nonzero;stroke:#000000;stroke-width:0.3985;stroke-linecap:butt;stroke-linejoin:miter;stroke-miterlimit:10;stroke-dasharray:none;stroke-opacity:1"
                 d="m 3.10158,28.9445 h -6.20316 c -2.20094,0 -3.98511,-1.78416 -3.98511,-3.9851 v -6.20317 c 0,-2.20095 1.78417,-3.98511 3.98511,-3.98511 h 6.20316 c 2.20094,0 3.98511,1.78416 3.98511,3.98511 v 6.20317 c 0,2.20094 -1.78417,3.9851 -3.98511,3.9851 z" /></g><g
               transform="translate(0,21.857)"
               id="g328"><g
                 id="g330" /><g
                 transform="translate(0,-21.857)"
                 id="g332" /></g></g><g
             id="g334"><g
               id="g336"><path
                 id="path338"
                 style="fill:#b3b3ff;fill-opacity:0.4;fill-rule:nonzero;stroke:none"
                 d="M 6.6214,32.46432 H -6.6214 c -2.20094,0 -3.9851,-1.78416 -3.9851,-3.9851 V 15.2364 c 0,-2.20094 1.78416,-3.9851 3.9851,-3.9851 H 6.6214 c 2.20094,0 3.9851,1.78416 3.9851,3.9851 v 13.24282 c 0,2.20094 -1.78416,3.9851 -3.9851,3.9851 z" /></g><g
               transform="translate(-7.286,21.857)"
               id="g340"><g
                 transform="translate(7.286)"
                 id="g342"><g
                   transform="translate(-7.286)"
                   id="g344" /></g><g
                 transform="translate(7.286,-21.857)"
                 id="g346" /></g></g><g
             id="g348"><g
               id="g350"><path
                 id="path352"
                 style="fill:#ecb3c6;fill-opacity:1;fill-rule:nonzero;stroke:#000000;stroke-width:0.3985;stroke-linecap:butt;stroke-linejoin:miter;stroke-miterlimit:10;stroke-dasharray:none;stroke-opacity:1"
                 d="m -89.6233,14.77109 h -6.20316 c -2.20094,0 -3.98511,-1.78417 -3.98511,-3.98511 V 4.58281 c 0,-2.20094 1.78417,-3.98511 3.98511,-3.98511 h 6.20316 c 2.20094,0 3.9851,1.78417 3.9851,3.98511 v 6.20317 c 0,2.20094 -1.78416,3.98511 -3.9851,3.98511 z" /></g><g
               transform="translate(-92.724,7.684)"
               id="g354"><g
                 id="g356" /><g
                 transform="translate(92.724,-7.684)"
                 id="g358" /></g></g><g
             id="g360"><g
               id="g362"><path
                 id="path364"
                 style="fill:#ecb3c6;fill-opacity:1;fill-rule:nonzero;stroke:#000000;stroke-width:0.3985;stroke-linecap:butt;stroke-linejoin:miter;stroke-miterlimit:10;stroke-dasharray:none;stroke-opacity:1"
                 d="m -75.05142,14.77109 h -6.20316 c -2.20094,0 -3.98511,-1.78417 -3.98511,-3.98511 V 4.58281 c 0,-2.20094 1.78417,-3.98511 3.98511,-3.98511 h 6.20316 c 2.20094,0 3.98511,1.78417 3.98511,3.98511 v 6.20317 c 0,2.20094 -1.78417,3.98511 -3.98511,3.98511 z" /></g><g
               transform="translate(-78.152,7.684)"
               id="g366"><g
                 id="g368" /><g
                 transform="translate(78.152,-7.684)"
                 id="g370" /></g></g><g
             id="g372"><g
               id="g374"><path
                 id="path376"
                 style="fill:#ffb3b3;fill-opacity:0.4;fill-rule:nonzero;stroke:none"
                 d="m -71.5316,18.29091 h -27.81468 c -2.20095,0 -3.98511,-1.78417 -3.98511,-3.98511 V 1.06299 c 0,-2.20093 1.78416,-3.98509 3.98511,-3.98509 h 27.81468 c 2.20094,0 3.9851,1.78416 3.9851,3.98509 V 14.3058 c 0,2.20094 -1.78416,3.98511 -3.9851,3.98511 z" /></g><g
               transform="translate(-100.01,7.684)"
               id="g378"><g
                 transform="translate(14.572)"
                 id="g380"><g
                   transform="translate(-14.572)"
                   id="g382" /></g><g
                 transform="translate(100.01,-7.684)"
                 id="g384" /></g></g><g
             id="g386"><g
               id="g388"><path
                 id="path390"
                 style="fill:#ecb3c6;fill-opacity:1;fill-rule:nonzero;stroke:#000000;stroke-width:0.3985;stroke-linecap:butt;stroke-linejoin:miter;stroke-miterlimit:10;stroke-dasharray:none;stroke-opacity:1"
                 d="m 81.65306,57.29132 h -6.20317 c -2.20094,0 -3.98511,-1.78416 -3.98511,-3.98511 v -6.20317 c 0,-2.20094 1.78417,-3.9851 3.98511,-3.9851 h 6.20317 c 2.20094,0 3.98511,1.78416 3.98511,3.9851 v 6.20317 c 0,2.20095 -1.78417,3.98511 -3.98511,3.98511 z" /></g><g
               transform="translate(78.55,50.204)"
               id="g392"><g
                 id="g394" /><g
                 transform="translate(-78.55,-50.204)"
                 id="g396" /></g></g><g
             id="g398"><g
               id="g400"><path
                 id="path402"
                 style="fill:#ecb3c6;fill-opacity:1;fill-rule:nonzero;stroke:#000000;stroke-width:0.3985;stroke-linecap:butt;stroke-linejoin:miter;stroke-miterlimit:10;stroke-dasharray:none;stroke-opacity:1"
                 d="m 96.22495,57.29132 h -6.20318 c -2.20094,0 -3.9851,-1.78416 -3.9851,-3.98511 v -6.20317 c 0,-2.20094 1.78416,-3.9851 3.9851,-3.9851 h 6.20318 c 2.20094,0 3.9851,1.78416 3.9851,3.9851 v 6.20317 c 0,2.20095 -1.78416,3.98511 -3.9851,3.98511 z" /></g><g
               transform="translate(93.122,50.204)"
               id="g404"><g
                 id="g406" /><g
                 transform="translate(-93.122,-50.204)"
                 id="g408" /></g></g><g
             id="g410"><g
               id="g412"><path
                 id="path414"
                 style="fill:#b3ffb3;fill-opacity:0.4;fill-rule:nonzero;stroke:none"
                 d="m 99.74477,60.81114 h -27.8147 c -2.20094,0 -3.98511,-1.78416 -3.98511,-3.98511 V 43.58322 c 0,-2.20094 1.78417,-3.98511 3.98511,-3.98511 h 27.8147 c 2.20094,0 3.9851,1.78417 3.9851,3.98511 v 13.24281 c 0,2.20095 -1.78416,3.98511 -3.9851,3.98511 z" /></g><g
               transform="translate(71.265,50.204)"
               id="g416"><g
                 transform="translate(14.571)"
                 id="g418"><g
                   transform="translate(-14.571)"
                   id="g420" /></g><g
                 transform="translate(-71.265,-50.204)"
                 id="g422" /></g></g><g
             id="g424"><g
               id="g426"><path
                 id="path428"
                 style="fill:#b3e6fa;fill-opacity:1;fill-rule:nonzero;stroke:none"
                 d="m 137.749,-71.66405 h -275.498 c -2.20094,0 -3.9851,-1.78416 -3.9851,-3.9851 v -20.37659 c 0,-2.20094 1.78416,-3.98511 3.9851,-3.98511 h 275.498 c 2.20094,0 3.9851,1.78417 3.9851,3.98511 v 20.37659 c 0,2.20094 -1.78416,3.9851 -3.9851,3.9851 z" /></g><g
               transform="translate(-30.054,-89.296)"
               id="g430"><g
                 id="g432"><g
                   transform="translate(-111.678,-10.714)"
                   id="g434"><text
                     id="text438"
                     style="font-variant:normal;font-weight:normal;font-size:9.96259975px;font-family:CMR10;-inkscape-font-specification:CMR10;writing-mode:lr-tb;fill:#000000;fill-opacity:1;fill-rule:nonzero;stroke:none"
                     transform="matrix(1,0,0,-1,111.678,10.714)"><tspan
                       id="tspan436"
                       y="0"
                       x="0 7.4719501 12.45325 16.3825 23.574501 32.707214 37.688515 41.846905 47.382126 50.149734 55.684956">HostMachine</tspan></text>
<g
                     transform="translate(111.678,10.714)"
                     id="g440" /></g></g><g
                 transform="translate(30.054,89.296)"
                 id="g442" /></g></g></g></g></g></g></svg>