<?xml version="1.0" encoding="UTF-8" standalone="no"?>
<svg
   xmlns:dc="http://purl.org/dc/elements/1.1/"
   xmlns:cc="http://creativecommons.org/ns#"
   xmlns:rdf="http://www.w3.org/1999/02/22-rdf-syntax-ns#"
   xmlns:svg="http://www.w3.org/2000/svg"
   xmlns="http://www.w3.org/2000/svg"
   viewBox="0 0 377.95334 227.83467"
   height="227.83467"
   width="377.95334"
   xml:space="preserve"
   id="svg2"
   version="1.1"><metadata
     id="metadata8"><rdf:RDF><cc:Work
         rdf:about=""><dc:format>image/svg+xml</dc:format><dc:type
           rdf:resource="http://purl.org/dc/dcmitype/StillImage" /></cc:Work></rdf:RDF></metadata><defs
     id="defs6" /><g
     transform="matrix(1.3333333,0,0,-1.3333333,0,227.83467)"
     id="g10"><g
       transform="translate(141.732,100.01)"
       id="g12"><g
         id="g14"><g
           id="g16" /><g
           id="g18"><g
             id="g20"><g
               id="g22"><path
                 id="path24"
                 style="fill:#006699;fill-opacity:1;fill-rule:nonzero;stroke:none"
                 d="m 24.3617,63.78033 h -48.7234 c -2.20094,0 -3.9851,-1.78416 -3.9851,-3.9851 V -59.79523 c 0,-2.20094 1.78416,-3.9851 3.9851,-3.9851 h 48.7234 c 2.20094,0 3.9851,1.78416 3.9851,3.9851 V 59.79523 c 0,2.20094 -1.78416,3.9851 -3.9851,3.9851 z" /></g><g
               id="g26"><g
                 id="g28" /></g></g><g
             id="g30"><g
               transform="translate(-21.516,-53.246)"
               id="g32"><g
                 id="g34"><g
                   transform="translate(-120.216,-46.764)"
                   id="g36"><text
                     id="text40"
                     style="font-variant:normal;font-weight:normal;font-size:9.96259975px;font-family:CMR10;-inkscape-font-specification:CMR10;writing-mode:lr-tb;fill:#ffffff;fill-opacity:1;fill-rule:nonzero;stroke:none"
                     transform="matrix(1,0,0,-1,120.216,46.764)"><tspan
                       id="tspan38"
                       y="0"
                       x="0 7.4719501 11.401199 15.828579 19.730928 23.660179 29.1954 34.176701 38.60408">Userspace</tspan></text>
<g
                     transform="translate(120.216,46.764)"
                     id="g42" /></g></g><g
                 transform="translate(21.516,53.246)"
                 id="g44" /></g></g><g
             id="g46"><g
               id="g48"><path
                 id="path50"
                 style="fill:#808080;fill-opacity:1;fill-rule:nonzero;stroke:none"
                 d="m 137.749,70.86703 h -275.498 c -2.20094,0 -3.9851,-1.78416 -3.9851,-3.9851 V -66.88193 c 0,-2.20094 1.78416,-3.9851 3.9851,-3.9851 h 275.498 c 2.20094,0 3.9851,1.78416 3.9851,3.9851 V 66.88193 c 0,2.20094 -1.78416,3.9851 -3.9851,3.9851 z" /></g><g
               id="g52"><g
                 id="g54" /></g></g><g
             id="g56"><g
               transform="translate(-22.139,-60.443)"
               id="g58"><g
                 id="g60"><g
                   transform="translate(-119.593,-39.567)"
                   id="g62"><text
                     id="text66"
                     style="font-variant:normal;font-weight:normal;font-size:9.96259975px;font-family:CMR10;-inkscape-font-specification:CMR10;writing-mode:lr-tb;fill:#000000;fill-opacity:1;fill-rule:nonzero;stroke:none"
                     transform="matrix(1,0,0,-1,119.593,39.566)"><tspan
                       id="tspan64"
                       y="0"
                       x="0 7.7489104 13.563084 17.990463 23.525684 29.060904 34.596127 37.363735 40.408306">OpenShift</tspan></text>
<g
                     transform="translate(119.593,39.566)"
                     id="g68" /></g></g><g
                 transform="translate(22.139,60.444)"
                 id="g70" /></g></g><g
             id="g72"><g
               id="g74"><path
                 id="path76"
                 style="fill:#b3b3ff;fill-opacity:1;fill-rule:nonzero;stroke:none"
                 d="M 52.70853,-14.17343 H -52.70853 c -2.20094,0 -3.9851,-1.78417 -3.9851,-3.98511 v -20.37659 c 0,-2.20094 1.78416,-3.9851 3.9851,-3.9851 H 52.70853 c 2.20094,0 3.9851,1.78416 3.9851,3.9851 v 20.37659 c 0,2.20094 -1.78416,3.98511 -3.9851,3.98511 z" /></g><g
               transform="translate(-15.165,-31.806)"
               id="g78"><g
                 id="g80"><g
                   transform="translate(-126.567,-68.204)"
                   id="g82"><text
                     id="text86"
                     style="font-variant:normal;font-weight:normal;font-size:9.96259975px;font-family:CMR10;-inkscape-font-specification:CMR10;writing-mode:lr-tb;fill:#000000;fill-opacity:1;fill-rule:nonzero;stroke:none"
                     transform="matrix(1,0,0,-1,126.567,68.204)"><tspan
                       id="tspan84"
                       y="0"
                       x="0 7.6104302 12.870683 17.01911 21.998417 26.425797">Docker</tspan></text>
<g
                     transform="translate(126.567,68.204)"
                     id="g88" /></g></g><g
                 transform="translate(15.165,31.806)"
                 id="g90" /></g></g><g
             id="g92"><g
               id="g94"><path
                 id="path96"
                 style="fill:#ecb3c6;fill-opacity:1;fill-rule:nonzero;stroke:#000000;stroke-width:0.3985;stroke-linecap:butt;stroke-linejoin:miter;stroke-miterlimit:10;stroke-dasharray:none;stroke-opacity:1"
                 d="m -103.7967,-13.5757 h -6.20318 c -2.20094,0 -3.98511,-1.78416 -3.98511,-3.9851 v -6.20316 c 0,-2.20094 1.78417,-3.98511 3.98511,-3.98511 h 6.20318 c 2.20094,0 3.9851,1.78417 3.9851,3.98511 v 6.20316 c 0,2.20094 -1.78416,3.9851 -3.9851,3.9851 z" /></g><g
               transform="translate(-106.897,-20.663)"
               id="g98"><g
                 id="g100" /><g
                 transform="translate(106.897,20.663)"
                 id="g102" /></g></g><g
             id="g104"><g
               id="g106"><path
                 id="path108"
                 style="fill:#ecffb3;fill-opacity:0.5;fill-rule:nonzero;stroke:none"
                 d="m -100.27689,-10.05588 h -13.24281 c -2.20094,0 -3.9851,-1.78416 -3.9851,-3.98511 v -13.24279 c 0,-2.20095 1.78416,-3.98511 3.9851,-3.98511 h 13.24281 c 2.20093,0 3.98511,1.78416 3.98511,3.98511 v 13.24279 c 0,2.20095 -1.78418,3.98511 -3.98511,3.98511 z" /></g><g
               transform="translate(-114.183,-20.663)"
               id="g110"><g
                 transform="translate(7.286)"
                 id="g112"><g
                   transform="translate(-7.286)"
                   id="g114" /></g><g
                 transform="translate(114.183,20.663)"
                 id="g116" /></g></g><g
             id="g118"><g
               id="g120"><path
                 id="path122"
                 style="fill:#ecb3c6;fill-opacity:1;fill-rule:nonzero;stroke:#000000;stroke-width:0.3985;stroke-linecap:butt;stroke-linejoin:miter;stroke-miterlimit:10;stroke-dasharray:none;stroke-opacity:1"
                 d="m -79.83649,-13.5757 h -6.20315 c -2.20095,0 -3.98511,-1.78416 -3.98511,-3.9851 v -6.20316 c 0,-2.20094 1.78416,-3.98511 3.98511,-3.98511 h 6.20315 c 2.20095,0 3.98511,1.78417 3.98511,3.98511 v 6.20316 c 0,2.20094 -1.78416,3.9851 -3.98511,3.9851 z" /></g><g
               transform="translate(-82.937,-20.663)"
               id="g124"><g
                 id="g126" /><g
                 transform="translate(82.937,20.663)"
                 id="g128" /></g></g><g
             id="g130"><g
               id="g132"><path
                 id="path134"
                 style="fill:#fffbb3;fill-opacity:0.5;fill-rule:nonzero;stroke:none"
                 d="m -76.31667,-10.05588 h -13.24279 c -2.20094,0 -3.98511,-1.78416 -3.98511,-3.98511 v -13.24279 c 0,-2.20095 1.78417,-3.98511 3.98511,-3.98511 h 13.24279 c 2.20095,0 3.98511,1.78416 3.98511,3.98511 v 13.24279 c 0,2.20095 -1.78416,3.98511 -3.98511,3.98511 z" /></g><g
               transform="translate(-90.223,-20.663)"
               id="g136"><g
                 transform="translate(7.286)"
                 id="g138"><g
                   transform="translate(-7.286)"
                   id="g140" /></g><g
                 transform="translate(90.223,20.663)"
                 id="g142" /></g></g><g
             id="g144"><g
               id="g146"><path
                 id="path148"
                 style="fill:none;stroke:#000000;stroke-width:0.79701;stroke-linecap:butt;stroke-linejoin:miter;stroke-miterlimit:10;stroke-dasharray:0.79701, 1.99255;stroke-dashoffset:0;stroke-opacity:1"
                 d="m -121.22388,-34.98798 h 52.61139 v 28.65115 h -52.61139 z" /></g><g
               transform="translate(-117.902,-20.663)"
               id="g150"><g
                 transform="translate(22.985)"
                 id="g152"><g
                   transform="translate(-22.985)"
                   id="g154" /></g><g
                 transform="translate(117.902,20.663)"
                 id="g156" /></g></g><g
             id="g158"><g
               id="g160"><path
                 id="path162"
                 style="fill:#ecb3c6;fill-opacity:1;fill-rule:nonzero;stroke:#000000;stroke-width:0.3985;stroke-linecap:butt;stroke-linejoin:miter;stroke-miterlimit:10;stroke-dasharray:none;stroke-opacity:1"
                 d="m -103.7967,56.89284 h -6.20318 c -2.20094,0 -3.98511,-1.78417 -3.98511,-3.98511 v -6.20317 c 0,-2.20094 1.78417,-3.98511 3.98511,-3.98511 h 6.20318 c 2.20094,0 3.9851,1.78417 3.9851,3.98511 v 6.20317 c 0,2.20094 -1.78416,3.98511 -3.9851,3.98511 z" /></g><g
               transform="translate(-106.897,49.805)"
               id="g164"><g
                 id="g166" /><g
                 transform="translate(106.897,-49.805)"
                 id="g168" /></g></g><g
             id="g170"><g
               id="g172"><path
                 id="path174"
                 style="fill:#ecb3c6;fill-opacity:1;fill-rule:nonzero;stroke:#000000;stroke-width:0.3985;stroke-linecap:butt;stroke-linejoin:miter;stroke-miterlimit:10;stroke-dasharray:none;stroke-opacity:1"
                 d="M -89.22482,56.89284 H -95.428 c -2.20094,0 -3.9851,-1.78417 -3.9851,-3.98511 v -6.20317 c 0,-2.20094 1.78416,-3.98511 3.9851,-3.98511 h 6.20318 c 2.20094,0 3.9851,1.78417 3.9851,3.98511 v 6.20317 c 0,2.20094 -1.78416,3.98511 -3.9851,3.98511 z" /></g><g
               transform="translate(-92.325,49.805)"
               id="g176"><g
                 id="g178" /><g
                 transform="translate(92.325,-49.805)"
                 id="g180" /></g></g><g
             id="g182"><g
               id="g184"><path
                 id="path186"
                 style="fill:#ecb3c6;fill-opacity:1;fill-rule:nonzero;stroke:#000000;stroke-width:0.3985;stroke-linecap:butt;stroke-linejoin:miter;stroke-miterlimit:10;stroke-dasharray:none;stroke-opacity:1"
                 d="m -74.65294,56.89284 h -6.20317 c -2.20094,0 -3.98511,-1.78417 -3.98511,-3.98511 v -6.20317 c 0,-2.20094 1.78417,-3.98511 3.98511,-3.98511 h 6.20317 c 2.20094,0 3.98511,1.78417 3.98511,3.98511 v 6.20317 c 0,2.20094 -1.78417,3.98511 -3.98511,3.98511 z" /></g><g
               transform="translate(-77.753,49.805)"
               id="g188"><g
                 id="g190" /><g
                 transform="translate(77.753,-49.805)"
                 id="g192" /></g></g><g
             id="g194"><g
               id="g196"><path
                 id="path198"
                 style="fill:#ffb3b3;fill-opacity:0.5;fill-rule:nonzero;stroke:none"
                 d="m -71.13312,60.41266 h -42.38658 c -2.20094,0 -3.9851,-1.78416 -3.9851,-3.98511 V 43.18474 c 0,-2.20094 1.78416,-3.98511 3.9851,-3.98511 h 42.38658 c 2.20095,0 3.98511,1.78417 3.98511,3.98511 v 13.24281 c 0,2.20095 -1.78416,3.98511 -3.98511,3.98511 z" /></g><g
               transform="translate(-114.183,49.805)"
               id="g200"><g
                 transform="translate(21.858)"
                 id="g202"><g
                   transform="translate(-21.858)"
                   id="g204" /></g><g
                 transform="translate(114.183,-49.805)"
                 id="g206" /></g></g><g
             id="g208"><g
               id="g210"><path
                 id="path212"
                 style="fill:#ecb3c6;fill-opacity:1;fill-rule:nonzero;stroke:#000000;stroke-width:0.3985;stroke-linecap:butt;stroke-linejoin:miter;stroke-miterlimit:10;stroke-dasharray:none;stroke-opacity:1"
                 d="m -103.7967,30.9824 h -6.20318 c -2.20094,0 -3.98511,-1.78416 -3.98511,-3.9851 v -6.20317 c 0,-2.20094 1.78417,-3.98511 3.98511,-3.98511 h 6.20318 c 2.20094,0 3.9851,1.78417 3.9851,3.98511 v 6.20317 c 0,2.20094 -1.78416,3.9851 -3.9851,3.9851 z" /></g><g
               transform="translate(-106.897,23.895)"
               id="g214"><g
                 id="g216" /><g
                 transform="translate(106.897,-23.895)"
                 id="g218" /></g></g><g
             id="g220"><g
               id="g222"><path
                 id="path224"
                 style="fill:#ecb3c6;fill-opacity:1;fill-rule:nonzero;stroke:#000000;stroke-width:0.3985;stroke-linecap:butt;stroke-linejoin:miter;stroke-miterlimit:10;stroke-dasharray:none;stroke-opacity:1"
                 d="M -89.22482,30.9824 H -95.428 c -2.20094,0 -3.9851,-1.78416 -3.9851,-3.9851 v -6.20317 c 0,-2.20094 1.78416,-3.98511 3.9851,-3.98511 h 6.20318 c 2.20094,0 3.9851,1.78417 3.9851,3.98511 v 6.20317 c 0,2.20094 -1.78416,3.9851 -3.9851,3.9851 z" /></g><g
               transform="translate(-92.325,23.895)"
               id="g226"><g
                 id="g228" /><g
                 transform="translate(92.325,-23.895)"
                 id="g230" /></g></g><g
             id="g232"><g
               id="g234"><path
                 id="path236"
                 style="fill:#ffd9b3;fill-opacity:0.5;fill-rule:nonzero;stroke:none"
                 d="m -85.705,34.50221 h -27.8147 c -2.20094,0 -3.9851,-1.78416 -3.9851,-3.98511 V 17.2743 c 0,-2.20094 1.78416,-3.9851 3.9851,-3.9851 h 27.8147 c 2.20094,0 3.9851,1.78416 3.9851,3.9851 v 13.2428 c 0,2.20095 -1.78416,3.98511 -3.9851,3.98511 z" /></g><g
               transform="translate(-114.183,23.895)"
               id="g238"><g
                 transform="translate(14.572)"
                 id="g240"><g
                   transform="translate(-14.572)"
                   id="g242" /></g><g
                 transform="translate(114.183,-23.895)"
                 id="g244" /></g></g><g
             id="g246"><g
               id="g248"><path
                 id="path250"
                 style="fill:#ecb3c6;fill-opacity:1;fill-rule:nonzero;stroke:#000000;stroke-width:0.3985;stroke-linecap:butt;stroke-linejoin:miter;stroke-miterlimit:10;stroke-dasharray:none;stroke-opacity:1"
                 d="m -65.26459,30.9824 h -6.20317 c -2.20094,0 -3.98511,-1.78416 -3.98511,-3.9851 v -6.20317 c 0,-2.20094 1.78417,-3.98511 3.98511,-3.98511 h 6.20317 c 2.20095,0 3.98511,1.78417 3.98511,3.98511 v 6.20317 c 0,2.20094 -1.78416,3.9851 -3.98511,3.9851 z" /></g><g
               transform="translate(-68.365,23.895)"
               id="g252"><g
                 id="g254" /><g
                 transform="translate(68.365,-23.895)"
                 id="g256" /></g></g><g
             id="g258"><g
               id="g260"><path
                 id="path262"
                 style="fill:#fffbb3;fill-opacity:0.5;fill-rule:nonzero;stroke:none"
                 d="m -61.74477,34.50221 h -13.24281 c -2.20094,0 -3.98511,-1.78416 -3.98511,-3.98511 V 17.2743 c 0,-2.20094 1.78417,-3.9851 3.98511,-3.9851 h 13.24281 c 2.20093,0 3.98511,1.78416 3.98511,3.9851 v 13.2428 c 0,2.20095 -1.78418,3.98511 -3.98511,3.98511 z" /></g><g
               transform="translate(-75.651,23.895)"
               id="g264"><g
                 transform="translate(7.286)"
                 id="g266"><g
                   transform="translate(-7.286)"
                   id="g268" /></g><g
                 transform="translate(75.651,-23.895)"
                 id="g270" /></g></g><g
             id="g272"><g
               id="g274"><path
                 id="path276"
                 style="fill:none;stroke:#000000;stroke-width:0.79701;stroke-linecap:butt;stroke-linejoin:miter;stroke-miterlimit:10;stroke-dasharray:0.79701, 1.99255;stroke-dashoffset:0;stroke-opacity:1"
                 d="m -121.22388,9.57013 h 67.18329 v 54.5616 h -67.18329 z" /></g><g
               transform="translate(-117.902,36.85)"
               id="g278"><g
                 transform="translate(30.271)"
                 id="g280"><g
                   transform="translate(-30.271)"
                   id="g282" /></g><g
                 transform="translate(117.902,-36.85)"
                 id="g284" /></g></g><g
             id="g286"><g
               id="g288"><path
                 id="path290"
                 style="fill:#ecb3c6;fill-opacity:1;fill-rule:nonzero;stroke:#000000;stroke-width:0.3985;stroke-linecap:butt;stroke-linejoin:miter;stroke-miterlimit:10;stroke-dasharray:none;stroke-opacity:1"
                 d="m 3.10158,28.9445 h -6.20316 c -2.20094,0 -3.98511,-1.78416 -3.98511,-3.9851 v -6.20317 c 0,-2.20095 1.78417,-3.98511 3.98511,-3.98511 h 6.20316 c 2.20094,0 3.98511,1.78416 3.98511,3.98511 v 6.20317 c 0,2.20094 -1.78417,3.9851 -3.98511,3.9851 z" /></g><g
               transform="translate(0,21.857)"
               id="g292"><g
                 id="g294" /><g
                 transform="translate(0,-21.857)"
                 id="g296" /></g></g><g
             id="g298"><g
               id="g300"><path
                 id="path302"
                 style="fill:#ecb3c6;fill-opacity:1;fill-rule:nonzero;stroke:#000000;stroke-width:0.3985;stroke-linecap:butt;stroke-linejoin:miter;stroke-miterlimit:10;stroke-dasharray:none;stroke-opacity:1"
                 d="m 3.10158,14.3726 h -6.20316 c -2.20094,0 -3.98511,-1.78416 -3.98511,-3.9851 V 4.18434 c 0,-2.20094 1.78417,-3.98511 3.98511,-3.98511 h 6.20316 c 2.20094,0 3.98511,1.78417 3.98511,3.98511 v 6.20316 c 0,2.20094 -1.78417,3.9851 -3.98511,3.9851 z" /></g><g
               transform="translate(0,7.285)"
               id="g304"><g
                 id="g306" /><g
                 transform="translate(0,-7.285)"
                 id="g308" /></g></g><g
             id="g310"><g
               id="g312"><path
                 id="path314"
                 style="fill:#b3e6fa;fill-opacity:0.5;fill-rule:nonzero;stroke:none"
                 d="M 6.6214,32.46432 H -6.6214 c -2.20094,0 -3.9851,-1.78416 -3.9851,-3.9851 V 0.66452 c 0,-2.20092 1.78416,-3.98509 3.9851,-3.98509 H 6.6214 c 2.20094,0 3.9851,1.78417 3.9851,3.98509 v 27.8147 c 0,2.20094 -1.78416,3.9851 -3.9851,3.9851 z" /></g><g
               transform="translate(-7.286,14.571)"
               id="g316"><g
                 transform="translate(7.286)"
                 id="g318"><g
                   transform="translate(-7.286)"
                   id="g320" /></g><g
                 transform="translate(7.286,-14.571)"
                 id="g322" /></g></g><g
             id="g324"><g
               id="g326"><path
                 id="path328"
                 style="fill:#ecb3c6;fill-opacity:1;fill-rule:nonzero;stroke:#000000;stroke-width:0.3985;stroke-linecap:butt;stroke-linejoin:miter;stroke-miterlimit:10;stroke-dasharray:none;stroke-opacity:1"
                 d="m 27.06181,21.65855 h -6.20317 c -2.20094,0 -3.9851,-1.78416 -3.9851,-3.9851 v -6.20317 c 0,-2.20095 1.78416,-3.98511 3.9851,-3.98511 h 6.20317 c 2.20095,0 3.98511,1.78416 3.98511,3.98511 v 6.20317 c 0,2.20094 -1.78416,3.9851 -3.98511,3.9851 z" /></g><g
               transform="translate(23.96,14.571)"
               id="g330"><g
                 id="g332" /><g
                 transform="translate(-23.96,-14.571)"
                 id="g334" /></g></g><g
             id="g336"><g
               id="g338"><path
                 id="path340"
                 style="fill:#d9b3d9;fill-opacity:0.5;fill-rule:nonzero;stroke:none"
                 d="M 30.58163,25.17838 H 17.33882 c -2.20094,0 -3.98511,-1.78417 -3.98511,-3.98511 V 7.95045 c 0,-2.20094 1.78417,-3.9851 3.98511,-3.9851 h 13.24281 c 2.20095,0 3.98511,1.78416 3.98511,3.9851 v 13.24282 c 0,2.20094 -1.78416,3.98511 -3.98511,3.98511 z" /></g><g
               transform="translate(16.674,14.571)"
               id="g342"><g
                 transform="translate(7.286)"
                 id="g344"><g
                   transform="translate(-7.286)"
                   id="g346" /></g><g
                 transform="translate(-16.674,-14.571)"
                 id="g348" /></g></g><g
             id="g350"><g
               id="g352"><path
                 id="path354"
                 style="fill:none;stroke:#000000;stroke-width:0.79701;stroke-linecap:butt;stroke-linejoin:miter;stroke-miterlimit:10;stroke-dasharray:0.79701, 1.99255;stroke-dashoffset:0;stroke-opacity:1"
                 d="M -14.32558,-7.03964 H 38.28581 V 36.18341 H -14.32558 Z" /></g><g
               transform="translate(-11.005,14.571)"
               id="g356"><g
                 transform="translate(22.985)"
                 id="g358"><g
                   transform="translate(-22.985)"
                   id="g360" /></g><g
                 transform="translate(11.005,-14.571)"
                 id="g362" /></g></g><g
             id="g364"><g
               id="g366"><path
                 id="path368"
                 style="fill:#ecb3c6;fill-opacity:1;fill-rule:nonzero;stroke:#000000;stroke-width:0.3985;stroke-linecap:butt;stroke-linejoin:miter;stroke-miterlimit:10;stroke-dasharray:none;stroke-opacity:1"
                 d="m 81.65306,43.1179 h -6.20317 c -2.20094,0 -3.98511,-1.78416 -3.98511,-3.9851 v -6.20316 c 0,-2.20094 1.78417,-3.98511 3.98511,-3.98511 h 6.20317 c 2.20094,0 3.98511,1.78417 3.98511,3.98511 v 6.20316 c 0,2.20094 -1.78417,3.9851 -3.98511,3.9851 z" /></g><g
               transform="translate(78.55,36.03)"
               id="g370"><g
                 id="g372" /><g
                 transform="translate(-78.55,-36.03)"
                 id="g374" /></g></g><g
             id="g376"><g
               id="g378"><path
                 id="path380"
                 style="fill:#b3b3ff;fill-opacity:0.5;fill-rule:nonzero;stroke:none"
                 d="M 85.17288,46.63773 H 71.93007 c -2.20094,0 -3.98511,-1.78417 -3.98511,-3.98511 v -13.2428 c 0,-2.20094 1.78417,-3.98511 3.98511,-3.98511 h 13.24281 c 2.20095,0 3.98511,1.78417 3.98511,3.98511 v 13.2428 c 0,2.20094 -1.78416,3.98511 -3.98511,3.98511 z" /></g><g
               transform="translate(71.265,36.03)"
               id="g382"><g
                 transform="translate(7.285)"
                 id="g384"><g
                   transform="translate(-7.285)"
                   id="g386" /></g><g
                 transform="translate(-71.265,-36.03)"
                 id="g388" /></g></g><g
             id="g390"><g
               id="g392"><path
                 id="path394"
                 style="fill:#ecb3c6;fill-opacity:1;fill-rule:nonzero;stroke:#000000;stroke-width:0.3985;stroke-linecap:butt;stroke-linejoin:miter;stroke-miterlimit:10;stroke-dasharray:none;stroke-opacity:1"
                 d="m 105.6133,43.1179 h -6.20317 c -2.20095,0 -3.98511,-1.78416 -3.98511,-3.9851 v -6.20316 c 0,-2.20094 1.78416,-3.98511 3.98511,-3.98511 h 6.20317 c 2.20094,0 3.9851,1.78417 3.9851,3.98511 v 6.20316 c 0,2.20094 -1.78416,3.9851 -3.9851,3.9851 z" /></g><g
               transform="translate(102.51,36.03)"
               id="g396"><g
                 id="g398" /><g
                 transform="translate(-102.51,-36.03)"
                 id="g400" /></g></g><g
             id="g402"><g
               id="g404"><path
                 id="path406"
                 style="fill:#ecb3c6;fill-opacity:1;fill-rule:nonzero;stroke:#000000;stroke-width:0.3985;stroke-linecap:butt;stroke-linejoin:miter;stroke-miterlimit:10;stroke-dasharray:none;stroke-opacity:1"
                 d="m 120.18518,43.1179 h -6.20317 c -2.20094,0 -3.98511,-1.78416 -3.98511,-3.9851 v -6.20316 c 0,-2.20094 1.78417,-3.98511 3.98511,-3.98511 h 6.20317 c 2.20094,0 3.98511,1.78417 3.98511,3.98511 v 6.20316 c 0,2.20094 -1.78417,3.9851 -3.98511,3.9851 z" /></g><g
               transform="translate(117.082,36.03)"
               id="g408"><g
                 id="g410" /><g
                 transform="translate(-117.082,-36.03)"
                 id="g412" /></g></g><g
             id="g414"><g
               id="g416"><path
                 id="path418"
                 style="fill:#ffb3b3;fill-opacity:0.5;fill-rule:nonzero;stroke:none"
                 d="M 123.705,46.63773 H 95.8903 c -2.20094,0 -3.9851,-1.78417 -3.9851,-3.98511 v -13.2428 c 0,-2.20094 1.78416,-3.98511 3.9851,-3.98511 h 27.8147 c 2.20094,0 3.98511,1.78417 3.98511,3.98511 v 13.2428 c 0,2.20094 -1.78417,3.98511 -3.98511,3.98511 z" /></g><g
               transform="translate(95.225,36.03)"
               id="g420"><g
                 transform="translate(14.571)"
                 id="g422"><g
                   transform="translate(-14.571)"
                   id="g424" /></g><g
                 transform="translate(-95.225,-36.03)"
                 id="g426" /></g></g><g
             id="g428"><g
               id="g430"><path
                 id="path432"
                 style="fill:none;stroke:#000000;stroke-width:0.79701;stroke-linecap:butt;stroke-linejoin:miter;stroke-miterlimit:10;stroke-dasharray:0.79701, 1.99255;stroke-dashoffset:0;stroke-opacity:1"
                 d="m 64.22589,21.70564 h 67.18329 V 50.35679 H 64.22589 Z" /></g><g
               transform="translate(67.546,36.03)"
               id="g434"><g
                 transform="translate(30.27)"
                 id="g436"><g
                   transform="translate(-30.27)"
                   id="g438" /></g><g
                 transform="translate(-67.546,-36.03)"
                 id="g440" /></g></g><g
             id="g442"><g
               id="g444"><path
                 id="path446"
                 style="fill:#ecb3c6;fill-opacity:1;fill-rule:nonzero;stroke:#000000;stroke-width:0.3985;stroke-linecap:butt;stroke-linejoin:miter;stroke-miterlimit:10;stroke-dasharray:none;stroke-opacity:1"
                 d="M 95.82646,-21.26015 H 89.6233 c -2.20094,0 -3.9851,-1.78416 -3.9851,-3.9851 v -6.20316 c 0,-2.20094 1.78416,-3.98511 3.9851,-3.98511 h 6.20316 c 2.20094,0 3.98511,1.78417 3.98511,3.98511 v 6.20316 c 0,2.20094 -1.78417,3.9851 -3.98511,3.9851 z" /></g><g
               transform="translate(92.724,-28.347)"
               id="g448"><g
                 id="g450" /><g
                 transform="translate(-92.724,28.347)"
                 id="g452" /></g></g><g
             id="g454"><g
               id="g456"><path
                 id="path458"
                 style="fill:#ecb3c6;fill-opacity:1;fill-rule:nonzero;stroke:#000000;stroke-width:0.3985;stroke-linecap:butt;stroke-linejoin:miter;stroke-miterlimit:10;stroke-dasharray:none;stroke-opacity:1"
                 d="m 110.39836,-21.26015 h -6.20317 c -2.20094,0 -3.98511,-1.78416 -3.98511,-3.9851 v -6.20316 c 0,-2.20094 1.78417,-3.98511 3.98511,-3.98511 h 6.20317 c 2.20094,0 3.98511,1.78417 3.98511,3.98511 v 6.20316 c 0,2.20094 -1.78417,3.9851 -3.98511,3.9851 z" /></g><g
               transform="translate(107.295,-28.347)"
               id="g460"><g
                 id="g462" /><g
                 transform="translate(-107.295,28.347)"
                 id="g464" /></g></g><g
             id="g466"><g
               id="g468"><path
                 id="path470"
                 style="fill:#b3ffb3;fill-opacity:0.5;fill-rule:nonzero;stroke:none"
                 d="M 113.91818,-17.74033 H 86.10349 c -2.20095,0 -3.98511,-1.78416 -3.98511,-3.9851 v -13.2428 c 0,-2.20094 1.78416,-3.98511 3.98511,-3.98511 h 27.81469 c 2.20095,0 3.98511,1.78417 3.98511,3.98511 v 13.2428 c 0,2.20094 -1.78416,3.9851 -3.98511,3.9851 z" /></g><g
               transform="translate(85.438,-28.347)"
               id="g472"><g
                 transform="translate(14.572)"
                 id="g474"><g
                   transform="translate(-14.572)"
                   id="g476" /></g><g
                 transform="translate(-85.438,28.347)"
                 id="g478" /></g></g><g
             id="g480"><g
               id="g482"><path
                 id="path484"
                 style="fill:none;stroke:#000000;stroke-width:0.79701;stroke-linecap:butt;stroke-linejoin:miter;stroke-miterlimit:10;stroke-dasharray:0.79701, 1.99255;stroke-dashoffset:0;stroke-opacity:1"
                 d="m 78.3993,-42.67242 h 43.22305 v 28.65115 H 78.3993 Z" /></g><g
               transform="translate(81.719,-28.347)"
               id="g486"><g
                 transform="translate(18.291)"
                 id="g488"><g
                   transform="translate(-18.291)"
                   id="g490" /></g><g
                 transform="translate(-81.719,28.347)"
                 id="g492" /></g></g><g
             id="g494"><g
               id="g496"><path
                 id="path498"
                 style="fill:#b3e6fa;fill-opacity:1;fill-rule:nonzero;stroke:none"
                 d="m 137.749,-71.66405 h -275.498 c -2.20094,0 -3.9851,-1.78416 -3.9851,-3.9851 v -20.37659 c 0,-2.20094 1.78416,-3.98511 3.9851,-3.98511 h 275.498 c 2.20094,0 3.9851,1.78417 3.9851,3.98511 v 20.37659 c 0,2.20094 -1.78416,3.9851 -3.9851,3.9851 z" /></g><g
               transform="translate(-30.054,-89.296)"
               id="g500"><g
                 id="g502"><g
                   transform="translate(-111.678,-10.714)"
                   id="g504"><text
                     id="text508"
                     style="font-variant:normal;font-weight:normal;font-size:9.96259975px;font-family:CMR10;-inkscape-font-specification:CMR10;writing-mode:lr-tb;fill:#000000;fill-opacity:1;fill-rule:nonzero;stroke:none"
                     transform="matrix(1,0,0,-1,111.678,10.714)"><tspan
                       id="tspan506"
                       y="0"
                       x="0 7.4719501 12.45325 16.3825 23.574501 32.707214 37.688515 41.846905 47.382126 50.149734 55.684956">HostMachine</tspan></text>
<g
                     transform="translate(111.678,10.714)"
                     id="g510" /></g></g><g
                 transform="translate(30.054,89.296)"
                 id="g512" /></g></g></g></g></g></g></svg>