<?xml version="1.0" encoding="UTF-8" standalone="no"?>
<svg
   xmlns:dc="http://purl.org/dc/elements/1.1/"
   xmlns:cc="http://creativecommons.org/ns#"
   xmlns:rdf="http://www.w3.org/1999/02/22-rdf-syntax-ns#"
   xmlns:svg="http://www.w3.org/2000/svg"
   xmlns="http://www.w3.org/2000/svg"
   viewBox="0 0 369.90933 265.71466"
   height="265.71466"
   width="369.90933"
   xml:space="preserve"
   id="svg2"
   version="1.1"><metadata
     id="metadata8"><rdf:RDF><cc:Work
         rdf:about=""><dc:format>image/svg+xml</dc:format><dc:type
           rdf:resource="http://purl.org/dc/dcmitype/StillImage" /></cc:Work></rdf:RDF></metadata><defs
     id="defs6" /><g
     transform="matrix(1.3333333,0,0,-1.3333333,0,265.71467)"
     id="g10"><g
       transform="translate(70.866,71.663)"
       id="g12"><g
         id="g14"><g
           id="g16" /><g
           id="g18"><g
             id="g20"><g
               id="g22"><g
                 id="g24" /></g></g><g
             id="g26"><g
               id="g28"><g
                 id="g30" /></g></g><g
             id="g32"><g
               id="g34"><g
                 id="g36" /></g></g><g
             id="g38"><g
               id="g40"><g
                 id="g42" /></g></g><g
             id="g44"><g
               id="g46"><g
                 id="g48" /></g></g><g
             id="g50"><g
               id="g52"><g
                 id="g54" /></g></g><g
             id="g56"><g
               id="g58"><g
                 id="g60" /></g></g><g
             id="g62"><g
               id="g64"><g
                 id="g66" /></g></g><g
             id="g68"><g
               id="g70"><g
                 id="g72" /></g></g><g
             id="g74"><g
               id="g76"><g
                 id="g78" /></g></g><g
             id="g80"><g
               id="g82"><path
                 id="path84"
                 style="fill:#808080;fill-opacity:1;fill-rule:nonzero;stroke:none"
                 d="M 66.88193,42.52022 H -66.88193 c -2.20094,0 -3.9851,-1.78417 -3.9851,-3.98511 v -77.07022 c 0,-2.20094 1.78416,-3.98511 3.9851,-3.98511 H 66.88193 c 2.20094,0 3.9851,1.78417 3.9851,3.98511 v 77.07022 c 0,2.20094 -1.78416,3.98511 -3.9851,3.98511 z" /></g><g
               transform="translate(-3.52)"
               id="g86"><g
                 transform="translate(3.52)"
                 id="g88"><g
                   transform="translate(-3.52)"
                   id="g90" /></g><g
                 transform="translate(3.52)"
                 id="g92" /></g></g><g
             id="g94"><g
               transform="translate(-22.139,-32.097)"
               id="g96"><g
                 id="g98"><g
                   transform="translate(-48.727,-39.566)"
                   id="g100"><text
                     id="text104"
                     style="font-variant:normal;font-weight:normal;font-size:9.96259975px;font-family:CMR10;-inkscape-font-specification:CMR10;writing-mode:lr-tb;fill:#000000;fill-opacity:1;fill-rule:nonzero;stroke:none"
                     transform="matrix(1,0,0,-1,48.727,39.566)"><tspan
                       id="tspan102"
                       y="0"
                       x="0 7.7489104 13.563084 17.990463 23.525684 29.060904 34.596127 37.363735 40.408306">OpenShift</tspan></text>
<g
                     transform="translate(48.727,39.566)"
                     id="g106" /></g></g><g
                 transform="translate(22.139,32.097)"
                 id="g108" /></g></g><g
             id="g110"><g
               id="g112"><g
                 id="g114" /></g></g><g
             id="g116"><g
               id="g118"><g
                 id="g120" /></g></g><g
             id="g122"><g
               id="g124"><g
                 id="g126" /></g></g><g
             id="g128"><g
               id="g130"><g
                 id="g132" /></g></g><g
             id="g134"><g
               id="g136"><g
                 id="g138" /></g></g><g
             id="g140"><g
               id="g142"><g
                 id="g144" /></g></g><g
             id="g146"><g
               id="g148"><g
                 id="g150" /></g></g><g
             id="g152"><g
               id="g154"><g
                 id="g156" /></g></g><g
             id="g158"><g
               id="g160"><path
                 id="path162"
                 style="fill:#b3b3ff;fill-opacity:1;fill-rule:nonzero;stroke:none"
                 d="M 52.70853,14.17339 H -52.70853 c -2.20094,0 -3.9851,-1.78417 -3.9851,-3.98511 v -20.37656 c 0,-2.20094 1.78416,-3.98511 3.9851,-3.98511 H 52.70853 c 2.20094,0 3.9851,1.78417 3.9851,3.98511 v 20.37656 c 0,2.20094 -1.78416,3.98511 -3.9851,3.98511 z" /></g><g
               transform="translate(-12.315,-2.491)"
               id="g164"><g
                 id="g166"><g
                   transform="translate(-58.551,-69.172)"
                   id="g168"><text
                     id="text172"
                     style="font-variant:normal;font-weight:normal;font-size:9.96259975px;font-family:CMR10;-inkscape-font-specification:CMR10;writing-mode:lr-tb;fill:#000000;fill-opacity:1;fill-rule:nonzero;stroke:none"
                     transform="matrix(1,0,0,-1,58.551,69.172)"><tspan
                       id="tspan170"
                       y="0"
                       x="0 9.1327152 14.114016 19.370283">Moby</tspan></text>
<g
                     transform="translate(58.551,69.172)"
                     id="g174" /></g></g><g
                 transform="translate(12.315,2.491)"
                 id="g176" /></g></g><g
             id="g178"><g
               transform="translate(-60.611,20.926)"
               id="g180"><g
                 id="g182" /><g
                 transform="translate(60.611,-20.926)"
                 id="g184" /></g></g><g
             id="g186"><g
               id="g188"><path
                 id="path190"
                 style="fill:#ecb3c6;fill-opacity:1;fill-rule:nonzero;stroke:#000000;stroke-width:0.3985;stroke-linecap:butt;stroke-linejoin:miter;stroke-miterlimit:10;stroke-dasharray:none;stroke-opacity:1"
                 d="m -46.7046,28.01326 h -6.20318 c -2.20094,0 -3.9851,-1.78416 -3.9851,-3.98511 v -6.20317 c 0,-2.20094 1.78416,-3.98511 3.9851,-3.98511 h 6.20318 c 2.20094,0 3.9851,1.78417 3.9851,3.98511 v 6.20317 c 0,2.20095 -1.78416,3.98511 -3.9851,3.98511 z" /></g><g
               transform="translate(-49.805,20.926)"
               id="g192"><g
                 id="g194" /><g
                 transform="translate(49.805,-20.926)"
                 id="g196" /></g></g><g
             id="g198"><g
               id="g200"><path
                 id="path202"
                 style="fill:#ecb3c6;fill-opacity:1;fill-rule:nonzero;stroke:#000000;stroke-width:0.3985;stroke-linecap:butt;stroke-linejoin:miter;stroke-miterlimit:10;stroke-dasharray:none;stroke-opacity:1"
                 d="m -32.13272,28.01326 h -6.20317 c -2.20094,0 -3.98511,-1.78416 -3.98511,-3.98511 v -6.20317 c 0,-2.20094 1.78417,-3.98511 3.98511,-3.98511 h 6.20317 c 2.20094,0 3.98511,1.78417 3.98511,3.98511 v 6.20317 c 0,2.20095 -1.78417,3.98511 -3.98511,3.98511 z" /></g><g
               transform="translate(-35.234,20.926)"
               id="g204"><g
                 id="g206" /><g
                 transform="translate(35.234,-20.926)"
                 id="g208" /></g></g><g
             id="g210"><g
               id="g212"><path
                 id="path214"
                 style="fill:#ecb3c6;fill-opacity:1;fill-rule:nonzero;stroke:#000000;stroke-width:0.3985;stroke-linecap:butt;stroke-linejoin:miter;stroke-miterlimit:10;stroke-dasharray:none;stroke-opacity:1"
                 d="m -17.56084,28.01326 h -6.20315 c -2.20095,0 -3.98511,-1.78416 -3.98511,-3.98511 v -6.20317 c 0,-2.20094 1.78416,-3.98511 3.98511,-3.98511 h 6.20315 c 2.20094,0 3.98511,1.78417 3.98511,3.98511 v 6.20317 c 0,2.20095 -1.78417,3.98511 -3.98511,3.98511 z" /></g><g
               transform="translate(-20.662,20.926)"
               id="g216"><g
                 id="g218" /><g
                 transform="translate(20.662,-20.926)"
                 id="g220" /></g></g><g
             id="g222"><g
               id="g224"><path
                 id="path226"
                 style="fill:none;stroke:#000000;stroke-width:0.79701;stroke-linecap:butt;stroke-linejoin:miter;stroke-miterlimit:10;stroke-dasharray:0.79701, 1.99255;stroke-dashoffset:0;stroke-opacity:1"
                 d="m -2.78969,28.01326 h -6.20317 c -2.20094,0 -3.98511,-1.78416 -3.98511,-3.98511 v -6.20317 c 0,-2.20094 1.78417,-3.98511 3.98511,-3.98511 h 6.20317 c 2.20094,0 3.98509,1.78417 3.98509,3.98511 v 6.20317 c 0,2.20095 -1.78415,3.98511 -3.98509,3.98511 z" /></g><g
               transform="translate(-5.891,20.926)"
               id="g228"><g
                 id="g230" /><g
                 transform="translate(5.891,-20.926)"
                 id="g232" /></g></g><g
             id="g234"><g
               id="g236"><path
                 id="path238"
                 style="fill:none;stroke:#000000;stroke-width:0.79701;stroke-linecap:butt;stroke-linejoin:miter;stroke-miterlimit:10;stroke-dasharray:0.79701, 1.99255;stroke-dashoffset:0;stroke-opacity:1"
                 d="M 12.18068,28.01326 H 5.97752 c -2.20094,0 -3.9851,-1.78416 -3.9851,-3.98511 v -6.20317 c 0,-2.20094 1.78416,-3.98511 3.9851,-3.98511 h 6.20316 c 2.20094,0 3.98511,1.78417 3.98511,3.98511 v 6.20317 c 0,2.20095 -1.78417,3.98511 -3.98511,3.98511 z" /></g><g
               transform="translate(9.079,20.926)"
               id="g240"><g
                 id="g242" /><g
                 transform="translate(-9.079,-20.926)"
                 id="g244" /></g></g><g
             id="g246"><g
               id="g248"><path
                 id="path250"
                 style="fill:none;stroke:#000000;stroke-width:0.79701;stroke-linecap:butt;stroke-linejoin:miter;stroke-miterlimit:10;stroke-dasharray:0.79701, 1.99255;stroke-dashoffset:0;stroke-opacity:1"
                 d="M 27.15108,28.01326 H 20.9479 c -2.20094,0 -3.9851,-1.78416 -3.9851,-3.98511 v -6.20317 c 0,-2.20094 1.78416,-3.98511 3.9851,-3.98511 h 6.20318 c 2.20094,0 3.9851,1.78417 3.9851,3.98511 v 6.20317 c 0,2.20095 -1.78416,3.98511 -3.9851,3.98511 z" /></g><g
               transform="translate(24.049,20.926)"
               id="g252"><g
                 id="g254" /><g
                 transform="translate(-24.049,-20.926)"
                 id="g256" /></g></g><g
             id="g258"><g
               id="g260"><path
                 id="path262"
                 style="fill:none;stroke:#000000;stroke-width:0.79701;stroke-linecap:butt;stroke-linejoin:miter;stroke-miterlimit:10;stroke-dasharray:0.79701, 1.99255;stroke-dashoffset:0;stroke-opacity:1"
                 d="M 42.12146,28.01326 H 35.9183 c -2.20094,0 -3.9851,-1.78416 -3.9851,-3.98511 v -6.20317 c 0,-2.20094 1.78416,-3.98511 3.9851,-3.98511 h 6.20316 c 2.20094,0 3.98511,1.78417 3.98511,3.98511 v 6.20317 c 0,2.20095 -1.78417,3.98511 -3.98511,3.98511 z" /></g><g
               transform="translate(39.019,20.926)"
               id="g264"><g
                 id="g266" /><g
                 transform="translate(-39.019,-20.926)"
                 id="g268" /></g></g><g
             id="g270"><g
               id="g272"><path
                 id="path274"
                 style="fill:none;stroke:#000000;stroke-width:0.79701;stroke-linecap:butt;stroke-linejoin:miter;stroke-miterlimit:10;stroke-dasharray:0.79701, 1.99255;stroke-dashoffset:0;stroke-opacity:1"
                 d="m 57.09186,28.01326 h -6.20317 c -2.20095,0 -3.98511,-1.78416 -3.98511,-3.98511 v -6.20317 c 0,-2.20094 1.78416,-3.98511 3.98511,-3.98511 h 6.20317 c 2.20094,0 3.98511,1.78417 3.98511,3.98511 v 6.20317 c 0,2.20095 -1.78417,3.98511 -3.98511,3.98511 z" /></g><g
               transform="translate(53.99,20.926)"
               id="g276"><g
                 id="g278" /><g
                 transform="translate(-53.99,-20.926)"
                 id="g280" /></g></g><g
             id="g282"><g
               transform="translate(-23.426,32.265)"
               id="g284"><g
                 id="g286"><g
                   transform="translate(-47.44,-103.928)"
                   id="g288"><text
                     id="text292"
                     style="font-variant:normal;font-weight:normal;font-size:9.96259975px;font-family:CMR10;-inkscape-font-specification:CMR10;writing-mode:lr-tb;fill:#000000;fill-opacity:1;fill-rule:nonzero;stroke:none"
                     transform="matrix(1,0,0,-1,47.44,103.928)"><tspan
                       id="tspan290"
                       y="0"
                       x="0 7.1949897 12.17629 17.432558 21.307013 26.288313 29.055923 34.591145 39.018524 42.920872">Containers</tspan></text>
<g
                     transform="translate(47.44,103.928)"
                     id="g294" /></g></g><g
                 transform="translate(23.426,-32.265)"
                 id="g296" /></g></g><g
             id="g298"><path
               id="path300"
               style="fill:none;stroke:#000000;stroke-width:0.3985;stroke-linecap:butt;stroke-linejoin:miter;stroke-miterlimit:10;stroke-dasharray:none;stroke-opacity:1"
               d="M -26.9462,35.66905 H -49.80618 V 28.67079" /><g
               transform="rotate(-90,-10.567695,39.238485)"
               id="g302"><g
                 id="g304"><path
                   id="path306"
                   style="fill:none;stroke:#000000;stroke-width:0.31878999;stroke-linecap:round;stroke-linejoin:round;stroke-miterlimit:10;stroke-dasharray:none;stroke-opacity:1"
                   d="M -1.19551,1.59401 C -1.09587,0.99626 0,0.09961 0.29886,0 0,-0.09961 -1.09587,-0.99626 -1.19551,-1.59401" /></g></g></g><g
             id="g308"><path
               id="path310"
               style="fill:none;stroke:#000000;stroke-width:0.3985;stroke-linecap:butt;stroke-linejoin:miter;stroke-miterlimit:10;stroke-dasharray:none;stroke-opacity:1"
               d="M 26.9462,35.66905 H 53.99028 V 28.87004" /><g
               transform="rotate(-90,41.43016,-12.56012)"
               id="g312"><g
                 id="g314"><path
                   id="path316"
                   style="fill:none;stroke:#000000;stroke-width:0.31878999;stroke-linecap:round;stroke-linejoin:round;stroke-miterlimit:10;stroke-dasharray:none;stroke-opacity:1"
                   d="M -1.19551,1.59401 C -1.09587,0.99626 0,0.09961 0.29886,0 0,-0.09961 -1.09587,-0.99626 -1.19551,-1.59401" /></g></g></g><g
             id="g318"><g
               id="g320"><path
                 id="path322"
                 style="fill:#b3e6fa;fill-opacity:1;fill-rule:nonzero;stroke:none"
                 d="M 66.88193,-43.31723 H -66.88193 c -2.20094,0 -3.9851,-1.78417 -3.9851,-3.98511 v -20.37657 c 0,-2.20094 1.78416,-3.98511 3.9851,-3.98511 H 66.88193 c 2.20094,0 3.9851,1.78417 3.9851,3.98511 v 20.37657 c 0,2.20094 -1.78416,3.98511 -3.9851,3.98511 z" /></g><g
               transform="translate(-34.205,-60.949)"
               id="g324"><g
                 id="g326"><g
                   transform="translate(-36.661,-10.714)"
                   id="g328"><text
                     id="text332"
                     style="font-variant:normal;font-weight:normal;font-size:9.96259975px;font-family:CMR10;-inkscape-font-specification:CMR10;writing-mode:lr-tb;fill:#000000;fill-opacity:1;fill-rule:nonzero;stroke:none"
                     transform="matrix(1,0,0,-1,36.661,10.714)"><tspan
                       id="tspan330"
                       y="0"
                       x="0 7.4719501 12.45325 16.3825 23.574501 32.707214 37.688515 41.846905 47.382126 50.149734 55.684956 63.429882">HostMachine1</tspan></text>
<g
                     transform="translate(36.661,10.714)"
                     id="g334" /></g></g><g
                 transform="translate(34.205,60.949)"
                 id="g336" /></g></g><g
             id="g338"><g
               id="g340"><path
                 id="path342"
                 style="fill:#ecb3c6;fill-opacity:1;fill-rule:nonzero;stroke:#000000;stroke-width:0.3985;stroke-linecap:butt;stroke-linejoin:miter;stroke-miterlimit:10;stroke-dasharray:none;stroke-opacity:1"
                 d="m 123.77481,113.98499 h -6.20317 c -2.20094,0 -3.98511,-1.78417 -3.98511,-3.98511 v -6.20318 c 0,-2.20094 1.78417,-3.9851 3.98511,-3.9851 h 6.20317 c 2.20094,0 3.98511,1.78416 3.98511,3.9851 v 6.20318 c 0,2.20094 -1.78417,3.98511 -3.98511,3.98511 z" /></g><g
               transform="translate(120.672,106.897)"
               id="g344"><g
                 id="g346" /><g
                 transform="translate(-120.672,-106.897)"
                 id="g348" /></g></g><g
             id="g350"><g
               id="g352"><path
                 id="path354"
                 style="fill:#ecb3c6;fill-opacity:1;fill-rule:nonzero;stroke:#000000;stroke-width:0.3985;stroke-linecap:butt;stroke-linejoin:miter;stroke-miterlimit:10;stroke-dasharray:none;stroke-opacity:1"
                 d="m 138.3467,113.98499 h -6.20318 c -2.20094,0 -3.9851,-1.78417 -3.9851,-3.98511 v -6.20318 c 0,-2.20094 1.78416,-3.9851 3.9851,-3.9851 h 6.20318 c 2.20094,0 3.9851,1.78416 3.9851,3.9851 v 6.20318 c 0,2.20094 -1.78416,3.98511 -3.9851,3.98511 z" /></g><g
               transform="translate(135.243,106.897)"
               id="g356"><g
                 id="g358" /><g
                 transform="translate(-135.243,-106.897)"
                 id="g360" /></g></g><g
             id="g362"><g
               id="g364"><path
                 id="path366"
                 style="fill:#ffb3b3;fill-opacity:0.4;fill-rule:nonzero;stroke:none"
                 d="m 148.68518,106.8983 c 0,11.4468 -9.27922,20.72601 -20.72601,20.72601 -11.44681,0 -20.72602,-9.27921 -20.72602,-20.72601 0,-11.44681 9.27921,-20.72601 20.72602,-20.72601 11.44679,0 20.72601,9.2792 20.72601,20.72601 z" /></g><g
               transform="translate(113.386,106.897)"
               id="g368"><g
                 transform="translate(14.572)"
                 id="g370"><g
                   transform="translate(-14.572)"
                   id="g372" /></g><g
                 transform="translate(-113.386,-106.897)"
                 id="g374" /></g></g><g
             id="g376"><g
               transform="translate(152.602,104.406)"
               id="g378"><g
                 id="g380"><g
                   transform="translate(-223.468,-176.069)"
                   id="g382"><text
                     id="text386"
                     style="font-variant:normal;font-weight:normal;font-size:9.96259975px;font-family:CMR10;-inkscape-font-specification:CMR10;writing-mode:lr-tb;fill:#000000;fill-opacity:1;fill-rule:nonzero;stroke:none"
                     transform="matrix(1,0,0,-1,223.468,176.069)"><tspan
                       id="tspan384"
                       y="0"
                       x="0 7.4719501 13.007171 18.542391 21.310001 24.077612 28.504992 33.48629 37.360744 40.128357 45.109657">Application</tspan></text>
<g
                     transform="translate(223.468,176.069)"
                     id="g388" /></g></g><g
                 transform="translate(-152.602,-104.406)"
                 id="g390" /></g></g><g
             id="g392"><g
               id="g394"><path
                 id="path396"
                 style="fill:#ecb3c6;fill-opacity:1;fill-rule:nonzero;stroke:#000000;stroke-width:0.3985;stroke-linecap:butt;stroke-linejoin:miter;stroke-miterlimit:10;stroke-dasharray:none;stroke-opacity:1"
                 d="m 123.77481,56.89288 h -6.20317 c -2.20094,0 -3.98511,-1.78416 -3.98511,-3.9851 V 46.7046 c 0,-2.20094 1.78417,-3.9851 3.98511,-3.9851 h 6.20317 c 2.20094,0 3.98511,1.78416 3.98511,3.9851 v 6.20318 c 0,2.20094 -1.78417,3.9851 -3.98511,3.9851 z" /></g><g
               transform="translate(120.672,49.806)"
               id="g398"><g
                 id="g400" /><g
                 transform="translate(-120.672,-49.806)"
                 id="g402" /></g></g><g
             id="g404"><g
               id="g406"><path
                 id="path408"
                 style="fill:#ecb3c6;fill-opacity:1;fill-rule:nonzero;stroke:#000000;stroke-width:0.3985;stroke-linecap:butt;stroke-linejoin:miter;stroke-miterlimit:10;stroke-dasharray:none;stroke-opacity:1"
                 d="m 138.3467,56.89288 h -6.20318 c -2.20094,0 -3.9851,-1.78416 -3.9851,-3.9851 V 46.7046 c 0,-2.20094 1.78416,-3.9851 3.9851,-3.9851 h 6.20318 c 2.20094,0 3.9851,1.78416 3.9851,3.9851 v 6.20318 c 0,2.20094 -1.78416,3.9851 -3.9851,3.9851 z" /></g><g
               transform="translate(135.243,49.806)"
               id="g410"><g
                 id="g412" /><g
                 transform="translate(-135.243,-49.806)"
                 id="g414" /></g></g><g
             id="g416"><g
               id="g418"><path
                 id="path420"
                 style="fill:#ffbf80;fill-opacity:0.4;fill-rule:nonzero;stroke:none"
                 d="m 148.68518,49.80618 c 0,11.44681 -9.27922,20.72602 -20.72601,20.72602 -11.44681,0 -20.72602,-9.27921 -20.72602,-20.72602 0,-11.44679 9.27921,-20.72601 20.72602,-20.72601 11.44679,0 20.72601,9.27922 20.72601,20.72601 z" /></g><g
               transform="translate(113.386,49.806)"
               id="g422"><g
                 transform="translate(14.572)"
                 id="g424"><g
                   transform="translate(-14.572)"
                   id="g426" /></g><g
                 transform="translate(-113.386,-49.806)"
                 id="g428" /></g></g><g
             id="g430"><g
               transform="translate(152.602,46.346)"
               id="g432"><g
                 id="g434"><g
                   transform="translate(-223.468,-118.009)"
                   id="g436"><text
                     id="text440"
                     style="font-variant:normal;font-weight:normal;font-size:9.96259975px;font-family:CMR10;-inkscape-font-specification:CMR10;writing-mode:lr-tb;fill:#000000;fill-opacity:1;fill-rule:nonzero;stroke:none"
                     transform="matrix(1,0,0,-1,223.468,118.009)"><tspan
                       id="tspan438"
                       y="0"
                       x="0 7.6104302 12.59173 16.466185 21.447485 26.982706 31.964006 35.893257">Database</tspan></text>
<g
                     transform="translate(223.468,118.009)"
                     id="g442" /></g></g><g
                 transform="translate(-152.602,-46.346)"
                 id="g444" /></g></g><g
             id="g446"><g
               id="g448"><path
                 id="path450"
                 style="fill:#ecb3c6;fill-opacity:1;fill-rule:nonzero;stroke:#000000;stroke-width:0.3985;stroke-linecap:butt;stroke-linejoin:miter;stroke-miterlimit:10;stroke-dasharray:none;stroke-opacity:1"
                 d="m 131.06075,0.1356 h -6.20318 c -2.20094,0 -3.9851,-1.78414 -3.9851,-3.98509 v -6.20315 c 0,-2.20095 1.78416,-3.98511 3.9851,-3.98511 h 6.20318 c 2.20094,0 3.9851,1.78416 3.9851,3.98511 v 6.20315 c 0,2.20095 -1.78416,3.98509 -3.9851,3.98509 z" /></g><g
               transform="translate(127.958,-6.951)"
               id="g452"><g
                 id="g454" /><g
                 transform="translate(-127.958,6.951)"
                 id="g456" /></g></g><g
             id="g458"><g
               id="g460"><path
                 id="path462"
                 style="fill:#fff880;fill-opacity:0.4;fill-rule:nonzero;stroke:none"
                 d="m 142.96048,-6.95107 c 0,8.28508 -6.71622,15.0013 -15.00131,15.0013 -8.2851,0 -15.00131,-6.71622 -15.00131,-15.0013 0,-8.28509 6.71621,-15.00131 15.00131,-15.00131 8.28509,0 15.00131,6.71622 15.00131,15.00131 z" /></g><g
               transform="translate(120.672,-6.951)"
               id="g464"><g
                 transform="translate(7.286)"
                 id="g466"><g
                   transform="translate(-7.286)"
                   id="g468" /></g><g
                 transform="translate(-120.672,6.951)"
                 id="g470" /></g></g><g
             id="g472"><g
               transform="translate(146.877,-9.442)"
               id="g474"><g
                 id="g476"><g
                   transform="translate(-217.743,-62.221)"
                   id="g478"><text
                     id="text482"
                     style="font-variant:normal;font-weight:normal;font-size:9.96259975px;font-family:CMR10;-inkscape-font-specification:CMR10;writing-mode:lr-tb;fill:#000000;fill-opacity:1;fill-rule:nonzero;stroke:none"
                     transform="matrix(1,0,0,-1,217.743,62.221)"><tspan
                       id="tspan480"
                       y="0"
                       x="0 7.4719501 13.007171 21.859938 28.916447 34.451668 37.219276 39.986889 45.52211 49.949486">AppBuilder</tspan></text>
<g
                     transform="translate(217.743,62.221)"
                     id="g484" /></g></g><g
                 transform="translate(-146.877,9.442)"
                 id="g486" /></g></g><g
             id="g488"><path
               id="path490"
               style="fill:none;stroke:#000000;stroke-width:0.3985;stroke-linecap:butt;stroke-linejoin:miter;stroke-miterlimit:10;stroke-dasharray:none;stroke-opacity:1"
               d="M -5.89128,28.41176 V 106.8983 H 106.37637" /><g
               transform="translate(106.37637,106.8983)"
               id="g492"><g
                 id="g494"><path
                   id="path496"
                   style="fill:none;stroke:#000000;stroke-width:0.31878999;stroke-linecap:round;stroke-linejoin:round;stroke-miterlimit:10;stroke-dasharray:none;stroke-opacity:1"
                   d="M -1.19551,1.59401 C -1.09587,0.99626 0,0.09961 0.29886,0 0,-0.09961 -1.09587,-0.99626 -1.19551,-1.59401" /></g></g></g><g
             id="g498"><path
               id="path500"
               style="fill:none;stroke:#000000;stroke-width:0.3985;stroke-linecap:butt;stroke-linejoin:miter;stroke-miterlimit:10;stroke-dasharray:none;stroke-opacity:1"
               d="m 24.04948,28.41176 v 21.39442 h 82.32689" /><g
               transform="translate(106.37637,49.80618)"
               id="g502"><g
                 id="g504"><path
                   id="path506"
                   style="fill:none;stroke:#000000;stroke-width:0.31878999;stroke-linecap:round;stroke-linejoin:round;stroke-miterlimit:10;stroke-dasharray:none;stroke-opacity:1"
                   d="M -1.19551,1.59401 C -1.09587,0.99626 0,0.09961 0.29886,0 0,-0.09961 -1.09587,-0.99626 -1.19551,-1.59401" /></g></g></g><g
             id="g508"><path
               id="path510"
               style="fill:none;stroke:#000000;stroke-width:0.3985;stroke-linecap:butt;stroke-linejoin:miter;stroke-miterlimit:10;stroke-dasharray:none;stroke-opacity:1"
               d="M 53.99028,13.44138 V -6.95107 h 58.11079" /><g
               transform="translate(112.10107,-6.95107)"
               id="g512"><g
                 id="g514"><path
                   id="path516"
                   style="fill:none;stroke:#000000;stroke-width:0.31878999;stroke-linecap:round;stroke-linejoin:round;stroke-miterlimit:10;stroke-dasharray:none;stroke-opacity:1"
                   d="M -1.19551,1.59401 C -1.09587,0.99626 0,0.09961 0.29886,0 0,-0.09961 -1.09587,-0.99626 -1.19551,-1.59401" /></g></g></g><g
             id="g518"><path
               id="path520"
               style="fill:none;stroke:#000000;stroke-width:0.3985;stroke-linecap:butt;stroke-linejoin:miter;stroke-miterlimit:10;stroke-dasharray:none;stroke-opacity:1"
               d="M 124.28714,86.07259 V 71.09018" /><g
               transform="rotate(-90,97.68866,-26.59848)"
               id="g522"><g
                 id="g524"><path
                   id="path526"
                   style="fill:none;stroke:#000000;stroke-width:0.31878999;stroke-linecap:round;stroke-linejoin:round;stroke-miterlimit:10;stroke-dasharray:none;stroke-opacity:1"
                   d="M -1.19551,1.59401 C -1.09587,0.99626 0,0.09961 0.29886,0 0,-0.09961 -1.09587,-0.99626 -1.19551,-1.59401" /></g></g></g><g
             id="g528"><path
               id="path530"
               style="fill:none;stroke:#000000;stroke-width:0.3985;stroke-linecap:butt;stroke-linejoin:miter;stroke-miterlimit:10;stroke-dasharray:none;stroke-opacity:1"
               d="M 131.63118,85.61432 V 70.6319" /><g
               transform="rotate(90,23.00843,108.62275)"
               id="g532"><g
                 id="g534"><path
                   id="path536"
                   style="fill:none;stroke:#000000;stroke-width:0.31878999;stroke-linecap:round;stroke-linejoin:round;stroke-miterlimit:10;stroke-dasharray:none;stroke-opacity:1"
                   d="M -1.19551,1.59401 C -1.09587,0.99626 0,0.09961 0.29886,0 0,-0.09961 -1.09587,-0.99626 -1.19551,-1.59401" /></g></g></g></g></g></g></g></svg>