<?xml version="1.0" encoding="UTF-8" standalone="no"?>
<svg
   xmlns:dc="http://purl.org/dc/elements/1.1/"
   xmlns:cc="http://creativecommons.org/ns#"
   xmlns:rdf="http://www.w3.org/1999/02/22-rdf-syntax-ns#"
   xmlns:svg="http://www.w3.org/2000/svg"
   xmlns="http://www.w3.org/2000/svg"
   viewBox="0 0 449.17468 246.73199"
   height="246.73199"
   width="449.17468"
   xml:space="preserve"
   id="svg2"
   version="1.1"><metadata
     id="metadata8"><rdf:RDF><cc:Work
         rdf:about=""><dc:format>image/svg+xml</dc:format><dc:type
           rdf:resource="http://purl.org/dc/dcmitype/StillImage" /></cc:Work></rdf:RDF></metadata><defs
     id="defs6" /><g
     transform="matrix(1.3333333,0,0,-1.3333333,0,246.732)"
     id="g10"><g
       transform="translate(170.17,121.269)"
       id="g12"><g
         id="g14"><g
           id="g16" /><g
           id="g18"><g
             id="g20"><g
               id="g22"><path
                 id="path24"
                 style="fill:#006699;fill-opacity:1;fill-rule:nonzero;stroke:none"
                 d="m 151.9224,63.78033 h -303.8448 c -2.20094,0 -3.9851,-1.78416 -3.9851,-3.9851 V -59.79523 c 0,-2.20094 1.78416,-3.9851 3.9851,-3.9851 h 303.8448 c 2.20094,0 3.9851,1.78416 3.9851,3.9851 V 59.79523 c 0,2.20094 -1.78416,3.9851 -3.9851,3.9851 z" /></g><g
               id="g26"><g
                 id="g28" /></g></g><g
             id="g30"><g
               transform="translate(-21.516,-53.245)"
               id="g32"><g
                 id="g34"><g
                   transform="translate(-148.654,-68.024)"
                   id="g36"><text
                     id="text40"
                     style="font-variant:normal;font-weight:normal;font-size:9.96259975px;font-family:CMR10;-inkscape-font-specification:CMR10;writing-mode:lr-tb;fill:#ffffff;fill-opacity:1;fill-rule:nonzero;stroke:none"
                     transform="matrix(1,0,0,-1,148.654,68.024)"><tspan
                       id="tspan38"
                       y="0"
                       x="0 7.4719501 11.401199 15.828579 19.730928 23.660179 29.1954 34.176701 38.60408">Userspace</tspan></text>
<g
                     transform="translate(148.654,68.024)"
                     id="g42" /></g></g><g
                 transform="translate(21.516,53.245)"
                 id="g44" /></g></g><g
             id="g46"><g
               id="g48"><path
                 id="path50"
                 style="fill:#808080;fill-opacity:1;fill-rule:nonzero;stroke:none"
                 d="m -7.21846,49.20842 h -119.59045 c -2.20095,0 -3.98511,-1.78416 -3.98511,-3.98511 v -77.07022 c 0,-2.20094 1.78416,-3.98511 3.98511,-3.98511 H -7.21846 c 2.20094,0 3.98511,1.78417 3.98511,3.98511 v 77.07022 c 0,2.20095 -1.78417,3.98511 -3.98511,3.98511 z" /></g><g
               transform="translate(-67.012,6.689)"
               id="g52"><g
                 id="g54" /><g
                 transform="translate(67.012,-6.689)"
                 id="g56" /></g></g><g
             id="g58"><g
               transform="translate(-89.152,-25.408)"
               id="g60"><g
                 id="g62"><g
                   transform="translate(-81.018,-95.861)"
                   id="g64"><text
                     id="text68"
                     style="font-variant:normal;font-weight:normal;font-size:9.96259975px;font-family:CMR10;-inkscape-font-specification:CMR10;writing-mode:lr-tb;fill:#000000;fill-opacity:1;fill-rule:nonzero;stroke:none"
                     transform="matrix(1,0,0,-1,81.018,95.861)"><tspan
                       id="tspan66"
                       y="0"
                       x="0 7.7489104 13.563084 17.990463 23.525684 29.060904 34.596127 37.363735 40.408306">OpenShift</tspan></text>
<g
                     transform="translate(81.018,95.861)"
                     id="g70" /></g></g><g
                 transform="translate(89.152,25.408)"
                 id="g72" /></g></g><g
             id="g74"><g
               id="g76"><path
                 id="path78"
                 style="fill:#d9d9d9;fill-opacity:1;fill-rule:nonzero;stroke:none"
                 d="M 126.8085,49.20842 H 7.21803 c -2.20094,0 -3.9851,-1.78416 -3.9851,-3.98511 v -77.07022 c 0,-2.20094 1.78416,-3.98511 3.9851,-3.98511 H 126.8085 c 2.20095,0 3.98511,1.78417 3.98511,3.98511 v 77.07022 c 0,2.20095 -1.78416,3.98511 -3.98511,3.98511 z" /></g><g
               transform="translate(67.013,6.689)"
               id="g80"><g
                 id="g82" /><g
                 transform="translate(-67.013,-6.689)"
                 id="g84" /></g></g><g
             id="g86"><g
               transform="translate(45.136,-25.408)"
               id="g88"><g
                 id="g90"><g
                   transform="translate(-215.306,-95.861)"
                   id="g92"><text
                     id="text96"
                     style="font-variant:normal;font-weight:normal;font-size:9.96259975px;font-family:CMR10;-inkscape-font-specification:CMR10;writing-mode:lr-tb;fill:#000000;fill-opacity:1;fill-rule:nonzero;stroke:none"
                     transform="matrix(1,0,0,-1,215.306,95.861)"><tspan
                       id="tspan94"
                       y="0"
                       x="0 7.4719501 11.3743 16.632561 22.167782 24.935392 27.703001 30.470612 33.238224 38.219521">Arquillian</tspan></text>
<g
                     transform="translate(215.306,95.861)"
                     id="g98" /></g></g><g
                 transform="translate(-45.136,25.408)"
                 id="g100" /></g></g><g
             id="g102"><g
               id="g104"><path
                 id="path106"
                 style="fill:#339999;fill-opacity:1;fill-rule:nonzero;stroke:none"
                 d="M 119.72179,20.86157 H 14.30473 c -2.20094,0 -3.9851,-1.78416 -3.9851,-3.98511 V -3.50009 c 0,-2.20094 1.78416,-3.98511 3.9851,-3.98511 h 105.41706 c 2.20094,0 3.98511,1.78417 3.98511,3.98511 v 20.37655 c 0,2.20095 -1.78417,3.98511 -3.98511,3.98511 z" /></g><g
               transform="translate(38.799,3.285)"
               id="g108"><g
                 id="g110"><g
                   transform="translate(-208.969,-124.554)"
                   id="g112"><text
                     id="text116"
                     style="font-variant:normal;font-weight:normal;font-size:9.96259975px;font-family:CMR10;-inkscape-font-specification:CMR10;writing-mode:lr-tb;fill:#000000;fill-opacity:1;fill-rule:nonzero;stroke:none"
                     transform="matrix(1,0,0,-1,208.969,124.554)"><tspan
                       id="tspan114"
                       y="0"
                       x="0 7.1949897 13.975535 17.29607 23.664164 28.091543 32.020794 35.895248 39.824497 45.359718 48.127327 52.001781">CE-Testsuite</tspan></text>
<g
                     transform="translate(208.969,124.554)"
                     id="g118" /></g></g><g
                 transform="translate(-38.799,-3.285)"
                 id="g120" /></g></g><g
             id="g122"><g
               id="g124"><path
                 id="path126"
                 style="fill:#003366;fill-opacity:1;fill-rule:nonzero;stroke:none"
                 d="m 151.9224,-64.57735 h -303.8448 c -2.20094,0 -3.9851,-1.78416 -3.9851,-3.9851 v -20.37658 c 0,-2.20094 1.78416,-3.9851 3.9851,-3.9851 h 303.8448 c 2.20094,0 3.9851,1.78416 3.9851,3.9851 v 20.37658 c 0,2.20094 -1.78416,3.9851 -3.9851,3.9851 z" /></g><g
               transform="translate(-14.404,-82.209)"
               id="g128"><g
                 id="g130"><g
                   transform="translate(-155.766,-39.06)"
                   id="g132"><text
                     id="text136"
                     style="font-variant:normal;font-weight:normal;font-size:9.96259975px;font-family:CMR10;-inkscape-font-specification:CMR10;writing-mode:lr-tb;fill:#ffffff;fill-opacity:1;fill-rule:nonzero;stroke:none"
                     transform="matrix(1,0,0,-1,155.766,39.06)"><tspan
                       id="tspan134"
                       y="0"
                       x="0 7.7489104 12.17629 16.07864 21.613861 26.041241">Kernel</tspan></text>
<g
                     transform="translate(155.766,39.06)"
                     id="g138" /></g></g><g
                 transform="translate(14.404,82.209)"
                 id="g140" /></g></g><g
             id="g142"><g
               id="g144"><path
                 id="path146"
                 style="fill:#000033;fill-opacity:1;fill-rule:nonzero;stroke:none"
                 d="m 151.9224,-92.92415 h -303.8448 c -2.20094,0 -3.9851,-1.78416 -3.9851,-3.98511 v -20.37658 c 0,-2.20095 1.78416,-3.98511 3.9851,-3.98511 h 303.8448 c 2.20094,0 3.9851,1.78416 3.9851,3.98511 v 20.37658 c 0,2.20095 -1.78416,3.98511 -3.9851,3.98511 z" /></g><g
               transform="translate(-21.06,-110.555)"
               id="g148"><g
                 id="g150"><g
                   transform="translate(-149.11,-10.714)"
                   id="g152"><text
                     id="text156"
                     style="font-variant:normal;font-weight:normal;font-size:9.96259975px;font-family:CMR10;-inkscape-font-specification:CMR10;writing-mode:lr-tb;fill:#ffffff;fill-opacity:1;fill-rule:nonzero;stroke:none"
                     transform="matrix(1,0,0,-1,149.11,10.714)"><tspan
                       id="tspan154"
                       y="0"
                       x="0 7.4719501 12.45325 16.3556 21.890821 28.806858 33.788158 37.69051">Hardware</tspan></text>
<g
                     transform="translate(149.11,10.714)"
                     id="g158" /></g></g><g
                 transform="translate(21.06,110.555)"
                 id="g160" /></g></g><g
             id="g162"><g
               id="g164"><path
                 id="path166"
                 style="fill:#b3b3ff;fill-opacity:1;fill-rule:nonzero;stroke:none"
                 d="m -14.30516,20.86157 h -105.41705 c -2.20095,0 -3.98511,-1.78416 -3.98511,-3.98511 V -3.50009 c 0,-2.20094 1.78416,-3.98511 3.98511,-3.98511 h 105.41705 c 2.20094,0 3.98511,1.78417 3.98511,3.98511 v 20.37655 c 0,2.20095 -1.78417,3.98511 -3.98511,3.98511 z" /></g><g
               transform="translate(-82.178,3.229)"
               id="g168"><g
                 id="g170"><g
                   transform="translate(-87.992,-124.498)"
                   id="g172"><text
                     id="text176"
                     style="font-variant:normal;font-weight:normal;font-size:9.96259975px;font-family:CMR10;-inkscape-font-specification:CMR10;writing-mode:lr-tb;fill:#000000;fill-opacity:1;fill-rule:nonzero;stroke:none"
                     transform="matrix(1,0,0,-1,87.992,124.498)"><tspan
                       id="tspan174"
                       y="0"
                       x="0 7.6104302 12.870683 17.01911 21.998417 26.425797">Docker</tspan></text>
<g
                     transform="translate(87.992,124.498)"
                     id="g178" /></g></g><g
                 transform="translate(82.178,-3.229)"
                 id="g180" /></g></g><g
             id="g182"><g
               id="g184"><path
                 id="path186"
                 style="fill:#ecb3c6;fill-opacity:1;fill-rule:nonzero;stroke:#000000;stroke-width:0.3985;stroke-linecap:butt;stroke-linejoin:miter;stroke-miterlimit:10;stroke-dasharray:none;stroke-opacity:1"
                 d="m -113.7183,35.03497 h -6.20316 c -2.20094,0 -3.98511,-1.78416 -3.98511,-3.9851 V 24.8467 c 0,-2.20095 1.78417,-3.98511 3.98511,-3.98511 h 6.20316 c 2.20094,0 3.9851,1.78416 3.9851,3.98511 v 6.20317 c 0,2.20094 -1.78416,3.9851 -3.9851,3.9851 z" /></g><g
               transform="translate(-116.818,27.948)"
               id="g188"><g
                 id="g190" /><g
                 transform="translate(116.818,-27.948)"
                 id="g192" /></g></g><g
             id="g194"><g
               id="g196"><path
                 id="path198"
                 style="fill:#ecb3c6;fill-opacity:1;fill-rule:nonzero;stroke:#000000;stroke-width:0.3985;stroke-linecap:butt;stroke-linejoin:miter;stroke-miterlimit:10;stroke-dasharray:none;stroke-opacity:1"
                 d="m -99.14641,35.03497 h -6.20317 c -2.20094,0 -3.98511,-1.78416 -3.98511,-3.9851 V 24.8467 c 0,-2.20095 1.78417,-3.98511 3.98511,-3.98511 h 6.20317 c 2.20094,0 3.98511,1.78416 3.98511,3.98511 v 6.20317 c 0,2.20094 -1.78417,3.9851 -3.98511,3.9851 z" /></g><g
               transform="translate(-102.246,27.948)"
               id="g200"><g
                 id="g202" /><g
                 transform="translate(102.246,-27.948)"
                 id="g204" /></g></g><g
             id="g206"><g
               id="g208"><path
                 id="path210"
                 style="fill:#ecb3c6;fill-opacity:1;fill-rule:nonzero;stroke:#000000;stroke-width:0.3985;stroke-linecap:butt;stroke-linejoin:miter;stroke-miterlimit:10;stroke-dasharray:none;stroke-opacity:1"
                 d="m -84.57452,35.03497 h -6.20318 c -2.20094,0 -3.9851,-1.78416 -3.9851,-3.9851 V 24.8467 c 0,-2.20095 1.78416,-3.98511 3.9851,-3.98511 h 6.20318 c 2.20094,0 3.9851,1.78416 3.9851,3.98511 v 6.20317 c 0,2.20094 -1.78416,3.9851 -3.9851,3.9851 z" /></g><g
               transform="translate(-87.675,27.948)"
               id="g212"><g
                 id="g214" /><g
                 transform="translate(87.675,-27.948)"
                 id="g216" /></g></g><g
             id="g218"><g
               id="g220"><path
                 id="path222"
                 style="fill:#ecb3c6;fill-opacity:1;fill-rule:nonzero;stroke:#000000;stroke-width:0.3985;stroke-linecap:butt;stroke-linejoin:miter;stroke-miterlimit:10;stroke-dasharray:none;stroke-opacity:1"
                 d="m -70.00264,35.03497 h -6.20317 c -2.20094,0 -3.98511,-1.78416 -3.98511,-3.9851 V 24.8467 c 0,-2.20095 1.78417,-3.98511 3.98511,-3.98511 h 6.20317 c 2.20094,0 3.98511,1.78416 3.98511,3.98511 v 6.20317 c 0,2.20094 -1.78417,3.9851 -3.98511,3.9851 z" /></g><g
               transform="translate(-73.103,27.948)"
               id="g224"><g
                 id="g226" /><g
                 transform="translate(73.103,-27.948)"
                 id="g228" /></g></g><g
             id="g230"><g
               id="g232"><path
                 id="path234"
                 style="fill:#ecb3c6;fill-opacity:1;fill-rule:nonzero;stroke:#000000;stroke-width:0.3985;stroke-linecap:butt;stroke-linejoin:miter;stroke-miterlimit:10;stroke-dasharray:none;stroke-opacity:1"
                 d="m -55.43076,35.03497 h -6.20317 c -2.20094,0 -3.9851,-1.78416 -3.9851,-3.9851 V 24.8467 c 0,-2.20095 1.78416,-3.98511 3.9851,-3.98511 h 6.20317 c 2.20095,0 3.98511,1.78416 3.98511,3.98511 v 6.20317 c 0,2.20094 -1.78416,3.9851 -3.98511,3.9851 z" /></g><g
               transform="translate(-58.531,27.948)"
               id="g236"><g
                 id="g238" /><g
                 transform="translate(58.531,-27.948)"
                 id="g240" /></g></g><g
             id="g242"><g
               id="g244"><path
                 id="path246"
                 style="fill:#ecb3c6;fill-opacity:1;fill-rule:nonzero;stroke:#000000;stroke-width:0.3985;stroke-linecap:butt;stroke-linejoin:miter;stroke-miterlimit:10;stroke-dasharray:none;stroke-opacity:1"
                 d="m -40.85887,35.03497 h -6.20316 c -2.20094,0 -3.9851,-1.78416 -3.9851,-3.9851 V 24.8467 c 0,-2.20095 1.78416,-3.98511 3.9851,-3.98511 h 6.20316 c 2.20094,0 3.98511,1.78416 3.98511,3.98511 v 6.20317 c 0,2.20094 -1.78417,3.9851 -3.98511,3.9851 z" /></g><g
               transform="translate(-43.96,27.948)"
               id="g248"><g
                 id="g250" /><g
                 transform="translate(43.96,-27.948)"
                 id="g252" /></g></g><g
             id="g254"><g
               id="g256"><path
                 id="path258"
                 style="fill:#ecb3c6;fill-opacity:1;fill-rule:nonzero;stroke:#000000;stroke-width:0.3985;stroke-linecap:butt;stroke-linejoin:miter;stroke-miterlimit:10;stroke-dasharray:none;stroke-opacity:1"
                 d="m -26.28699,35.03497 h -6.20315 c -2.20095,0 -3.98511,-1.78416 -3.98511,-3.9851 V 24.8467 c 0,-2.20095 1.78416,-3.98511 3.98511,-3.98511 h 6.20315 c 2.20095,0 3.98511,1.78416 3.98511,3.98511 v 6.20317 c 0,2.20094 -1.78416,3.9851 -3.98511,3.9851 z" /></g><g
               transform="translate(-29.388,27.948)"
               id="g260"><g
                 id="g262" /><g
                 transform="translate(29.388,-27.948)"
                 id="g264" /></g></g><g
             id="g266"><g
               id="g268"><path
                 id="path270"
                 style="fill:#ecb3c6;fill-opacity:1;fill-rule:nonzero;stroke:#000000;stroke-width:0.3985;stroke-linecap:butt;stroke-linejoin:miter;stroke-miterlimit:10;stroke-dasharray:none;stroke-opacity:1"
                 d="m -11.71509,35.03497 h -6.20317 c -2.20094,0 -3.98511,-1.78416 -3.98511,-3.9851 V 24.8467 c 0,-2.20095 1.78417,-3.98511 3.98511,-3.98511 h 6.20317 c 2.20095,0 3.98511,1.78416 3.98511,3.98511 v 6.20317 c 0,2.20094 -1.78416,3.9851 -3.98511,3.9851 z" /></g><g
               transform="translate(-14.816,27.948)"
               id="g272"><g
                 id="g274" /><g
                 transform="translate(14.816,-27.948)"
                 id="g276" /></g></g><g
             id="g278"><g
               transform="translate(-90.439,38.555)"
               id="g280"><g
                 id="g282"><g
                   transform="translate(-79.731,-159.824)"
                   id="g284"><text
                     id="text288"
                     style="font-variant:normal;font-weight:normal;font-size:9.96259975px;font-family:CMR10;-inkscape-font-specification:CMR10;writing-mode:lr-tb;fill:#000000;fill-opacity:1;fill-rule:nonzero;stroke:none"
                     transform="matrix(1,0,0,-1,79.731,159.824)"><tspan
                       id="tspan286"
                       y="0"
                       x="0 7.1949897 12.17629 17.432558 21.307013 26.288313 29.055923 34.591145 39.018524 42.920872">Containers</tspan></text>
<g
                     transform="translate(79.731,159.824)"
                     id="g290" /></g></g><g
                 transform="translate(90.439,-38.555)"
                 id="g292" /></g></g><g
             id="g294"><g
               id="g296"><path
                 id="path298"
                 style="fill:none;stroke:#000000;stroke-width:0.79701;stroke-linecap:butt;stroke-linejoin:miter;stroke-miterlimit:10;stroke-dasharray:none;stroke-opacity:1"
                 d="m -93.9599,41.95874 h -22.85999 v -6.01715" /><g
                 transform="rotate(-90,-40.43915,76.38074)"
                 id="g300"><g
                   id="g302"><path
                     id="path304"
                     style="fill:none;stroke:#000000;stroke-width:0.6376;stroke-linecap:round;stroke-linejoin:round;stroke-miterlimit:10;stroke-dasharray:none;stroke-opacity:1"
                     d="M -1.55415,2.0722 C -1.42464,1.29512 0,0.1295 0.38852,0 0,-0.1295 -1.42464,-1.29512 -1.55415,-2.0722" /></g></g></g><g
               id="g306"><path
                 id="path308"
                 style="fill:none;stroke:#000000;stroke-width:0.79701;stroke-linecap:butt;stroke-linejoin:miter;stroke-miterlimit:10;stroke-dasharray:none;stroke-opacity:1"
                 d="m -40.06747,41.95874 h 25.25079 v -6.01715" /><g
                 transform="rotate(-90,10.562455,25.379135)"
                 id="g310"><g
                   id="g312"><path
                     id="path314"
                     style="fill:none;stroke:#000000;stroke-width:0.6376;stroke-linecap:round;stroke-linejoin:round;stroke-miterlimit:10;stroke-dasharray:none;stroke-opacity:1"
                     d="M -1.55415,2.0722 C -1.42464,1.29512 0,0.1295 0.38852,0 0,-0.1295 -1.42464,-1.29512 -1.55415,-2.0722" /></g></g></g></g><g
             id="g316"><g
               transform="rotate(90,-50.7655,-109.1655)"
               id="g318"><g
                 id="g320"><g
                   transform="translate(-10.239,-62.869)"
                   id="g322"><text
                     id="text326"
                     style="font-variant:normal;font-weight:normal;font-size:9.96259975px;font-family:CMR10;-inkscape-font-specification:CMR10;writing-mode:lr-tb;fill:#000000;fill-opacity:1;fill-rule:nonzero;stroke:none"
                     transform="matrix(1,0,0,-1,10.239,62.869)"><tspan
                       id="tspan324"
                       y="0"
                       x="0 7.4719501 12.45325 16.3825 23.574501 32.707214 37.688515 41.846905 47.382126 50.149734 55.684956">HostMachine</tspan></text>
<g
                     transform="translate(10.239,62.869)"
                     id="g328" /></g></g><g
                 transform="translate(159.931,58.4)"
                 id="g330" /></g></g><g
             id="g332"><g
               id="g334"><path
                 id="path336"
                 style="fill:none;stroke:#000000;stroke-width:0.79701;stroke-linecap:butt;stroke-linejoin:miter;stroke-miterlimit:10;stroke-dasharray:none;stroke-opacity:1"
                 d="m -163.3927,5.2274 v 51.66295 h 6.37933" /><g
                 transform="translate(-157.01337,56.89035)"
                 id="g338"><g
                   id="g340"><path
                     id="path342"
                     style="fill:none;stroke:#000000;stroke-width:0.6376;stroke-linecap:round;stroke-linejoin:round;stroke-miterlimit:10;stroke-dasharray:none;stroke-opacity:1"
                     d="M -1.55415,2.0722 C -1.42464,1.29512 0,0.1295 0.38852,0 0,-0.1295 -1.42464,-1.29512 -1.55415,-2.0722" /></g></g></g><g
               id="g344"><path
                 id="path346"
                 style="fill:none;stroke:#000000;stroke-width:0.79701;stroke-linecap:butt;stroke-linejoin:miter;stroke-miterlimit:10;stroke-dasharray:none;stroke-opacity:1"
                 d="m -163.3927,-61.92102 v -45.17653 h 6.37933" /><g
                 transform="translate(-157.01337,-107.09755)"
                 id="g348"><g
                   id="g350"><path
                     id="path352"
                     style="fill:none;stroke:#000000;stroke-width:0.6376;stroke-linecap:round;stroke-linejoin:round;stroke-miterlimit:10;stroke-dasharray:none;stroke-opacity:1"
                     d="M -1.55415,2.0722 C -1.42464,1.29512 0,0.1295 0.38852,0 0,-0.1295 -1.42464,-1.29512 -1.55415,-2.0722" /></g></g></g></g><g
             id="g354"><g
               transform="rotate(90,95.8685,67.5225)"
               id="g356"><g
                 id="g358" /><g
                 transform="translate(-163.391,28.346)"
                 id="g360" /></g></g><g
             id="g362"><g
               transform="rotate(-90,83.352,-51.466)"
               id="g364"><g
                 id="g366"><g
                   transform="translate(-304.988,-153.155)"
                   id="g368"><text
                     id="text372"
                     style="font-variant:normal;font-weight:normal;font-size:9.96259975px;font-family:CMR10;-inkscape-font-specification:CMR10;writing-mode:lr-tb;fill:#ffffff;fill-opacity:1;fill-rule:nonzero;stroke:none"
                     transform="matrix(1,0,0,-1,304.988,153.155)"><tspan
                       id="tspan370"
                       y="0"
                       x="0 9.1327152 11.900326 17.435547 22.970766 25.738377 30.165756 37.081795 42.063095 45.965443">Middleware</tspan></text>
<g
                     transform="translate(304.988,153.155)"
                     id="g374" /></g></g><g
                 transform="translate(-134.818,-31.886)"
                 id="g376" /></g></g><g
             id="g378"><g
               id="g380"><path
                 id="path382"
                 style="fill:none;stroke:#000000;stroke-width:0.79701;stroke-linecap:butt;stroke-linejoin:miter;stroke-miterlimit:10;stroke-dasharray:none;stroke-opacity:1"
                 d="m 138.2788,35.40555 v 8.33804 h -6.37932" /><g
                 transform="rotate(180,65.94974,21.871795)"
                 id="g384"><g
                   id="g386"><path
                     id="path388"
                     style="fill:none;stroke:#000000;stroke-width:0.6376;stroke-linecap:round;stroke-linejoin:round;stroke-miterlimit:10;stroke-dasharray:none;stroke-opacity:1"
                     d="M -1.55415,2.0722 C -1.42464,1.29512 0,0.1295 0.38852,0 0,-0.1295 -1.42464,-1.29512 -1.55415,-2.0722" /></g></g></g><g
               id="g390"><path
                 id="path392"
                 style="fill:none;stroke:#000000;stroke-width:0.79701;stroke-linecap:butt;stroke-linejoin:miter;stroke-miterlimit:10;stroke-dasharray:none;stroke-opacity:1"
                 d="m 138.2788,-22.02914 v -8.33805 h -6.37932" /><g
                 transform="rotate(180,65.94974,-15.183595)"
                 id="g394"><g
                   id="g396"><path
                     id="path398"
                     style="fill:none;stroke:#000000;stroke-width:0.6376;stroke-linecap:round;stroke-linejoin:round;stroke-miterlimit:10;stroke-dasharray:none;stroke-opacity:1"
                     d="M -1.55415,2.0722 C -1.42464,1.29512 0,0.1295 0.38852,0 0,-0.1295 -1.42464,-1.29512 -1.55415,-2.0722" /></g></g></g></g></g></g></g></g></svg>