<?xml version="1.0" encoding="UTF-8" standalone="no"?>
<svg
   xmlns:dc="http://purl.org/dc/elements/1.1/"
   xmlns:cc="http://creativecommons.org/ns#"
   xmlns:rdf="http://www.w3.org/1999/02/22-rdf-syntax-ns#"
   xmlns:svg="http://www.w3.org/2000/svg"
   xmlns="http://www.w3.org/2000/svg"
   viewBox="0 0 449.17468 246.73199"
   height="246.73199"
   width="449.17468"
   xml:space="preserve"
   id="svg2"
   version="1.1"><metadata
     id="metadata8"><rdf:RDF><cc:Work
         rdf:about=""><dc:format>image/svg+xml</dc:format><dc:type
           rdf:resource="http://purl.org/dc/dcmitype/StillImage" /></cc:Work></rdf:RDF></metadata><defs
     id="defs6" /><g
     transform="matrix(1.3333333,0,0,-1.3333333,0,246.732)"
     id="g10"><g
       transform="translate(170.17,121.269)"
       id="g12"><g
         id="g14"><g
           id="g16" /><g
           id="g18"><g
             id="g20"><g
               id="g22" /><g
               id="g24"><g
                 id="g26" /></g></g><g
             id="g28"><g
               id="g30" /><g
               id="g32"><g
                 id="g34" /></g></g><g
             id="g36"><g
               id="g38"><path
                 id="path40"
                 style="fill:#006699;fill-opacity:1;fill-rule:nonzero;stroke:none"
                 d="m 151.9224,63.78033 h -303.8448 c -2.20094,0 -3.9851,-1.78416 -3.9851,-3.9851 V -59.79523 c 0,-2.20094 1.78416,-3.9851 3.9851,-3.9851 h 303.8448 c 2.20094,0 3.9851,1.78416 3.9851,3.9851 V 59.79523 c 0,2.20094 -1.78416,3.9851 -3.9851,3.9851 z" /></g><g
               transform="translate(-64.178)"
               id="g42"><g
                 transform="translate(64.178)"
                 id="g44"><g
                   transform="translate(-64.178)"
                   id="g46" /></g><g
                 transform="translate(64.178)"
                 id="g48" /></g></g><g
             id="g50"><g
               transform="translate(-21.516,-53.245)"
               id="g52"><g
                 id="g54"><g
                   transform="translate(-148.654,-68.024)"
                   id="g56"><text
                     id="text60"
                     style="font-variant:normal;font-weight:normal;font-size:9.96259975px;font-family:CMR10;-inkscape-font-specification:CMR10;writing-mode:lr-tb;fill:#ffffff;fill-opacity:1;fill-rule:nonzero;stroke:none"
                     transform="matrix(1,0,0,-1,148.654,68.024)"><tspan
                       id="tspan58"
                       y="0"
                       x="0 7.4719501 11.401199 15.828579 19.730928 23.660179 29.1954 34.176701 38.60408">Userspace</tspan></text>
<g
                     transform="translate(148.654,68.024)"
                     id="g62" /></g></g><g
                 transform="translate(21.516,53.245)"
                 id="g64" /></g></g><g
             id="g66"><g
               id="g68"><g
                 id="g70" /></g></g><g
             id="g72"><g
               id="g74"><g
                 id="g76" /></g></g><g
             id="g78"><g
               id="g80"><g
                 id="g82" /></g></g><g
             id="g84"><g
               id="g86"><g
                 id="g88" /></g></g><g
             id="g90"><g
               id="g92"><g
                 id="g94" /></g></g><g
             id="g96"><g
               id="g98"><g
                 id="g100" /></g></g><g
             id="g102"><g
               id="g104"><g
                 id="g106" /></g></g><g
             id="g108"><g
               id="g110"><g
                 id="g112" /></g></g><g
             id="g114"><g
               id="g116"><g
                 id="g118" /></g></g><g
             id="g120"><g
               id="g122"><g
                 id="g124" /></g></g><g
             id="g126"><g
               id="g128"><path
                 id="path130"
                 style="fill:#808080;fill-opacity:1;fill-rule:nonzero;stroke:none"
                 d="m -1.54875,51.42284 h -133.76389 c -2.20094,0 -3.9851,-1.78417 -3.9851,-3.98511 v -77.07021 c 0,-2.20094 1.78416,-3.9851 3.9851,-3.9851 H -1.54875 c 2.20093,0 3.98509,1.78416 3.98509,3.9851 v 77.07021 c 0,2.20094 -1.78416,3.98511 -3.98509,3.98511 z" /></g><g
               transform="translate(-71.949,8.903)"
               id="g132"><g
                 transform="translate(3.52)"
                 id="g134"><g
                   transform="translate(-3.52)"
                   id="g136" /></g><g
                 transform="translate(71.949,-8.903)"
                 id="g138" /></g></g><g
             id="g140"><g
               transform="translate(-90.569,-23.194)"
               id="g142"><g
                 id="g144"><g
                   transform="translate(-79.601,-98.075)"
                   id="g146"><text
                     id="text150"
                     style="font-variant:normal;font-weight:normal;font-size:9.96259975px;font-family:CMR10;-inkscape-font-specification:CMR10;writing-mode:lr-tb;fill:#000000;fill-opacity:1;fill-rule:nonzero;stroke:none"
                     transform="matrix(1,0,0,-1,79.601,98.075)"><tspan
                       id="tspan148"
                       y="0"
                       x="0 7.7489104 13.563084 17.990463 23.525684 29.060904 34.596127 37.363735 40.408306">OpenShift</tspan></text>
<g
                     transform="translate(79.601,98.075)"
                     id="g152" /></g></g><g
                 transform="translate(90.569,23.194)"
                 id="g154" /></g></g><g
             id="g156"><g
               id="g158"><g
                 id="g160" /></g></g><g
             id="g162"><g
               id="g164"><g
                 id="g166" /></g></g><g
             id="g168"><g
               id="g170"><g
                 id="g172" /></g></g><g
             id="g174"><g
               id="g176"><g
                 id="g178" /></g></g><g
             id="g180"><g
               id="g182"><g
                 id="g184" /></g></g><g
             id="g186"><g
               id="g188"><g
                 id="g190" /></g></g><g
             id="g192"><g
               id="g194"><g
                 id="g196" /></g></g><g
             id="g198"><g
               id="g200"><g
                 id="g202" /></g></g><g
             id="g204"><g
               id="g206"><path
                 id="path208"
                 style="fill:#b3b3ff;fill-opacity:1;fill-rule:nonzero;stroke:none"
                 d="m -15.72217,23.07602 h -105.41705 c -2.20094,0 -3.98511,-1.78417 -3.98511,-3.98511 V -1.28566 c 0,-2.20094 1.78417,-3.98511 3.98511,-3.98511 h 105.41705 c 2.20095,0 3.98511,1.78417 3.98511,3.98511 v 20.37657 c 0,2.20094 -1.78416,3.98511 -3.98511,3.98511 z" /></g><g
               transform="translate(-80.744,6.412)"
               id="g210"><g
                 id="g212"><g
                   transform="translate(-89.426,-127.681)"
                   id="g214"><text
                     id="text218"
                     style="font-variant:normal;font-weight:normal;font-size:9.96259975px;font-family:CMR10;-inkscape-font-specification:CMR10;writing-mode:lr-tb;fill:#000000;fill-opacity:1;fill-rule:nonzero;stroke:none"
                     transform="matrix(1,0,0,-1,89.426,127.681)"><tspan
                       id="tspan216"
                       y="0"
                       x="0 9.1327152 14.114016 19.370283">Moby</tspan></text>
<g
                     transform="translate(89.426,127.681)"
                     id="g220" /></g></g><g
                 transform="translate(80.744,-6.412)"
                 id="g222" /></g></g><g
             id="g224"><g
               transform="translate(-129.041,29.829)"
               id="g226"><g
                 id="g228" /><g
                 transform="translate(129.041,-29.829)"
                 id="g230" /></g></g><g
             id="g232"><g
               id="g234"><path
                 id="path236"
                 style="fill:#ecb3c6;fill-opacity:1;fill-rule:nonzero;stroke:#000000;stroke-width:0.3985;stroke-linecap:butt;stroke-linejoin:miter;stroke-miterlimit:10;stroke-dasharray:none;stroke-opacity:1"
                 d="m -115.1353,36.91588 h -6.20317 c -2.20094,0 -3.98511,-1.78417 -3.98511,-3.98511 v -6.20315 c 0,-2.20095 1.78417,-3.98511 3.98511,-3.98511 h 6.20317 c 2.20093,0 3.98511,1.78416 3.98511,3.98511 v 6.20315 c 0,2.20094 -1.78418,3.98511 -3.98511,3.98511 z" /></g><g
               transform="translate(-118.235,29.829)"
               id="g238"><g
                 id="g240" /><g
                 transform="translate(118.235,-29.829)"
                 id="g242" /></g></g><g
             id="g244"><g
               id="g246"><path
                 id="path248"
                 style="fill:#ecb3c6;fill-opacity:1;fill-rule:nonzero;stroke:#000000;stroke-width:0.3985;stroke-linecap:butt;stroke-linejoin:miter;stroke-miterlimit:10;stroke-dasharray:none;stroke-opacity:1"
                 d="m -100.56342,36.91588 h -6.20317 c -2.20094,0 -3.98511,-1.78417 -3.98511,-3.98511 v -6.20315 c 0,-2.20095 1.78417,-3.98511 3.98511,-3.98511 h 6.20317 c 2.20095,0 3.98511,1.78416 3.98511,3.98511 v 6.20315 c 0,2.20094 -1.78416,3.98511 -3.98511,3.98511 z" /></g><g
               transform="translate(-103.663,29.829)"
               id="g250"><g
                 id="g252" /><g
                 transform="translate(103.663,-29.829)"
                 id="g254" /></g></g><g
             id="g256"><g
               id="g258"><path
                 id="path260"
                 style="fill:#ecb3c6;fill-opacity:1;fill-rule:nonzero;stroke:#000000;stroke-width:0.3985;stroke-linecap:butt;stroke-linejoin:miter;stroke-miterlimit:10;stroke-dasharray:none;stroke-opacity:1"
                 d="m -85.99153,36.91588 h -6.20317 c -2.20095,0 -3.98511,-1.78417 -3.98511,-3.98511 v -6.20315 c 0,-2.20095 1.78416,-3.98511 3.98511,-3.98511 h 6.20317 c 2.20094,0 3.98511,1.78416 3.98511,3.98511 v 6.20315 c 0,2.20094 -1.78417,3.98511 -3.98511,3.98511 z" /></g><g
               transform="translate(-89.092,29.829)"
               id="g262"><g
                 id="g264" /><g
                 transform="translate(89.092,-29.829)"
                 id="g266" /></g></g><g
             id="g268"><g
               id="g270"><path
                 id="path272"
                 style="fill:#ecb3c6;fill-opacity:1;fill-rule:nonzero;stroke:#000000;stroke-width:0.3985;stroke-linecap:butt;stroke-linejoin:miter;stroke-miterlimit:10;stroke-dasharray:none;stroke-opacity:1"
                 d="m -71.41965,36.91588 h -6.20317 c -2.20094,0 -3.98511,-1.78417 -3.98511,-3.98511 v -6.20315 c 0,-2.20095 1.78417,-3.98511 3.98511,-3.98511 h 6.20317 c 2.20095,0 3.98511,1.78416 3.98511,3.98511 v 6.20315 c 0,2.20094 -1.78416,3.98511 -3.98511,3.98511 z" /></g><g
               transform="translate(-74.52,29.829)"
               id="g274"><g
                 id="g276" /><g
                 transform="translate(74.52,-29.829)"
                 id="g278" /></g></g><g
             id="g280"><g
               id="g282"><path
                 id="path284"
                 style="fill:#ecb3c6;fill-opacity:1;fill-rule:nonzero;stroke:#000000;stroke-width:0.3985;stroke-linecap:butt;stroke-linejoin:miter;stroke-miterlimit:10;stroke-dasharray:none;stroke-opacity:1"
                 d="m -56.84776,36.91588 h -6.20317 c -2.20095,0 -3.98511,-1.78417 -3.98511,-3.98511 v -6.20315 c 0,-2.20095 1.78416,-3.98511 3.98511,-3.98511 h 6.20317 c 2.20094,0 3.9851,1.78416 3.9851,3.98511 v 6.20315 c 0,2.20094 -1.78416,3.98511 -3.9851,3.98511 z" /></g><g
               transform="translate(-59.948,29.829)"
               id="g286"><g
                 id="g288" /><g
                 transform="translate(59.948,-29.829)"
                 id="g290" /></g></g><g
             id="g292"><g
               id="g294"><path
                 id="path296"
                 style="fill:#ecb3c6;fill-opacity:1;fill-rule:nonzero;stroke:#000000;stroke-width:0.3985;stroke-linecap:butt;stroke-linejoin:miter;stroke-miterlimit:10;stroke-dasharray:none;stroke-opacity:1"
                 d="m -42.27588,36.91588 h -6.20315 c -2.20095,0 -3.98511,-1.78417 -3.98511,-3.98511 v -6.20315 c 0,-2.20095 1.78416,-3.98511 3.98511,-3.98511 h 6.20315 c 2.20094,0 3.98511,1.78416 3.98511,3.98511 v 6.20315 c 0,2.20094 -1.78417,3.98511 -3.98511,3.98511 z" /></g><g
               transform="translate(-45.377,29.829)"
               id="g298"><g
                 id="g300" /><g
                 transform="translate(45.377,-29.829)"
                 id="g302" /></g></g><g
             id="g304"><g
               id="g306"><path
                 id="path308"
                 style="fill:#ecb3c6;fill-opacity:1;fill-rule:nonzero;stroke:#000000;stroke-width:0.3985;stroke-linecap:butt;stroke-linejoin:miter;stroke-miterlimit:10;stroke-dasharray:none;stroke-opacity:1"
                 d="m -27.70398,36.91588 h -6.20317 c -2.20095,0 -3.98511,-1.78417 -3.98511,-3.98511 v -6.20315 c 0,-2.20095 1.78416,-3.98511 3.98511,-3.98511 h 6.20317 c 2.20093,0 3.98511,1.78416 3.98511,3.98511 v 6.20315 c 0,2.20094 -1.78418,3.98511 -3.98511,3.98511 z" /></g><g
               transform="translate(-30.805,29.829)"
               id="g310"><g
                 id="g312" /><g
                 transform="translate(30.805,-29.829)"
                 id="g314" /></g></g><g
             id="g316"><g
               id="g318"><path
                 id="path320"
                 style="fill:#ecb3c6;fill-opacity:1;fill-rule:nonzero;stroke:#000000;stroke-width:0.3985;stroke-linecap:butt;stroke-linejoin:miter;stroke-miterlimit:10;stroke-dasharray:none;stroke-opacity:1"
                 d="m -13.1321,36.91588 h -6.20317 c -2.20094,0 -3.9851,-1.78417 -3.9851,-3.98511 v -6.20315 c 0,-2.20095 1.78416,-3.98511 3.9851,-3.98511 h 6.20317 c 2.20095,0 3.98511,1.78416 3.98511,3.98511 v 6.20315 c 0,2.20094 -1.78416,3.98511 -3.98511,3.98511 z" /></g><g
               transform="translate(-16.233,29.829)"
               id="g322"><g
                 id="g324" /><g
                 transform="translate(16.233,-29.829)"
                 id="g326" /></g></g><g
             id="g328"><g
               transform="translate(-91.856,41.167)"
               id="g330"><g
                 id="g332"><g
                   transform="translate(-78.314,-162.436)"
                   id="g334"><text
                     id="text338"
                     style="font-variant:normal;font-weight:normal;font-size:9.96259975px;font-family:CMR10;-inkscape-font-specification:CMR10;writing-mode:lr-tb;fill:#000000;fill-opacity:1;fill-rule:nonzero;stroke:none"
                     transform="matrix(1,0,0,-1,78.314,162.436)"><tspan
                       id="tspan336"
                       y="0"
                       x="0 7.1949897 12.17629 17.432558 21.307013 26.288313 29.055923 34.591145 39.018524 42.920872">Containers</tspan></text>
<g
                     transform="translate(78.314,162.436)"
                     id="g340" /></g></g><g
                 transform="translate(91.856,-41.167)"
                 id="g342" /></g></g><g
             id="g344"><path
               id="path346"
               style="fill:none;stroke:#000000;stroke-width:0.3985;stroke-linecap:butt;stroke-linejoin:miter;stroke-miterlimit:10;stroke-dasharray:none;stroke-opacity:1"
               d="m -95.3769,44.57167 h -22.86 v -6.99826" /><g
               transform="rotate(-90,-40.331745,77.905155)"
               id="g348"><g
                 id="g350"><path
                   id="path352"
                   style="fill:none;stroke:#000000;stroke-width:0.31878999;stroke-linecap:round;stroke-linejoin:round;stroke-miterlimit:10;stroke-dasharray:none;stroke-opacity:1"
                   d="M -1.19551,1.59401 C -1.09587,0.99626 0,0.09961 0.29886,0 0,-0.09961 -1.09587,-0.99626 -1.19551,-1.59401" /></g></g></g><g
             id="g354"><path
               id="path356"
               style="fill:none;stroke:#000000;stroke-width:0.3985;stroke-linecap:butt;stroke-linejoin:miter;stroke-miterlimit:10;stroke-dasharray:none;stroke-opacity:1"
               d="m -41.48448,44.57167 h 25.25079 v -6.99826" /><g
               transform="rotate(-90,10.66986,26.90355)"
               id="g358"><g
                 id="g360"><path
                   id="path362"
                   style="fill:none;stroke:#000000;stroke-width:0.31878999;stroke-linecap:round;stroke-linejoin:round;stroke-miterlimit:10;stroke-dasharray:none;stroke-opacity:1"
                   d="M -1.19551,1.59401 C -1.09587,0.99626 0,0.09961 0.29886,0 0,-0.09961 -1.09587,-0.99626 -1.19551,-1.59401" /></g></g></g><g
             id="g364"><g
               id="g366"><g
                 id="g368" /></g></g><g
             id="g370"><g
               id="g372"><path
                 id="path374"
                 style="fill:#d9d9d9;fill-opacity:1;fill-rule:nonzero;stroke:none"
                 d="M 135.31305,51.42284 H 15.72258 c -2.20094,0 -3.98511,-1.78417 -3.98511,-3.98511 v -77.07021 c 0,-2.20094 1.78417,-3.9851 3.98511,-3.9851 h 119.59047 c 2.20094,0 3.98511,1.78416 3.98511,3.9851 v 77.07021 c 0,2.20094 -1.78417,3.98511 -3.98511,3.98511 z" /></g><g
               transform="translate(71.997,8.903)"
               id="g376"><g
                 transform="translate(3.52)"
                 id="g378"><g
                   transform="translate(-3.52)"
                   id="g380" /></g><g
                 transform="translate(-71.997,-8.903)"
                 id="g382" /></g></g><g
             id="g384"><g
               transform="translate(53.641,-23.194)"
               id="g386"><g
                 id="g388"><g
                   transform="translate(-223.811,-98.075)"
                   id="g390"><text
                     id="text394"
                     style="font-variant:normal;font-weight:normal;font-size:9.96259975px;font-family:CMR10;-inkscape-font-specification:CMR10;writing-mode:lr-tb;fill:#000000;fill-opacity:1;fill-rule:nonzero;stroke:none"
                     transform="matrix(1,0,0,-1,223.811,98.075)"><tspan
                       id="tspan392"
                       y="0"
                       x="0 7.4719501 11.3743 16.632561 22.167782 24.935392 27.703001 30.470612 33.238224 38.219521">Arquillian</tspan></text>
<g
                     transform="translate(223.811,98.075)"
                     id="g396" /></g></g><g
                 transform="translate(-53.641,23.194)"
                 id="g398" /></g></g><g
             id="g400"><g
               id="g402"><path
                 id="path404"
                 style="fill:#339999;fill-opacity:1;fill-rule:nonzero;stroke:none"
                 d="M 128.22633,23.07602 H 22.80928 c -2.20094,0 -3.98511,-1.78417 -3.98511,-3.98511 V -1.28566 c 0,-2.20094 1.78417,-3.98511 3.98511,-3.98511 h 105.41705 c 2.20095,0 3.98511,1.78417 3.98511,3.98511 v 20.37657 c 0,2.20094 -1.78416,3.98511 -3.98511,3.98511 z" /></g><g
               transform="translate(47.303,5.499)"
               id="g406"><g
                 id="g408"><g
                   transform="translate(-217.473,-126.768)"
                   id="g410"><text
                     id="text414"
                     style="font-variant:normal;font-weight:normal;font-size:9.96259975px;font-family:CMR10;-inkscape-font-specification:CMR10;writing-mode:lr-tb;fill:#000000;fill-opacity:1;fill-rule:nonzero;stroke:none"
                     transform="matrix(1,0,0,-1,217.473,126.768)"><tspan
                       id="tspan412"
                       y="0"
                       x="0 7.1949897 13.975535 17.29607 23.664164 28.091543 32.020794 35.895248 39.824497 45.359718 48.127327 52.001781">CE-Testsuite</tspan></text>
<g
                     transform="translate(217.473,126.768)"
                     id="g416" /></g></g><g
                 transform="translate(-47.303,-5.499)"
                 id="g418" /></g></g><g
             id="g420"><g
               id="g422"><path
                 id="path424"
                 style="fill:#003366;fill-opacity:1;fill-rule:nonzero;stroke:none"
                 d="m 151.9224,-64.57735 h -303.8448 c -2.20094,0 -3.9851,-1.78416 -3.9851,-3.9851 v -20.37658 c 0,-2.20094 1.78416,-3.9851 3.9851,-3.9851 h 303.8448 c 2.20094,0 3.9851,1.78416 3.9851,3.9851 v 20.37658 c 0,2.20094 -1.78416,3.9851 -3.9851,3.9851 z" /></g><g
               transform="translate(-14.404,-82.209)"
               id="g426"><g
                 id="g428"><g
                   transform="translate(-155.766,-39.06)"
                   id="g430"><text
                     id="text434"
                     style="font-variant:normal;font-weight:normal;font-size:9.96259975px;font-family:CMR10;-inkscape-font-specification:CMR10;writing-mode:lr-tb;fill:#ffffff;fill-opacity:1;fill-rule:nonzero;stroke:none"
                     transform="matrix(1,0,0,-1,155.766,39.06)"><tspan
                       id="tspan432"
                       y="0"
                       x="0 7.7489104 12.17629 16.07864 21.613861 26.041241">Kernel</tspan></text>
<g
                     transform="translate(155.766,39.06)"
                     id="g436" /></g></g><g
                 transform="translate(14.404,82.209)"
                 id="g438" /></g></g><g
             id="g440"><g
               id="g442"><path
                 id="path444"
                 style="fill:#000033;fill-opacity:1;fill-rule:nonzero;stroke:none"
                 d="m 151.9224,-92.92415 h -303.8448 c -2.20094,0 -3.9851,-1.78416 -3.9851,-3.98511 v -20.37658 c 0,-2.20095 1.78416,-3.98511 3.9851,-3.98511 h 303.8448 c 2.20094,0 3.9851,1.78416 3.9851,3.98511 v 20.37658 c 0,2.20095 -1.78416,3.98511 -3.9851,3.98511 z" /></g><g
               transform="translate(-21.06,-110.555)"
               id="g446"><g
                 id="g448"><g
                   transform="translate(-149.11,-10.714)"
                   id="g450"><text
                     id="text454"
                     style="font-variant:normal;font-weight:normal;font-size:9.96259975px;font-family:CMR10;-inkscape-font-specification:CMR10;writing-mode:lr-tb;fill:#ffffff;fill-opacity:1;fill-rule:nonzero;stroke:none"
                     transform="matrix(1,0,0,-1,149.11,10.714)"><tspan
                       id="tspan452"
                       y="0"
                       x="0 7.4719501 12.45325 16.3556 21.890821 28.806858 33.788158 37.69051">Hardware</tspan></text>
<g
                     transform="translate(149.11,10.714)"
                     id="g456" /></g></g><g
                 transform="translate(21.06,110.555)"
                 id="g458" /></g></g><g
             id="g460"><g
               transform="rotate(90,-50.7655,-109.1655)"
               id="g462"><g
                 id="g464"><g
                   transform="translate(-10.239,-62.869)"
                   id="g466"><text
                     id="text470"
                     style="font-variant:normal;font-weight:normal;font-size:9.96259975px;font-family:CMR10;-inkscape-font-specification:CMR10;writing-mode:lr-tb;fill:#000000;fill-opacity:1;fill-rule:nonzero;stroke:none"
                     transform="matrix(1,0,0,-1,10.239,62.869)"><tspan
                       id="tspan468"
                       y="0"
                       x="0 7.4719501 12.45325 16.3825 23.574501 32.707214 37.688515 41.846905 47.382126 50.149734 55.684956">HostMachine</tspan></text>
<g
                     transform="translate(10.239,62.869)"
                     id="g472" /></g></g><g
                 transform="translate(159.931,58.4)"
                 id="g474" /></g></g><g
             id="g476"><g
               id="g478"><path
                 id="path480"
                 style="fill:none;stroke:#000000;stroke-width:0.79701;stroke-linecap:butt;stroke-linejoin:miter;stroke-miterlimit:10;stroke-dasharray:none;stroke-opacity:1"
                 d="m -163.3927,5.2274 v 51.66295 h 6.37933" /><g
                 transform="translate(-157.01337,56.89035)"
                 id="g482"><g
                   id="g484"><path
                     id="path486"
                     style="fill:none;stroke:#000000;stroke-width:0.6376;stroke-linecap:round;stroke-linejoin:round;stroke-miterlimit:10;stroke-dasharray:none;stroke-opacity:1"
                     d="M -1.55415,2.0722 C -1.42464,1.29512 0,0.1295 0.38852,0 0,-0.1295 -1.42464,-1.29512 -1.55415,-2.0722" /></g></g></g><g
               id="g488"><path
                 id="path490"
                 style="fill:none;stroke:#000000;stroke-width:0.79701;stroke-linecap:butt;stroke-linejoin:miter;stroke-miterlimit:10;stroke-dasharray:none;stroke-opacity:1"
                 d="m -163.3927,-61.92102 v -45.17653 h 6.37933" /><g
                 transform="translate(-157.01337,-107.09755)"
                 id="g492"><g
                   id="g494"><path
                     id="path496"
                     style="fill:none;stroke:#000000;stroke-width:0.6376;stroke-linecap:round;stroke-linejoin:round;stroke-miterlimit:10;stroke-dasharray:none;stroke-opacity:1"
                     d="M -1.55415,2.0722 C -1.42464,1.29512 0,0.1295 0.38852,0 0,-0.1295 -1.42464,-1.29512 -1.55415,-2.0722" /></g></g></g></g><g
             id="g498"><g
               transform="rotate(90,95.8685,67.5225)"
               id="g500"><g
                 id="g502" /><g
                 transform="translate(-163.391,28.346)"
                 id="g504" /></g></g><g
             id="g506"><g
               transform="rotate(-90,88.711,-54.611)"
               id="g508"><g
                 id="g510"><g
                   transform="translate(-313.492,-155.369)"
                   id="g512"><text
                     id="text516"
                     style="font-variant:normal;font-weight:normal;font-size:9.96259975px;font-family:CMR10;-inkscape-font-specification:CMR10;writing-mode:lr-tb;fill:#ffffff;fill-opacity:1;fill-rule:nonzero;stroke:none"
                     transform="matrix(1,0,0,-1,313.492,155.369)"><tspan
                       id="tspan514"
                       y="0"
                       x="0 9.1327152 11.900326 17.435547 22.970766 25.738377 30.165756 37.081795 42.063095 45.965443">Middleware</tspan></text>
<g
                     transform="translate(313.492,155.369)"
                     id="g518" /></g></g><g
                 transform="translate(-143.322,-34.1)"
                 id="g520" /></g></g><g
             id="g522"><g
               id="g524"><path
                 id="path526"
                 style="fill:none;stroke:#000000;stroke-width:0.79701;stroke-linecap:butt;stroke-linejoin:miter;stroke-miterlimit:10;stroke-dasharray:none;stroke-opacity:1"
                 d="m 146.78336,37.61998 v 8.33804 h -6.37934" /><g
                 transform="rotate(180,70.20201,22.97901)"
                 id="g528"><g
                   id="g530"><path
                     id="path532"
                     style="fill:none;stroke:#000000;stroke-width:0.6376;stroke-linecap:round;stroke-linejoin:round;stroke-miterlimit:10;stroke-dasharray:none;stroke-opacity:1"
                     d="M -1.55415,2.0722 C -1.42464,1.29512 0,0.1295 0.38852,0 0,-0.1295 -1.42464,-1.29512 -1.55415,-2.0722" /></g></g></g><g
               id="g534"><path
                 id="path536"
                 style="fill:none;stroke:#000000;stroke-width:0.79701;stroke-linecap:butt;stroke-linejoin:miter;stroke-miterlimit:10;stroke-dasharray:none;stroke-opacity:1"
                 d="m 146.78336,-19.81473 v -8.33804 h -6.37934" /><g
                 transform="rotate(180,70.20201,-14.076385)"
                 id="g538"><g
                   id="g540"><path
                     id="path542"
                     style="fill:none;stroke:#000000;stroke-width:0.6376;stroke-linecap:round;stroke-linejoin:round;stroke-miterlimit:10;stroke-dasharray:none;stroke-opacity:1"
                     d="M -1.55415,2.0722 C -1.42464,1.29512 0,0.1295 0.38852,0 0,-0.1295 -1.42464,-1.29512 -1.55415,-2.0722" /></g></g></g></g></g></g></g></g></svg>