<?xml version="1.0" encoding="UTF-8" standalone="no"?>
<svg
   xmlns:dc="http://purl.org/dc/elements/1.1/"
   xmlns:cc="http://creativecommons.org/ns#"
   xmlns:rdf="http://www.w3.org/1999/02/22-rdf-syntax-ns#"
   xmlns:svg="http://www.w3.org/2000/svg"
   xmlns="http://www.w3.org/2000/svg"
   viewBox="0 0 480.87466 238.81467"
   height="238.81467"
   width="480.87466"
   xml:space="preserve"
   id="svg2"
   version="1.1"><metadata
     id="metadata8"><rdf:RDF><cc:Work
         rdf:about=""><dc:format>image/svg+xml</dc:format><dc:type
           rdf:resource="http://purl.org/dc/dcmitype/StillImage" /></cc:Work></rdf:RDF></metadata><defs
     id="defs6" /><g
     transform="matrix(1.3333333,0,0,-1.3333333,0,238.81467)"
     id="g10"><g
       transform="translate(186.858,118.699)"
       id="g12"><g
         id="g14"><g
           id="g16" /><g
           id="g18"><g
             id="g20"><g
               id="g22"><path
                 id="path24"
                 style="fill:#006699;fill-opacity:1;fill-rule:nonzero;stroke:none"
                 d="m 166.09581,56.69363 h -332.19162 c -2.20094,0 -3.98511,-1.78416 -3.98511,-3.9851 V -52.70853 c 0,-2.20094 1.78417,-3.9851 3.98511,-3.9851 h 332.19162 c 2.20094,0 3.98511,1.78416 3.98511,3.9851 V 52.70853 c 0,2.20094 -1.78417,3.9851 -3.98511,3.9851 z" /></g><g
               id="g26"><g
                 id="g28" /></g></g><g
             id="g30"><g
               transform="translate(-21.516,-51.829)"
               id="g32"><g
                 id="g34"><g
                   transform="translate(-165.342,-66.87)"
                   id="g36"><text
                     id="text40"
                     style="font-variant:normal;font-weight:normal;font-size:9.96259975px;font-family:CMR10;-inkscape-font-specification:CMR10;writing-mode:lr-tb;fill:#ffffff;fill-opacity:1;fill-rule:nonzero;stroke:none"
                     transform="matrix(1,0,0,-1,165.342,66.87)"><tspan
                       id="tspan38"
                       y="0"
                       x="0 7.4719501 11.401199 15.828579 19.730928 23.660179 29.1954 34.176701 38.60408">Userspace</tspan></text>
<g
                     transform="translate(165.342,66.87)"
                     id="g42" /></g></g><g
                 transform="translate(21.516,51.829)"
                 id="g44" /></g></g><g
             id="g46"><g
               id="g48"><path
                 id="path50"
                 style="fill:#003366;fill-opacity:1;fill-rule:nonzero;stroke:none"
                 d="m 166.09581,-57.49063 h -332.19162 c -2.20094,0 -3.98511,-1.78417 -3.98511,-3.98511 v -20.37659 c 0,-2.20094 1.78417,-3.9851 3.98511,-3.9851 h 332.19162 c 2.20094,0 3.98511,1.78416 3.98511,3.9851 v 20.37659 c 0,2.20094 -1.78417,3.98511 -3.98511,3.98511 z" /></g><g
               transform="translate(-14.404,-75.123)"
               id="g52"><g
                 id="g54"><g
                   transform="translate(-172.454,-43.576)"
                   id="g56"><text
                     id="text60"
                     style="font-variant:normal;font-weight:normal;font-size:9.96259975px;font-family:CMR10;-inkscape-font-specification:CMR10;writing-mode:lr-tb;fill:#ffffff;fill-opacity:1;fill-rule:nonzero;stroke:none"
                     transform="matrix(1,0,0,-1,172.454,43.576)"><tspan
                       id="tspan58"
                       y="0"
                       x="0 7.7489104 12.17629 16.07864 21.613861 26.041241">Kernel</tspan></text>
<g
                     transform="translate(172.454,43.576)"
                     id="g62" /></g></g><g
                 transform="translate(14.404,75.123)"
                 id="g64" /></g></g><g
             id="g66"><g
               id="g68"><path
                 id="path70"
                 style="fill:#000033;fill-opacity:1;fill-rule:nonzero;stroke:none"
                 d="m 166.09581,-86.63445 h -332.19162 c -2.20094,0 -3.98511,-1.78416 -3.98511,-3.9851 v -20.37657 c 0,-2.20095 1.78417,-3.98511 3.98511,-3.98511 h 332.19162 c 2.20094,0 3.98511,1.78416 3.98511,3.98511 v 20.37657 c 0,2.20094 -1.78417,3.9851 -3.98511,3.9851 z" /></g><g
               transform="translate(-21.06,-104.266)"
               id="g72"><g
                 id="g74"><g
                   transform="translate(-165.798,-14.433)"
                   id="g76"><text
                     id="text80"
                     style="font-variant:normal;font-weight:normal;font-size:9.96259975px;font-family:CMR10;-inkscape-font-specification:CMR10;writing-mode:lr-tb;fill:#ffffff;fill-opacity:1;fill-rule:nonzero;stroke:none"
                     transform="matrix(1,0,0,-1,165.798,14.433)"><tspan
                       id="tspan78"
                       y="0"
                       x="0 7.4719501 12.45325 16.3556 21.890821 28.806858 33.788158 37.69051">Hardware</tspan></text>
<g
                     transform="translate(165.798,14.433)"
                     id="g82" /></g></g><g
                 transform="translate(21.06,104.266)"
                 id="g84" /></g></g><g
             id="g86"><g
               id="g88"><path
                 id="path90"
                 style="fill:#808080;fill-opacity:1;fill-rule:nonzero;stroke:none"
                 d="m -11.47029,42.52022 h -133.76389 c -2.20094,0 -3.9851,-1.78417 -3.9851,-3.98511 v -77.07022 c 0,-2.20094 1.78416,-3.98511 3.9851,-3.98511 h 133.76389 c 2.20094,0 3.98511,1.78417 3.98511,3.98511 v 77.07022 c 0,2.20094 -1.78417,3.98511 -3.98511,3.98511 z" /></g><g
               transform="translate(-78.351)"
               id="g92"><g
                 id="g94" /><g
                 transform="translate(78.351)"
                 id="g96" /></g></g><g
             id="g98"><g
               transform="translate(-100.49,-37.766)"
               id="g100"><g
                 id="g102"><g
                   transform="translate(-86.368,-80.933)"
                   id="g104"><text
                     id="text108"
                     style="font-variant:normal;font-weight:normal;font-size:9.96259975px;font-family:CMR10;-inkscape-font-specification:CMR10;writing-mode:lr-tb;fill:#ffffff;fill-opacity:1;fill-rule:nonzero;stroke:none"
                     transform="matrix(1,0,0,-1,86.368,80.933)"><tspan
                       id="tspan106"
                       y="0"
                       x="0 7.7489104 13.563084 17.990463 23.525684 29.060904 34.596127 37.363735 40.408306">OpenShift</tspan></text>
<g
                     transform="translate(86.368,80.933)"
                     id="g110" /></g></g><g
                 transform="translate(100.49,37.766)"
                 id="g112" /></g></g><g
             id="g114"><g
               id="g116"><path
                 id="path118"
                 style="fill:#d9d9d9;fill-opacity:1;fill-rule:nonzero;stroke:none"
                 d="M 145.23418,42.52022 H 11.47029 c -2.20094,0 -3.98511,-1.78417 -3.98511,-3.98511 v -77.07022 c 0,-2.20094 1.78417,-3.98511 3.98511,-3.98511 h 133.76389 c 2.20094,0 3.9851,1.78417 3.9851,3.98511 v 77.07022 c 0,2.20094 -1.78416,3.98511 -3.9851,3.98511 z" /></g><g
               transform="translate(78.351)"
               id="g120"><g
                 id="g122" /><g
                 transform="translate(-78.351)"
                 id="g124" /></g></g><g
             id="g126"><g
               transform="translate(56.475,-37.766)"
               id="g128"><g
                 id="g130"><g
                   transform="translate(-243.333,-80.933)"
                   id="g132"><text
                     id="text136"
                     style="font-variant:normal;font-weight:normal;font-size:9.96259975px;font-family:CMR10;-inkscape-font-specification:CMR10;writing-mode:lr-tb;fill:#000000;fill-opacity:1;fill-rule:nonzero;stroke:none"
                     transform="matrix(1,0,0,-1,243.333,80.933)"><tspan
                       id="tspan134"
                       y="0"
                       x="0 7.4719501 11.3743 16.632561 22.167782 24.935392 27.703001 30.470612 33.238224 38.219521">Arquillian</tspan></text>
<g
                     transform="translate(243.333,80.933)"
                     id="g138" /></g></g><g
                 transform="translate(-56.475,37.766)"
                 id="g140" /></g></g><g
             id="g142"><g
               id="g144"><path
                 id="path146"
                 style="fill:#003333;fill-opacity:1;fill-rule:nonzero;stroke:none"
                 d="M 116.88734,0.16853 H 39.81712 c -2.20094,0 -3.9851,-1.78415 -3.9851,-3.98509 v -20.37657 c 0,-2.20094 1.78416,-3.98511 3.9851,-3.98511 h 77.07022 c 2.20095,0 3.98511,1.78417 3.98511,3.98511 v 20.37657 c 0,2.20094 -1.78416,3.98509 -3.98511,3.98509 z" /></g><g
               transform="translate(65.192,-15.181)"
               id="g148"><g
                 id="g150"><g
                   transform="translate(-252.05,-103.518)"
                   id="g152"><text
                     id="text156"
                     style="font-variant:normal;font-weight:normal;font-size:9.96259975px;font-family:CMR10;-inkscape-font-specification:CMR10;writing-mode:lr-tb;fill:#ffffff;fill-opacity:1;fill-rule:nonzero;stroke:none"
                     transform="matrix(1,0,0,-1,252.05,103.518)"><tspan
                       id="tspan154"
                       y="0"
                       x="0 4.4273796 8.8547592 12.175294 17.156593 21.058945">ce-arq</tspan></text>
<g
                     transform="translate(252.05,103.518)"
                     id="g158" /></g></g><g
                 transform="translate(-65.192,15.181)"
                 id="g160" /></g></g><g
             id="g162"><g
               id="g164"><path
                 id="path166"
                 style="fill:#339999;fill-opacity:1;fill-rule:nonzero;stroke:none"
                 d="M 116.88734,30.44603 H 39.81712 c -2.20094,0 -3.9851,-1.78416 -3.9851,-3.98511 V 6.08434 c 0,-2.20095 1.78416,-3.98511 3.9851,-3.98511 h 77.07022 c 2.20095,0 3.98511,1.78416 3.98511,3.98511 v 20.37658 c 0,2.20095 -1.78416,3.98511 -3.98511,3.98511 z" /></g><g
               transform="translate(53.943,12.945)"
               id="g168"><g
                 id="g170"><g
                   transform="translate(-240.801,-131.644)"
                   id="g172"><text
                     id="text176"
                     style="font-variant:normal;font-weight:normal;font-size:9.96259975px;font-family:CMR10;-inkscape-font-specification:CMR10;writing-mode:lr-tb;fill:#ffffff;fill-opacity:1;fill-rule:nonzero;stroke:none"
                     transform="matrix(1,0,0,-1,240.801,131.644)"><tspan
                       id="tspan174"
                       y="0"
                       x="0 4.4273796 8.8547592 12.175294 16.049749 20.477129 24.406378 28.280832 32.210083 37.745304 40.512913 44.387367">ce-testsuite</tspan></text>
<g
                     transform="translate(240.801,131.644)"
                     id="g178" /></g></g><g
                 transform="translate(-53.943,-12.945)"
                 id="g180" /></g></g><g
             id="g182"><g
               transform="translate(-170.477,-29.144)"
               id="g184"><g
                 transform="translate(170.477)"
                 id="g186"><g
                   transform="translate(-170.477)"
                   id="g188" /></g><g
                 transform="translate(170.477,29.144)"
                 id="g190" /></g></g><g
             id="g192"><g
               transform="rotate(90,-51.684,-124.935)"
               id="g194"><g
                 id="g196"><g
                   transform="translate(-10.239,-45.448)"
                   id="g198"><text
                     id="text202"
                     style="font-variant:normal;font-weight:normal;font-size:9.96259975px;font-family:CMR10;-inkscape-font-specification:CMR10;writing-mode:lr-tb;fill:#000000;fill-opacity:1;fill-rule:nonzero;stroke:none"
                     transform="matrix(1,0,0,-1,10.239,45.448)"><tspan
                       id="tspan200"
                       y="0"
                       x="0 6.7805457 12.036814 17.295074 21.224323 23.991934 28.419313 33.400612 39.495731 48.618484 53.599785 57.758175 63.293392 66.061005 71.596222">PhysicalMachine</tspan></text>
<g
                     transform="translate(10.239,45.448)"
                     id="g204" /></g></g><g
                 transform="translate(176.619,73.251)"
                 id="g206" /></g></g><g
             id="g208"><g
               id="g210"><path
                 id="path212"
                 style="fill:none;stroke:#000000;stroke-width:0.3985;stroke-linecap:butt;stroke-linejoin:miter;stroke-miterlimit:10;stroke-dasharray:none;stroke-opacity:1"
                 d="m -179.1121,-76.77151 v -38.60824 h 8.1744" /><g
                 transform="translate(-170.9377,-115.37975)"
                 id="g214"><g
                   id="g216"><path
                     id="path218"
                     style="fill:none;stroke:#000000;stroke-width:0.31878999;stroke-linecap:round;stroke-linejoin:round;stroke-miterlimit:10;stroke-dasharray:none;stroke-opacity:1"
                     d="M -1.19551,1.59401 C -1.09587,0.99626 0,0.09961 0.29886,0 0,-0.09961 -1.09587,-0.99626 -1.19551,-1.59401" /></g></g></g><g
               id="g220"><path
                 id="path222"
                 style="fill:none;stroke:#000000;stroke-width:0.3985;stroke-linecap:butt;stroke-linejoin:miter;stroke-miterlimit:10;stroke-dasharray:none;stroke-opacity:1"
                 d="m -179.1121,6.2897 v 50.80243 h 8.1744" /><g
                 transform="translate(-170.9377,57.09213)"
                 id="g224"><g
                   id="g226"><path
                     id="path228"
                     style="fill:none;stroke:#000000;stroke-width:0.31878999;stroke-linecap:round;stroke-linejoin:round;stroke-miterlimit:10;stroke-dasharray:none;stroke-opacity:1"
                     d="M -1.19551,1.59401 C -1.09587,0.99626 0,0.09961 0.29886,0 0,-0.09961 -1.09587,-0.99626 -1.19551,-1.59401" /></g></g></g></g><g
             id="g230"><g
               transform="rotate(-90,88.981,-64.155)"
               id="g232"><g
                 id="g234"><g
                   transform="translate(-339.994,-143.525)"
                   id="g236"><text
                     id="text240"
                     style="font-variant:normal;font-weight:normal;font-size:9.96259975px;font-family:CMR10;-inkscape-font-specification:CMR10;writing-mode:lr-tb;fill:#ffffff;fill-opacity:1;fill-rule:nonzero;stroke:none"
                     transform="matrix(1,0,0,-1,339.994,143.525)"><tspan
                       id="tspan238"
                       y="0"
                       x="0 9.1327152 11.900326 17.435547 22.970766 25.738377 30.165756 37.081795 42.063095 45.965443">Middleware</tspan></text>
<g
                     transform="translate(339.994,143.525)"
                     id="g242" /></g></g><g
                 transform="translate(-153.136,-24.826)"
                 id="g244" /></g></g><g
             id="g246"><g
               id="g248"><path
                 id="path250"
                 style="fill:none;stroke:#000000;stroke-width:0.3985;stroke-linecap:butt;stroke-linejoin:miter;stroke-miterlimit:10;stroke-dasharray:none;stroke-opacity:1"
                 d="m 156.5969,28.3468 v 14.57192 h -6.52083" /><g
                 transform="rotate(180,75.038035,21.45936)"
                 id="g252"><g
                   id="g254"><path
                     id="path256"
                     style="fill:none;stroke:#000000;stroke-width:0.31878999;stroke-linecap:round;stroke-linejoin:round;stroke-miterlimit:10;stroke-dasharray:none;stroke-opacity:1"
                     d="M -1.19551,1.59401 C -1.09587,0.99626 0,0.09961 0.29886,0 0,-0.09961 -1.09587,-0.99626 -1.19551,-1.59401" /></g></g></g><g
               id="g258"><path
                 id="path260"
                 style="fill:none;stroke:#000000;stroke-width:0.3985;stroke-linecap:butt;stroke-linejoin:miter;stroke-miterlimit:10;stroke-dasharray:none;stroke-opacity:1"
                 d="m 156.5969,-29.0879 v -13.83082 h -6.52083" /><g
                 transform="rotate(180,75.038035,-21.45936)"
                 id="g262"><g
                   id="g264"><path
                     id="path266"
                     style="fill:none;stroke:#000000;stroke-width:0.31878999;stroke-linecap:round;stroke-linejoin:round;stroke-miterlimit:10;stroke-dasharray:none;stroke-opacity:1"
                     d="M -1.19551,1.59401 C -1.09587,0.99626 0,0.09961 0.29886,0 0,-0.09961 -1.09587,-0.99626 -1.19551,-1.59401" /></g></g></g></g><g
             id="g268"><g
               transform="translate(-124.391,-10.654)"
               id="g270"><g
                 id="g272" /><g
                 transform="translate(124.391,10.654)"
                 id="g274" /></g></g><g
             id="g276"><g
               transform="translate(-117.351,-10.654)"
               id="g278"><g
                 id="g280" /><g
                 transform="translate(117.351,10.654)"
                 id="g282" /></g></g><g
             id="g284"><g
               id="g286"><path
                 id="path288"
                 style="fill:#ecb3c6;fill-opacity:1;fill-rule:nonzero;stroke:#000000;stroke-width:0.3985;stroke-linecap:butt;stroke-linejoin:miter;stroke-miterlimit:10;stroke-dasharray:none;stroke-opacity:1"
                 d="m -103.4453,7.23888 h -6.20315 c -2.20095,0 -3.98511,-1.78417 -3.98511,-3.98511 v -6.20316 c 0,-2.20094 1.78416,-3.98511 3.98511,-3.98511 h 6.20315 c 2.20095,0 3.98511,1.78417 3.98511,3.98511 v 6.20316 c 0,2.20094 -1.78416,3.98511 -3.98511,3.98511 z" /></g><g
               transform="translate(-106.545,0.152)"
               id="g290"><g
                 id="g292" /><g
                 transform="translate(106.545,-0.152)"
                 id="g294" /></g></g><g
             id="g296"><g
               id="g298"><path
                 id="path300"
                 style="fill:#ecb3c6;fill-opacity:1;fill-rule:nonzero;stroke:#000000;stroke-width:0.3985;stroke-linecap:butt;stroke-linejoin:miter;stroke-miterlimit:10;stroke-dasharray:none;stroke-opacity:1"
                 d="m -89.2719,7.23888 h -6.20317 c -2.20093,0 -3.9851,-1.78417 -3.9851,-3.98511 v -6.20316 c 0,-2.20094 1.78417,-3.98511 3.9851,-3.98511 h 6.20317 c 2.20095,0 3.98511,1.78417 3.98511,3.98511 v 6.20316 c 0,2.20094 -1.78416,3.98511 -3.98511,3.98511 z" /></g><g
               transform="translate(-92.372,0.152)"
               id="g302"><g
                 id="g304" /><g
                 transform="translate(92.372,-0.152)"
                 id="g306" /></g></g><g
             id="g308"><g
               id="g310"><path
                 id="path312"
                 style="fill:#00b394;fill-opacity:0.4;fill-rule:nonzero;stroke:none"
                 d="m -78.965,0.15218 c 0,11.31932 -9.17587,20.49519 -20.49519,20.49519 -11.31931,0 -20.49518,-9.17587 -20.49518,-20.49519 0,-11.31931 9.17587,-20.49517 20.49518,-20.49517 11.31932,0 20.49519,9.17586 20.49519,20.49517 z" /></g><g
               transform="translate(-113.831,0.152)"
               id="g314"><g
                 transform="translate(14.372)"
                 id="g316"><g
                   transform="translate(-14.372)"
                   id="g318" /></g><g
                 transform="translate(113.831,-0.152)"
                 id="g320" /></g></g><g
             id="g322"><g
               transform="translate(-74.831,-10.654)"
               id="g324"><g
                 id="g326" /><g
                 transform="translate(74.831,10.654)"
                 id="g328" /></g></g><g
             id="g330"><g
               id="g332"><path
                 id="path334"
                 style="fill:#ecb3c6;fill-opacity:1;fill-rule:nonzero;stroke:#000000;stroke-width:0.3985;stroke-linecap:butt;stroke-linejoin:miter;stroke-miterlimit:10;stroke-dasharray:none;stroke-opacity:1"
                 d="m -60.92506,7.23888 h -6.20317 c -2.20095,0 -3.98511,-1.78417 -3.98511,-3.98511 v -6.20316 c 0,-2.20094 1.78416,-3.98511 3.98511,-3.98511 h 6.20317 c 2.20094,0 3.9851,1.78417 3.9851,3.98511 v 6.20316 c 0,2.20094 -1.78416,3.98511 -3.9851,3.98511 z" /></g><g
               transform="translate(-64.026,0.152)"
               id="g336"><g
                 id="g338" /><g
                 transform="translate(64.026,-0.152)"
                 id="g340" /></g></g><g
             id="g342"><g
               id="g344"><path
                 id="path346"
                 style="fill:#ecb3c6;fill-opacity:1;fill-rule:nonzero;stroke:#000000;stroke-width:0.3985;stroke-linecap:butt;stroke-linejoin:miter;stroke-miterlimit:10;stroke-dasharray:none;stroke-opacity:1"
                 d="m -46.75166,7.23888 h -6.20317 c -2.20095,0 -3.98511,-1.78417 -3.98511,-3.98511 v -6.20316 c 0,-2.20094 1.78416,-3.98511 3.98511,-3.98511 h 6.20317 c 2.20094,0 3.9851,1.78417 3.9851,3.98511 v 6.20316 c 0,2.20094 -1.78416,3.98511 -3.9851,3.98511 z" /></g><g
               transform="translate(-49.853,0.152)"
               id="g348"><g
                 id="g350" /><g
                 transform="translate(49.853,-0.152)"
                 id="g352" /></g></g><g
             id="g354"><g
               id="g356"><path
                 id="path358"
                 style="fill:#00b30c;fill-opacity:0.4;fill-rule:nonzero;stroke:none"
                 d="m -36.44478,0.15218 c 0,11.31932 -9.17586,20.49519 -20.49518,20.49519 -11.31932,0 -20.49519,-9.17587 -20.49519,-20.49519 0,-11.31931 9.17587,-20.49517 20.49519,-20.49517 11.31932,0 20.49518,9.17586 20.49518,20.49517 z" /></g><g
               transform="translate(-71.312,0.152)"
               id="g360"><g
                 transform="translate(14.373)"
                 id="g362"><g
                   transform="translate(-14.373)"
                   id="g364" /></g><g
                 transform="translate(71.312,-0.152)"
                 id="g366" /></g></g><g
             id="g368"><g
               id="g370"><path
                 id="path372"
                 style="fill:none;stroke:#000000;stroke-width:0.79701;stroke-linecap:butt;stroke-linejoin:miter;stroke-miterlimit:10;stroke-dasharray:0.79701, 1.99255;stroke-dashoffset:0;stroke-opacity:1"
                 d="m -123.67444,-24.06206 h 90.94872 v 48.42851 h -90.94872 z" /></g><g
               transform="translate(-120.352,0.152)"
               id="g374"><g
                 transform="translate(42.153)"
                 id="g376"><g
                   transform="translate(-42.153)"
                   id="g378" /></g><g
                 transform="translate(120.352,-0.152)"
                 id="g380" /></g></g><g
             id="g382"><g
               transform="translate(-90.967,29.64)"
               id="g384"><g
                 id="g386"><g
                   transform="translate(-95.891,-148.339)"
                   id="g388"><text
                     id="text392"
                     style="font-variant:normal;font-weight:normal;font-size:6.97380018px;font-family:CMR7;-inkscape-font-specification:CMR7;writing-mode:lr-tb;fill:#ffffff;fill-opacity:1;fill-rule:nonzero;stroke:none"
                     transform="matrix(1,0,0,-1,95.891,148.339)"><tspan
                       id="tspan390"
                       y="0"
                       x="0 5.3551812 8.4682856 12.865266 15.335386 18.877378 22.419373">Project</tspan></text>
<g
                     transform="translate(95.891,148.339)"
                     id="g394" /></g></g><g
                 transform="translate(90.967,-29.64)"
                 id="g396" /></g></g><g
             id="g398"><g
               transform="rotate(-90,-10.107,18.7)"
               id="g400"><g
                 id="g402"><g
                   transform="translate(-158.051,-127.292)"
                   id="g404"><text
                     id="text408"
                     style="font-variant:normal;font-weight:normal;font-size:6.97380018px;font-family:CMR7;-inkscape-font-specification:CMR7;writing-mode:lr-tb;fill:#ffffff;fill-opacity:1;fill-rule:nonzero;stroke:none"
                     transform="matrix(1,0,0,-1,158.051,127.292)"><tspan
                       id="tspan406"
                       y="0"
                       x="0 5.1389933 9.3267603 13.727228">Pods</tspan></text>
<g
                     transform="translate(158.051,127.292)"
                     id="g410" /></g></g><g
                 transform="translate(28.807,-8.593)"
                 id="g412" /></g></g></g></g></g></g></svg>