<?xml version="1.0" encoding="UTF-8" standalone="no"?>
<svg
   xmlns:dc="http://purl.org/dc/elements/1.1/"
   xmlns:cc="http://creativecommons.org/ns#"
   xmlns:rdf="http://www.w3.org/1999/02/22-rdf-syntax-ns#"
   xmlns:svg="http://www.w3.org/2000/svg"
   xmlns="http://www.w3.org/2000/svg"
   viewBox="0 0 226.772 166.29868"
   height="166.29868"
   width="226.772"
   xml:space="preserve"
   id="svg2"
   version="1.1"><metadata
     id="metadata8"><rdf:RDF><cc:Work
         rdf:about=""><dc:format>image/svg+xml</dc:format><dc:type
           rdf:resource="http://purl.org/dc/dcmitype/StillImage" /></cc:Work></rdf:RDF></metadata><defs
     id="defs6" /><g
     transform="matrix(1.3333333,0,0,-1.3333333,0,166.29867)"
     id="g10"><g
       transform="translate(85.039,62.362)"
       id="g12"><g
         id="g14"><g
           id="g16" /><g
           id="g18"><g
             id="g20"><g
               id="g22"><path
                 id="path24"
                 style="fill:#b3d9d9;fill-opacity:1;fill-rule:nonzero;stroke:none"
                 d="m 56.69362,28.3468 c 0,15.65572 -12.6911,28.34682 -28.34682,28.34682 C 12.69109,56.69362 0,44.00252 0,28.3468 0,12.69109 12.69109,0 28.3468,0 44.00252,0 56.69362,12.69109 56.69362,28.3468 Z" /></g><g
               transform="translate(28.347,28.347)"
               id="g26"><g
                 id="g28" /><g
                 transform="translate(-28.347,-28.347)"
                 id="g30" /></g></g><g
             id="g32"><g
               id="g34"><path
                 id="path36"
                 style="fill:#b3d9d9;fill-opacity:1;fill-rule:nonzero;stroke:none"
                 d="M 28.3468,0 C 28.3468,15.6557 15.6557,28.3468 0,28.3468 -15.6557,28.3468 -28.3468,15.6557 -28.3468,0 c 0,-15.6557 12.6911,-28.3468 28.3468,-28.3468 15.6557,0 28.3468,12.6911 28.3468,28.3468 z" /></g><g
               id="g38"><g
                 id="g40" /></g></g><g
             id="g42"><g
               id="g44"><path
                 id="path46"
                 style="fill:#b3d9d9;fill-opacity:1;fill-rule:nonzero;stroke:none"
                 d="m 0,28.3468 c 0,15.65572 -12.69109,28.34682 -28.3468,28.34682 -15.65572,0 -28.34682,-12.6911 -28.34682,-28.34682 C -56.69362,12.69109 -44.00252,0 -28.3468,0 -12.69109,0 0,12.69109 0,28.3468 Z" /></g><g
               transform="translate(-28.346,28.347)"
               id="g48"><g
                 id="g50" /><g
                 transform="translate(28.346,-28.347)"
                 id="g52" /></g></g><g
             id="g54"><g
               id="g56"><path
                 id="path58"
                 style="fill:#b3d9d9;fill-opacity:1;fill-rule:nonzero;stroke:none"
                 d="m -28.3468,0 c 0,15.6557 -12.6911,28.3468 -28.34682,28.3468 -15.6557,0 -28.3468,-12.6911 -28.3468,-28.3468 0,-15.6557 12.6911,-28.3468 28.3468,-28.3468 15.65572,0 28.34682,12.6911 28.34682,28.3468 z" /></g><g
               transform="translate(-56.693)"
               id="g60"><g
                 id="g62" /><g
                 transform="translate(56.693)"
                 id="g64" /></g></g><g
             id="g66"><g
               id="g68"><path
                 id="path70"
                 style="fill:#b3d9d9;fill-opacity:1;fill-rule:nonzero;stroke:none"
                 d="m 85.04042,0 c 0,15.6557 -12.6911,28.3468 -28.3468,28.3468 C 41.0379,28.3468 28.3468,15.6557 28.3468,0 c 0,-15.6557 12.6911,-28.3468 28.34682,-28.3468 15.6557,0 28.3468,12.6911 28.3468,28.3468 z" /></g><g
               transform="translate(56.693)"
               id="g72"><g
                 id="g74" /><g
                 transform="translate(-56.693)"
                 id="g76" /></g></g><g
             id="g78"><g
               id="g80"><path
                 id="path82"
                 style="fill:#b3d9d9;fill-opacity:1;fill-rule:nonzero;stroke:none"
                 d="M 0,-28.3468 C 0,-12.69109 -12.69109,0 -28.3468,0 c -15.65572,0 -28.34682,-12.69109 -28.34682,-28.3468 0,-15.65572 12.6911,-28.34682 28.34682,-28.34682 15.65571,0 28.3468,12.6911 28.3468,28.34682 z" /></g><g
               transform="translate(-28.346,-28.346)"
               id="g84"><g
                 id="g86" /><g
                 transform="translate(28.346,28.346)"
                 id="g88" /></g></g><g
             id="g90"><g
               id="g92"><path
                 id="path94"
                 style="fill:#b3d9d9;fill-opacity:1;fill-rule:nonzero;stroke:none"
                 d="M 56.69362,-28.3468 C 56.69362,-12.69109 44.00252,0 28.3468,0 12.69109,0 0,-12.69109 0,-28.3468 c 0,-15.65572 12.69109,-28.34682 28.3468,-28.34682 15.65572,0 28.34682,12.6911 28.34682,28.34682 z" /></g><g
               transform="translate(28.347,-28.346)"
               id="g96"><g
                 id="g98" /><g
                 transform="translate(-28.347,28.346)"
                 id="g100" /></g></g><g
             id="g102"><g
               id="g104"><path
                 id="path106"
                 style="fill:#b3d9d9;fill-opacity:1;fill-rule:nonzero;stroke:none"
                 d="m 28.3468,34.01608 c 0,15.6557 -12.6911,28.3468 -28.3468,28.3468 -15.6557,0 -28.3468,-12.6911 -28.3468,-28.3468 0,-15.65571 12.6911,-28.34681 28.3468,-28.34681 15.6557,0 28.3468,12.6911 28.3468,28.34681 z" /></g><g
               transform="translate(0,34.016)"
               id="g108"><g
                 id="g110" /><g
                 transform="translate(0,-34.016)"
                 id="g112" /></g></g><g
             id="g114"><g
               id="g116"><path
                 id="path118"
                 style="fill:#b3d9d9;fill-opacity:1;fill-rule:nonzero;stroke:none"
                 d="m 28.3468,-34.01608 c 0,15.65571 -12.6911,28.34681 -28.3468,28.34681 -15.6557,0 -28.3468,-12.6911 -28.3468,-28.34681 0,-15.6557 12.6911,-28.3468 28.3468,-28.3468 15.6557,0 28.3468,12.6911 28.3468,28.3468 z" /></g><g
               transform="translate(0,-34.016)"
               id="g120"><g
                 id="g122" /><g
                 transform="translate(0,34.016)"
                 id="g124" /></g></g><g
             id="g126"><g
               id="g128"><path
                 id="path130"
                 style="fill:#808080;fill-opacity:1;fill-rule:nonzero;stroke:#808080;stroke-width:0.79701;stroke-linecap:butt;stroke-linejoin:miter;stroke-miterlimit:10;stroke-dasharray:none;stroke-opacity:1"
                 d="m -14.67152,25.51213 h 0.99628 v 5.66933 h -0.99628 z" /></g><g
               transform="translate(-14.173,28.347)"
               id="g132"><g
                 id="g134" /><g
                 transform="translate(14.173,-28.347)"
                 id="g136" /></g></g><g
             id="g138"><g
               transform="translate(-14.173)"
               id="g140"><g
                 id="g142" /><g
                 transform="translate(14.173)"
                 id="g144" /></g></g><g
             id="g146"><g
               id="g148"><path
                 id="path150"
                 style="fill:#808080;fill-opacity:1;fill-rule:nonzero;stroke:#808080;stroke-width:0.79701;stroke-linecap:butt;stroke-linejoin:miter;stroke-miterlimit:10;stroke-dasharray:none;stroke-opacity:1"
                 d="m -45.35487,-2.83466 h 5.66933 v 5.66933 h -5.66933 z" /></g><g
               transform="translate(-42.519)"
               id="g152"><g
                 id="g154" /><g
                 transform="translate(42.519)"
                 id="g156" /></g></g><g
             id="g158"><g
               id="g160"><path
                 id="path162"
                 style="fill:#808080;fill-opacity:1;fill-rule:nonzero;stroke:#808080;stroke-width:0.79701;stroke-linecap:butt;stroke-linejoin:miter;stroke-miterlimit:10;stroke-dasharray:none;stroke-opacity:1"
                 d="m -14.67152,-31.18147 h 0.99628 v 5.66933 h -0.99628 z" /></g><g
               transform="translate(-14.173,-28.346)"
               id="g164"><g
                 id="g166" /><g
                 transform="translate(14.173,28.346)"
                 id="g168" /></g></g><g
             id="g170"><path
               id="path172"
               style="fill:none;stroke:#bfbfbf;stroke-width:4.98137999;stroke-linecap:butt;stroke-linejoin:miter;stroke-miterlimit:10;stroke-dasharray:none;stroke-opacity:1"
               d="M -15.07004,28.3468 C -29.57083,28.99109 -41.87592,17.73396 -42.5202,3.23317" /></g><g
             id="g174"><path
               id="path176"
               style="fill:none;stroke:#bfbfbf;stroke-width:4.98137999;stroke-linecap:butt;stroke-linejoin:miter;stroke-miterlimit:10;stroke-dasharray:none;stroke-opacity:1"
               d="m -42.5202,-3.23317 c 0.64428,-14.50079 12.94937,-25.75792 27.45016,-25.11363" /></g><g
             id="g178"><g
               id="g180"><path
                 id="path182"
                 style="fill:#808080;fill-opacity:1;fill-rule:nonzero;stroke:#808080;stroke-width:0.79701;stroke-linecap:butt;stroke-linejoin:miter;stroke-miterlimit:10;stroke-dasharray:none;stroke-opacity:1"
                 d="m 11.33875,25.51213 h 5.66933 v 5.66933 h -5.66933 z" /></g><g
               transform="translate(14.173,28.347)"
               id="g184"><g
                 id="g186" /><g
                 transform="translate(-14.173,-28.347)"
                 id="g188" /></g></g><g
             id="g190"><g
               id="g192"><path
                 id="path194"
                 style="fill:#808080;fill-opacity:1;fill-rule:nonzero;stroke:#808080;stroke-width:0.79701;stroke-linecap:butt;stroke-linejoin:miter;stroke-miterlimit:10;stroke-dasharray:none;stroke-opacity:1"
                 d="m 11.33875,-2.83466 h 5.66933 v 5.66933 h -5.66933 z" /></g><g
               transform="translate(14.173)"
               id="g196"><g
                 id="g198" /><g
                 transform="translate(-14.173)"
                 id="g200" /></g></g><g
             id="g202"><g
               id="g204"><path
                 id="path206"
                 style="fill:#808080;fill-opacity:1;fill-rule:nonzero;stroke:#808080;stroke-width:0.79701;stroke-linecap:butt;stroke-linejoin:miter;stroke-miterlimit:10;stroke-dasharray:none;stroke-opacity:1"
                 d="m 11.33875,-31.18147 h 5.66933 v 5.66933 h -5.66933 z" /></g><g
               transform="translate(14.173,-28.346)"
               id="g208"><g
                 id="g210" /><g
                 transform="translate(-14.173,28.346)"
                 id="g212" /></g></g><g
             id="g214"><g
               id="g216"><path
                 id="path218"
                 style="fill:#808080;fill-opacity:1;fill-rule:nonzero;stroke:#808080;stroke-width:0.79701;stroke-linecap:butt;stroke-linejoin:miter;stroke-miterlimit:10;stroke-dasharray:none;stroke-opacity:1"
                 d="m 42.02208,25.51213 h 0.99628 v 5.66933 h -0.99628 z" /></g><g
               transform="translate(42.52,28.347)"
               id="g220"><g
                 id="g222" /><g
                 transform="translate(-42.52,-28.347)"
                 id="g224" /></g></g><g
             id="g226"><g
               id="g228"><path
                 id="path230"
                 style="fill:#808080;fill-opacity:1;fill-rule:nonzero;stroke:#808080;stroke-width:0.79701;stroke-linecap:butt;stroke-linejoin:miter;stroke-miterlimit:10;stroke-dasharray:none;stroke-opacity:1"
                 d="m 42.02208,-2.83466 h 0.99628 v 5.66933 h -0.99628 z" /></g><g
               transform="translate(42.52)"
               id="g232"><g
                 id="g234" /><g
                 transform="translate(-42.52)"
                 id="g236" /></g></g><g
             id="g238"><g
               id="g240"><path
                 id="path242"
                 style="fill:#808080;fill-opacity:1;fill-rule:nonzero;stroke:#808080;stroke-width:0.79701;stroke-linecap:butt;stroke-linejoin:miter;stroke-miterlimit:10;stroke-dasharray:none;stroke-opacity:1"
                 d="m 42.02208,-31.18147 h 0.99628 v 5.66933 h -0.99628 z" /></g><g
               transform="translate(42.52,-28.346)"
               id="g244"><g
                 id="g246" /><g
                 transform="translate(-42.52,28.346)"
                 id="g248" /></g></g><g
             id="g250"><path
               id="path252"
               style="fill:none;stroke:#bfbfbf;stroke-width:4.98137999;stroke-linecap:butt;stroke-linejoin:miter;stroke-miterlimit:10;stroke-dasharray:none;stroke-opacity:1"
               d="M 14.1734,25.11363 V 3.23317" /></g><g
             id="g254"><path
               id="path256"
               style="fill:none;stroke:#bfbfbf;stroke-width:4.98137999;stroke-linecap:butt;stroke-linejoin:miter;stroke-miterlimit:10;stroke-dasharray:none;stroke-opacity:1"
               d="M 14.1734,-3.23317 V -25.11363" /></g><g
             id="g258"><path
               id="path260"
               style="fill:none;stroke:#bfbfbf;stroke-width:4.98137999;stroke-linecap:butt;stroke-linejoin:miter;stroke-miterlimit:10;stroke-dasharray:none;stroke-opacity:1"
               d="m 17.40657,28.3468 h 24.217" /></g><g
             id="g262"><path
               id="path264"
               style="fill:none;stroke:#bfbfbf;stroke-width:4.98137999;stroke-linecap:butt;stroke-linejoin:miter;stroke-miterlimit:10;stroke-dasharray:none;stroke-opacity:1"
               d="m 17.40657,0 h 24.217" /></g><g
             id="g266"><path
               id="path268"
               style="fill:none;stroke:#bfbfbf;stroke-width:4.98137999;stroke-linecap:butt;stroke-linejoin:miter;stroke-miterlimit:10;stroke-dasharray:none;stroke-opacity:1"
               d="m 17.40657,-28.3468 h 24.217" /></g></g></g></g></g></svg>