<?xml version="1.0" encoding="UTF-8" standalone="no"?>
<svg
   xmlns:dc="http://purl.org/dc/elements/1.1/"
   xmlns:cc="http://creativecommons.org/ns#"
   xmlns:rdf="http://www.w3.org/1999/02/22-rdf-syntax-ns#"
   xmlns:svg="http://www.w3.org/2000/svg"
   xmlns="http://www.w3.org/2000/svg"
   viewBox="0 0 14.544 12.754667"
   height="12.754667"
   width="14.544"
   xml:space="preserve"
   id="svg2"
   version="1.1"><metadata
     id="metadata8"><rdf:RDF><cc:Work
         rdf:about=""><dc:format>image/svg+xml</dc:format><dc:type
           rdf:resource="http://purl.org/dc/dcmitype/StillImage" /></cc:Work></rdf:RDF></metadata><defs
     id="defs6" /><g
     transform="matrix(1.3333333,0,0,-1.3333333,0,12.754667)"
     id="g10"><g
       transform="translate(0.033,9.566)"
       id="g12"><g
         id="g14"><g
           id="g16" /><g
           id="g18"><g
             id="g20"><path
               id="path22"
               style="fill:#ec1d24;fill-opacity:1;fill-rule:nonzero;stroke:none"
               d="m 10.13843,-9.56633 c 0.24226,0.00536 0.4763,0.13359 0.6074,0.35791 0.12949,0.22624 0.12371,0.49271 0.0084,0.70738 l -4.72,8.15589 C 5.90973,-0.13976 5.68147,-0.00154 5.42265,8e-5 5.16023,-0.00153 4.93202,-0.13974 4.80684,-0.34515 L 0.08705,-8.50104 C -0.0275,-8.71571 -0.03326,-8.98218 0.09549,-9.20842 0.2273,-9.43275 0.46133,-9.56099 0.70287,-9.56633 h 9.4356" /></g><g
             id="g24"><path
               id="path26"
               style="fill:#ffffff;fill-opacity:1;fill-rule:nonzero;stroke:none"
               d="M 5.42284,-1.20834 1.13309,-8.62317 h 8.57502 l -4.28552,7.4147" /></g><g
             id="g28"><path
               id="path30"
               style="fill:#000000;fill-opacity:1;fill-rule:nonzero;stroke:none"
               d="m 4.8404,-3.5998 c -0.36895,8e-4 -0.42524,-0.35651 -0.42588,-0.39605 6.4e-4,-0.18846 0.13585,-0.42329 0.51468,-0.45901 0,0 0.0735,-0.01085 0.07175,-0.05867 C 5.0027,-4.55899 5.00285,-4.54352 4.9799,-4.56839 4.95615,-4.59549 4.76004,-4.7774 4.75621,-4.82558 4.735,-5.05229 4.78601,-5.34566 4.83241,-5.51563 c 0,0 0.05597,-0.14093 0.01261,-0.24011 C 4.80005,-5.85889 4.60777,-6.3415 4.59183,-6.37053 4.54607,-6.45439 4.52806,-6.52327 4.55803,-6.62323 4.53857,-6.6344 4.21667,-6.83801 4.21667,-6.83801 c 0,0 -0.04975,0.11751 -0.17347,0.15147 -0.1258,0.0362 -0.22975,0.01914 -0.33275,0.21477 l -0.09311,0.15146 c 0,0 -0.0193,0.05549 -0.11369,0.07638 C 3.41086,-6.22592 3.28603,-6.191 3.23357,-6.19371 3.1666,-6.20024 3.11255,-6.1819 3.02278,-6.28635 2.95088,-6.37004 1.79973,-8.36209 1.79973,-8.36209 h 2.76674 c 0,0 0.06856,0.00751 0.05072,0.07176 -0.02106,0.06026 -0.35413,1.24617 -0.35413,1.24617 l 0.38361,0.24011 c 0,0 0.03062,-0.05165 0.14349,0 0.11066,0.05215 0.15195,0.07972 0.15195,0.07972 0,0 0.06299,0.00415 0.05485,0.13903 0.04401,0.02744 0.45536,0.28652 0.45536,0.28652 0,0 -0.14557,-0.35938 -0.1604,-0.51818 -0.01116,-0.15784 -0.06728,-1.22067 -0.06728,-1.22067 0,0 0.00702,-0.0813 -0.0464,-0.09724 -0.0558,-0.01515 -0.30388,-0.0842 -0.30388,-0.0842 0,0 -0.06903,-0.01133 -0.06729,-0.06728 C 4.80533,-8.33928 4.8313,-8.36 4.86192,-8.36209 c 0.03173,0.00209 0.80962,0 0.80962,0 0,0 0.07957,-0.00844 0.09265,0.09663 0.01291,0.10236 0.16039,1.16246 0.16039,1.16246 0,0 -0.06411,0.01676 -0.0633,0.07973 -8.1e-4,0.06664 -9.6e-4,0.11639 0.02104,0.14349 0.01946,0.02471 0.25336,0.29433 0.41359,0.66918 0.02456,0.0558 0.04273,0.00636 0.04624,-0.00846 0.00686,-0.01101 0.3109,-0.83865 0.34582,-0.8715 0.03778,-0.02933 0.85921,-0.69371 0.8774,-0.70743 0.01817,-0.01228 0.0703,-0.04814 0.07175,-0.16405 C 7.63567,-8.07971 7.5888,-8.17331 7.55692,-8.21062 7.52629,-8.246 7.47449,-8.29799 7.47272,-8.32014 7.47449,-8.34471 7.49808,-8.36 7.51498,-8.36209 c 0.01944,0.00209 0.12612,0.00209 0.13504,0 0.0118,0.00209 0.15195,-0.00859 0.24872,0.16391 0.10077,0.16997 0.28238,0.47594 0.28238,0.47594 0,0 0.03922,0.06025 -0.0169,0.09709 -0.05837,0.0357 -0.14908,0.05644 -0.20218,0.11368 -0.05613,0.05691 -0.58098,0.66134 -0.59055,0.67346 -0.00606,0.00862 -0.07382,0.08163 -0.1604,0.04241 -0.02519,0.03397 -0.05484,0.07972 -0.05484,0.07972 0,0 -0.14957,0.90498 -0.30789,1.28844 0.03619,0.02247 0.0842,0.05882 0.0842,0.05882 0,0 0.12611,-0.10889 0.2323,0.00447 0.10699,0.11496 0.09916,0.11209 0.0802,0.16391 -0.0174,0.05197 -0.02521,0.06776 -0.0633,0.08879 -0.0346,0.02057 -0.09439,0.08037 -0.0928,0.18529 C 7.08737,-4.82365 7.04305,-4.5408 6.99187,-4.42091 6.94435,-4.30212 6.92857,-4.1701 6.74281,-4.08864 6.44897,-3.95741 6.05547,-3.87929 5.76865,-3.95358 5.68924,-3.9748 5.43399,-4.16214 5.40991,-4.17682 5.38727,-4.18813 5.28761,-4.22926 5.29639,-4.14285 5.31647,-3.94562 5.14587,-3.599 4.8404,-3.5998 Z m 1.45551,-0.80022 c 0,0 0.21666,0.00207 0.26548,-0.00398 0.0448,-0.00448 0.07173,-0.0633 0.07173,-0.0633 L 6.8399,-5.19579 6.76419,-5.24202 c -0.04259,0.08786 -0.42012,0.66199 -0.49777,0.77025 -0.04975,0.06969 0.02949,0.07175 0.02949,0.07175 z M 5.27742,-5.30627 c 0.00908,3.2e-4 0.01944,-0.00255 0.02742,-0.0075 0.08146,-0.04655 0.23581,-0.17952 0.3667,-0.36224 0.01564,-0.02104 0,-0.08419 0,-0.08419 L 5.55786,-5.99585 c 0,0 -0.49011,-0.30788 -0.52757,-0.33243 -0.04051,-0.02215 -0.06299,-3.2e-4 -0.02487,0.05038 0.21843,0.29703 0.29942,0.64973 0.24856,0.93479 -0.0043,0.02615 0.00829,0.03619 0.02344,0.03684 z" /></g></g></g></g></g></svg>