<?xml version="1.0" encoding="UTF-8" standalone="no"?>
<svg
   xmlns:dc="http://purl.org/dc/elements/1.1/"
   xmlns:cc="http://creativecommons.org/ns#"
   xmlns:rdf="http://www.w3.org/1999/02/22-rdf-syntax-ns#"
   xmlns:svg="http://www.w3.org/2000/svg"
   xmlns="http://www.w3.org/2000/svg"
   viewBox="0 0 422.82266 151.51199"
   height="151.51199"
   width="422.82266"
   xml:space="preserve"
   id="svg2"
   version="1.1"><metadata
     id="metadata8"><rdf:RDF><cc:Work
         rdf:about=""><dc:format>image/svg+xml</dc:format><dc:type
           rdf:resource="http://purl.org/dc/dcmitype/StillImage" /></cc:Work></rdf:RDF></metadata><defs
     id="defs6" /><g
     transform="matrix(1.3333333,0,0,-1.3333333,0,151.512)"
     id="g10"><g
       transform="translate(49.073,61.487)"
       id="g12"><g
         id="g14"><g
           id="g16" /><g
           id="g18"><g
             id="g20"><g
               id="g22"><g
                 id="g24" /></g></g><g
             id="g26"><g
               id="g28"><path
                 id="path30"
                 style="fill:#006699;fill-opacity:1;fill-rule:nonzero;stroke:none"
                 d="m 41.36975,46.91084 h -82.7395 c -2.20095,0 -3.98511,-1.78416 -3.98511,-3.9851 V 20.65941 c 0,-2.20094 1.78416,-3.98511 3.98511,-3.98511 h 82.7395 c 2.20095,0 3.98511,1.78417 3.98511,3.98511 v 22.26633 c 0,2.20094 -1.78416,3.9851 -3.98511,3.9851 z" /></g><g
               transform="translate(0,31.792)"
               id="g32"><g
                 id="g34" /><g
                 transform="translate(0,-31.792)"
                 id="g36" /></g></g><g
             id="g38"><g
               transform="translate(-21.516,21.538)"
               id="g40"><g
                 id="g42"><g
                   transform="translate(-27.557,-83.025)"
                   id="g44"><text
                     id="text48"
                     style="font-variant:normal;font-weight:normal;font-size:9.96259975px;font-family:CMR10;-inkscape-font-specification:CMR10;writing-mode:lr-tb;fill:#ffffff;fill-opacity:1;fill-rule:nonzero;stroke:none"
                     transform="matrix(1,0,0,-1,27.557,83.025)"><tspan
                       id="tspan46"
                       y="0"
                       x="0 7.4719501 11.401199 15.828579 19.730928 23.660179 29.1954 34.176701 38.60408">Userspace</tspan></text>
<g
                     transform="translate(27.557,83.025)"
                     id="g50" /></g></g><g
                 transform="translate(21.516,-21.538)"
                 id="g52" /></g></g><g
             id="g54"><g
               id="g56"><path
                 id="path58"
                 style="fill:#003366;fill-opacity:1;fill-rule:nonzero;stroke:none"
                 d="m 41.36975,15.87729 h -82.7395 c -2.20095,0 -3.98511,-1.78417 -3.98511,-3.98511 v -22.26633 c 0,-2.20094 1.78416,-3.9851 3.98511,-3.9851 h 82.7395 c 2.20095,0 3.98511,1.78416 3.98511,3.9851 v 22.26633 c 0,2.20094 -1.78416,3.98511 -3.98511,3.98511 z" /></g><g
               transform="translate(-14.404,-2.701)"
               id="g60"><g
                 id="g62"><g
                   transform="translate(-34.669,-58.786)"
                   id="g64"><text
                     id="text68"
                     style="font-variant:normal;font-weight:normal;font-size:9.96259975px;font-family:CMR10;-inkscape-font-specification:CMR10;writing-mode:lr-tb;fill:#ffffff;fill-opacity:1;fill-rule:nonzero;stroke:none"
                     transform="matrix(1,0,0,-1,34.669,58.786)"><tspan
                       id="tspan66"
                       y="0"
                       x="0 7.7489104 12.17629 16.07864 21.613861 26.041241">Kernel</tspan></text>
<g
                     transform="translate(34.669,58.786)"
                     id="g70" /></g></g><g
                 transform="translate(14.404,2.701)"
                 id="g72" /></g></g><g
             id="g74"><g
               id="g76"><path
                 id="path78"
                 style="fill:#000033;fill-opacity:1;fill-rule:nonzero;stroke:none"
                 d="m 41.36975,-15.15627 h -82.7395 c -2.20095,0 -3.98511,-1.78416 -3.98511,-3.9851 V -41.4077 c 0,-2.20094 1.78416,-3.9851 3.98511,-3.9851 h 82.7395 c 2.20095,0 3.98511,1.78416 3.98511,3.9851 v 22.26633 c 0,2.20094 -1.78416,3.9851 -3.98511,3.9851 z" /></g><g
               transform="translate(-21.06,-33.734)"
               id="g80"><g
                 id="g82"><g
                   transform="translate(-28.013,-27.753)"
                   id="g84"><text
                     id="text88"
                     style="font-variant:normal;font-weight:normal;font-size:9.96259975px;font-family:CMR10;-inkscape-font-specification:CMR10;writing-mode:lr-tb;fill:#ffffff;fill-opacity:1;fill-rule:nonzero;stroke:none"
                     transform="matrix(1,0,0,-1,28.013,27.753)"><tspan
                       id="tspan86"
                       y="0"
                       x="0 7.4719501 12.45325 16.3556 21.890821 28.806858 33.788158 37.69051">Hardware</tspan></text>
<g
                     transform="translate(28.013,27.753)"
                     id="g90" /></g></g><g
                 transform="translate(21.06,33.734)"
                 id="g92" /></g></g><g
             id="g94"><g
               id="g96"><path
                 id="path98"
                 style="fill:#808080;fill-opacity:1;fill-rule:nonzero;stroke:none"
                 d="m 19.81606,45.45905 h -39.63212 c -2.20094,0 -3.9851,-1.78417 -3.9851,-3.98511 v -6.64113 c 0,-2.20094 1.78416,-3.98511 3.9851,-3.98511 h 39.63212 c 2.20094,0 3.9851,1.78417 3.9851,3.98511 v 6.64113 c 0,2.20094 -1.78416,3.98511 -3.9851,3.98511 z" /></g><g
               transform="translate(-20.48,35.911)"
               id="g100"><g
                 id="g102"><g
                   transform="translate(-28.593,-97.398)"
                   id="g104"><text
                     id="text108"
                     style="font-variant:normal;font-weight:normal;font-size:8.96640015px;font-family:CMR9;-inkscape-font-specification:CMR9;writing-mode:lr-tb;fill:#ffffff;fill-opacity:1;fill-rule:nonzero;stroke:none"
                     transform="matrix(1,0,0,-1,28.593,97.398)"><tspan
                       id="tspan106"
                       y="0"
                       x="0 7.1677403 12.54758 16.638052 21.757866 26.87768 31.997496 34.557404 37.372852">OpenShift</tspan></text>
<g
                     transform="translate(28.593,97.398)"
                     id="g110" /></g></g><g
                 transform="translate(20.48,-35.911)"
                 id="g112" /></g></g><g
             id="g114"><g
               transform="translate(-38.01,-56.229)"
               id="g116"><g
                 id="g118"><g
                   transform="translate(-11.063,-5.258)"
                   id="g120"><text
                     id="text124"
                     style="font-variant:normal;font-weight:normal;font-size:9.96259975px;font-family:CMR10;-inkscape-font-specification:CMR10;writing-mode:lr-tb;fill:#000000;fill-opacity:1;fill-rule:nonzero;stroke:none"
                     transform="matrix(1,0,0,-1,11.063,5.258)"><tspan
                       id="tspan122"
                       y="0"
                       x="0 6.7805457 12.036814 17.295074 21.224323 23.991934 28.419313 33.400612 39.495731 48.618484 53.599785 57.758175 63.293392 66.061005 71.596222">PhysicalMachine</tspan></text>
<g
                     transform="translate(11.063,5.258)"
                     id="g126" /></g></g><g
                 transform="translate(38.01,56.229)"
                 id="g128" /></g></g><g
             id="g130"><g
               id="g132"><path
                 id="path134"
                 style="fill:none;stroke:#000000;stroke-width:0.3985;stroke-linecap:butt;stroke-linejoin:miter;stroke-miterlimit:10;stroke-dasharray:none;stroke-opacity:1"
                 d="m -41.53061,-53.73903 h -4.22275 v 7.48944" /><g
                 transform="rotate(90,0.248115,-46.001475)"
                 id="g136"><g
                   id="g138"><path
                     id="path140"
                     style="fill:none;stroke:#000000;stroke-width:0.31878999;stroke-linecap:round;stroke-linejoin:round;stroke-miterlimit:10;stroke-dasharray:none;stroke-opacity:1"
                     d="M -1.19551,1.59401 C -1.09587,0.99626 0,0.09961 0.29886,0 0,-0.09961 -1.09587,-0.99626 -1.19551,-1.59401" /></g></g></g><g
               id="g142"><path
                 id="path144"
                 style="fill:none;stroke:#000000;stroke-width:0.3985;stroke-linecap:butt;stroke-linejoin:miter;stroke-miterlimit:10;stroke-dasharray:none;stroke-opacity:1"
                 d="m 41.53061,-53.73903 h 4.22275 v 7.48944" /><g
                 transform="rotate(90,46.001475,-0.248115)"
                 id="g146"><g
                   id="g148"><path
                     id="path150"
                     style="fill:none;stroke:#000000;stroke-width:0.31878999;stroke-linecap:round;stroke-linejoin:round;stroke-miterlimit:10;stroke-dasharray:none;stroke-opacity:1"
                     d="M -1.19551,1.59401 C -1.09587,0.99626 0,0.09961 0.29886,0 0,-0.09961 -1.09587,-0.99626 -1.19551,-1.59401" /></g></g></g></g><g
             id="g152"><g
               transform="translate(-45.752,0.759)"
               id="g154"><g
                 transform="translate(45.752)"
                 id="g156"><g
                   transform="translate(-45.752)"
                   id="g158" /></g><g
                 transform="translate(45.752,-0.759)"
                 id="g160" /></g></g><g
             id="g162"><g
               transform="translate(109.486,0.759)"
               id="g164"><g
                 id="g166" /><g
                 transform="translate(-109.486,-0.759)"
                 id="g168" /></g></g><g
             id="g170"><g
               id="g172"><path
                 id="path174"
                 style="fill:#006699;fill-opacity:1;fill-rule:nonzero;stroke:none"
                 d="m 150.85638,47.66988 h -82.7395 c -2.20094,0 -3.98511,-1.78417 -3.98511,-3.98511 V 21.41843 c 0,-2.20095 1.78417,-3.98511 3.98511,-3.98511 h 82.7395 c 2.20095,0 3.98511,1.78416 3.98511,3.98511 v 22.26634 c 0,2.20094 -1.78416,3.98511 -3.98511,3.98511 z" /></g><g
               transform="translate(109.486,32.551)"
               id="g176"><g
                 id="g178" /><g
                 transform="translate(-109.486,-32.551)"
                 id="g180" /></g></g><g
             id="g182"><g
               transform="translate(87.969,22.297)"
               id="g184"><g
                 id="g186"><g
                   transform="translate(-137.042,-83.784)"
                   id="g188"><text
                     id="text192"
                     style="font-variant:normal;font-weight:normal;font-size:9.96259975px;font-family:CMR10;-inkscape-font-specification:CMR10;writing-mode:lr-tb;fill:#ffffff;fill-opacity:1;fill-rule:nonzero;stroke:none"
                     transform="matrix(1,0,0,-1,137.042,83.784)"><tspan
                       id="tspan190"
                       y="0"
                       x="0 7.4719501 11.401199 15.828579 19.730928 23.660179 29.1954 34.176701 38.60408">Userspace</tspan></text>
<g
                     transform="translate(137.042,83.784)"
                     id="g194" /></g></g><g
                 transform="translate(-87.969,-22.297)"
                 id="g196" /></g></g><g
             id="g198"><g
               id="g200"><path
                 id="path202"
                 style="fill:#003366;fill-opacity:1;fill-rule:nonzero;stroke:none"
                 d="m 150.85638,16.6363 h -82.7395 c -2.20094,0 -3.98511,-1.78416 -3.98511,-3.9851 V -9.61513 c 0,-2.20094 1.78417,-3.9851 3.98511,-3.9851 h 82.7395 c 2.20095,0 3.98511,1.78416 3.98511,3.9851 V 12.6512 c 0,2.20094 -1.78416,3.9851 -3.98511,3.9851 z" /></g><g
               transform="translate(95.081,-1.941)"
               id="g204"><g
                 id="g206"><g
                   transform="translate(-144.154,-59.546)"
                   id="g208"><text
                     id="text212"
                     style="font-variant:normal;font-weight:normal;font-size:9.96259975px;font-family:CMR10;-inkscape-font-specification:CMR10;writing-mode:lr-tb;fill:#ffffff;fill-opacity:1;fill-rule:nonzero;stroke:none"
                     transform="matrix(1,0,0,-1,144.154,59.546)"><tspan
                       id="tspan210"
                       y="0"
                       x="0 7.7489104 12.17629 16.07864 21.613861 26.041241">Kernel</tspan></text>
<g
                     transform="translate(144.154,59.546)"
                     id="g214" /></g></g><g
                 transform="translate(-95.081,1.941)"
                 id="g216" /></g></g><g
             id="g218"><g
               id="g220"><path
                 id="path222"
                 style="fill:#000033;fill-opacity:1;fill-rule:nonzero;stroke:none"
                 d="m 150.85638,-14.39723 h -82.7395 c -2.20094,0 -3.98511,-1.78417 -3.98511,-3.98511 v -22.26634 c 0,-2.20094 1.78417,-3.98511 3.98511,-3.98511 h 82.7395 c 2.20095,0 3.98511,1.78417 3.98511,3.98511 v 22.26634 c 0,2.20094 -1.78416,3.98511 -3.98511,3.98511 z" /></g><g
               transform="translate(88.426,-32.975)"
               id="g224"><g
                 id="g226"><g
                   transform="translate(-137.499,-28.512)"
                   id="g228"><text
                     id="text232"
                     style="font-variant:normal;font-weight:normal;font-size:9.96259975px;font-family:CMR10;-inkscape-font-specification:CMR10;writing-mode:lr-tb;fill:#ffffff;fill-opacity:1;fill-rule:nonzero;stroke:none"
                     transform="matrix(1,0,0,-1,137.499,28.512)"><tspan
                       id="tspan230"
                       y="0"
                       x="0 7.4719501 12.45325 16.3556 21.890821 28.806858 33.788158 37.69051">Hardware</tspan></text>
<g
                     transform="translate(137.499,28.512)"
                     id="g234" /></g></g><g
                 transform="translate(-88.426,32.975)"
                 id="g236" /></g></g><g
             id="g238"><g
               id="g240"><path
                 id="path242"
                 style="fill:#808080;fill-opacity:1;fill-rule:nonzero;stroke:none"
                 d="M 129.3027,46.21806 H 89.67056 c -2.20094,0 -3.9851,-1.78416 -3.9851,-3.9851 v -6.64113 c 0,-2.20095 1.78416,-3.98511 3.9851,-3.98511 h 39.63214 c 2.20095,0 3.98511,1.78416 3.98511,3.98511 v 6.64113 c 0,2.20094 -1.78416,3.9851 -3.98511,3.9851 z" /></g><g
               transform="translate(89.005,36.67)"
               id="g244"><g
                 id="g246"><g
                   transform="translate(-138.078,-98.157)"
                   id="g248"><text
                     id="text252"
                     style="font-variant:normal;font-weight:normal;font-size:8.96640015px;font-family:CMR9;-inkscape-font-specification:CMR9;writing-mode:lr-tb;fill:#ffffff;fill-opacity:1;fill-rule:nonzero;stroke:none"
                     transform="matrix(1,0,0,-1,138.078,98.157)"><tspan
                       id="tspan250"
                       y="0"
                       x="0 7.1677403 12.54758 16.647018 21.757866 26.87768 31.997496 34.557404 37.372852">OpenShift</tspan></text>
<g
                     transform="translate(138.078,98.157)"
                     id="g254" /></g></g><g
                 transform="translate(-89.005,-36.67)"
                 id="g256" /></g></g><g
             id="g258"><g
               transform="translate(71.475,-55.47)"
               id="g260"><g
                 id="g262"><g
                   transform="translate(-120.548,-6.017)"
                   id="g264"><text
                     id="text268"
                     style="font-variant:normal;font-weight:normal;font-size:9.96259975px;font-family:CMR10;-inkscape-font-specification:CMR10;writing-mode:lr-tb;fill:#000000;fill-opacity:1;fill-rule:nonzero;stroke:none"
                     transform="matrix(1,0,0,-1,120.548,6.017)"><tspan
                       id="tspan266"
                       y="0"
                       x="0 6.7805457 12.036814 17.295074 21.224323 23.991934 28.419313 33.400612 39.495731 48.628448 53.609745 57.758175 63.293392 66.061005 71.596222">PhysicalMachine</tspan></text>
<g
                     transform="translate(120.548,6.017)"
                     id="g270" /></g></g><g
                 transform="translate(-71.475,55.47)"
                 id="g272" /></g></g><g
             id="g274"><g
               id="g276"><path
                 id="path278"
                 style="fill:none;stroke:#000000;stroke-width:0.3985;stroke-linecap:butt;stroke-linejoin:miter;stroke-miterlimit:10;stroke-dasharray:none;stroke-opacity:1"
                 d="m 67.95601,-52.98001 h -4.22275 v 7.48944" /><g
                 transform="rotate(90,54.611915,9.121345)"
                 id="g280"><g
                   id="g282"><path
                     id="path284"
                     style="fill:none;stroke:#000000;stroke-width:0.31878999;stroke-linecap:round;stroke-linejoin:round;stroke-miterlimit:10;stroke-dasharray:none;stroke-opacity:1"
                     d="M -1.19551,1.59401 C -1.09587,0.99626 0,0.09961 0.29886,0 0,-0.09961 -1.09587,-0.99626 -1.19551,-1.59401" /></g></g></g><g
               id="g286"><path
                 id="path288"
                 style="fill:none;stroke:#000000;stroke-width:0.3985;stroke-linecap:butt;stroke-linejoin:miter;stroke-miterlimit:10;stroke-dasharray:none;stroke-opacity:1"
                 d="m 151.01726,-52.98001 h 4.22273 v 7.48944" /><g
                 transform="rotate(90,100.36528,54.87471)"
                 id="g290"><g
                   id="g292"><path
                     id="path294"
                     style="fill:none;stroke:#000000;stroke-width:0.31878999;stroke-linecap:round;stroke-linejoin:round;stroke-miterlimit:10;stroke-dasharray:none;stroke-opacity:1"
                     d="M -1.19551,1.59401 C -1.09587,0.99626 0,0.09961 0.29886,0 0,-0.09961 -1.09587,-0.99626 -1.19551,-1.59401" /></g></g></g></g><g
             id="g296"><g
               transform="translate(63.733,1.518)"
               id="g298"><g
                 transform="translate(45.753)"
                 id="g300"><g
                   transform="translate(-45.753)"
                   id="g302" /></g><g
                 transform="translate(-63.733,-1.518)"
                 id="g304" /></g></g><g
             id="g306"><g
               transform="translate(218.971,1.518)"
               id="g308"><g
                 id="g310" /><g
                 transform="translate(-218.971,-1.518)"
                 id="g312" /></g></g><g
             id="g314"><g
               id="g316"><path
                 id="path318"
                 style="fill:#006699;fill-opacity:1;fill-rule:nonzero;stroke:none"
                 d="m 260.34302,48.4289 h -82.7395 c -2.20095,0 -3.98511,-1.78417 -3.98511,-3.98511 V 22.17744 c 0,-2.20094 1.78416,-3.9851 3.98511,-3.9851 h 82.7395 c 2.20094,0 3.98511,1.78416 3.98511,3.9851 v 22.26635 c 0,2.20094 -1.78417,3.98511 -3.98511,3.98511 z" /></g><g
               transform="translate(218.971,33.31)"
               id="g320"><g
                 id="g322" /><g
                 transform="translate(-218.971,-33.31)"
                 id="g324" /></g></g><g
             id="g326"><g
               transform="translate(197.454,23.056)"
               id="g328"><g
                 id="g330"><g
                   transform="translate(-246.527,-84.543)"
                   id="g332"><text
                     id="text336"
                     style="font-variant:normal;font-weight:normal;font-size:9.96259975px;font-family:CMR10;-inkscape-font-specification:CMR10;writing-mode:lr-tb;fill:#ffffff;fill-opacity:1;fill-rule:nonzero;stroke:none"
                     transform="matrix(1,0,0,-1,246.527,84.543)"><tspan
                       id="tspan334"
                       y="0"
                       x="0 7.4719501 11.401199 15.828579 19.730928 23.660179 29.1954 34.176701 38.60408">Userspace</tspan></text>
<g
                     transform="translate(246.527,84.543)"
                     id="g338" /></g></g><g
                 transform="translate(-197.454,-23.056)"
                 id="g340" /></g></g><g
             id="g342"><g
               id="g344"><path
                 id="path346"
                 style="fill:#003366;fill-opacity:1;fill-rule:nonzero;stroke:none"
                 d="m 260.34302,17.39532 h -82.7395 c -2.20095,0 -3.98511,-1.78416 -3.98511,-3.9851 V -8.85611 c 0,-2.20093 1.78416,-3.98511 3.98511,-3.98511 h 82.7395 c 2.20094,0 3.98511,1.78418 3.98511,3.98511 v 22.26633 c 0,2.20094 -1.78417,3.9851 -3.98511,3.9851 z" /></g><g
               transform="translate(204.566,-1.182)"
               id="g348"><g
                 id="g350"><g
                   transform="translate(-253.639,-60.305)"
                   id="g352"><text
                     id="text356"
                     style="font-variant:normal;font-weight:normal;font-size:9.96259975px;font-family:CMR10;-inkscape-font-specification:CMR10;writing-mode:lr-tb;fill:#ffffff;fill-opacity:1;fill-rule:nonzero;stroke:none"
                     transform="matrix(1,0,0,-1,253.639,60.305)"><tspan
                       id="tspan354"
                       y="0"
                       x="0 7.7489104 12.17629 16.07864 21.613861 26.041241">Kernel</tspan></text>
<g
                     transform="translate(253.639,60.305)"
                     id="g358" /></g></g><g
                 transform="translate(-204.566,1.182)"
                 id="g360" /></g></g><g
             id="g362"><g
               id="g364"><path
                 id="path366"
                 style="fill:#000033;fill-opacity:1;fill-rule:nonzero;stroke:none"
                 d="m 260.34302,-13.63821 h -82.7395 c -2.20095,0 -3.98511,-1.78417 -3.98511,-3.98511 v -22.26634 c 0,-2.20094 1.78416,-3.98511 3.98511,-3.98511 h 82.7395 c 2.20094,0 3.98511,1.78417 3.98511,3.98511 v 22.26634 c 0,2.20094 -1.78417,3.98511 -3.98511,3.98511 z" /></g><g
               transform="translate(197.911,-32.216)"
               id="g368"><g
                 id="g370"><g
                   transform="translate(-246.984,-29.271)"
                   id="g372"><text
                     id="text376"
                     style="font-variant:normal;font-weight:normal;font-size:9.96259975px;font-family:CMR10;-inkscape-font-specification:CMR10;writing-mode:lr-tb;fill:#ffffff;fill-opacity:1;fill-rule:nonzero;stroke:none"
                     transform="matrix(1,0,0,-1,246.984,29.271)"><tspan
                       id="tspan374"
                       y="0"
                       x="0 7.4719501 12.45325 16.3556 21.890821 28.806858 33.788158 37.69051">Hardware</tspan></text>
<g
                     transform="translate(246.984,29.271)"
                     id="g378" /></g></g><g
                 transform="translate(-197.911,32.216)"
                 id="g380" /></g></g><g
             id="g382"><g
               id="g384"><path
                 id="path386"
                 style="fill:#808080;fill-opacity:1;fill-rule:nonzero;stroke:none"
                 d="m 238.78934,46.97708 h -39.63213 c -2.20094,0 -3.98511,-1.78416 -3.98511,-3.98511 v -6.64112 c 0,-2.20095 1.78417,-3.98511 3.98511,-3.98511 h 39.63213 c 2.20094,0 3.9851,1.78416 3.9851,3.98511 v 6.64112 c 0,2.20095 -1.78416,3.98511 -3.9851,3.98511 z" /></g><g
               transform="translate(198.49,37.429)"
               id="g388"><g
                 id="g390"><g
                   transform="translate(-247.563,-98.916)"
                   id="g392"><text
                     id="text396"
                     style="font-variant:normal;font-weight:normal;font-size:8.96640015px;font-family:CMR9;-inkscape-font-specification:CMR9;writing-mode:lr-tb;fill:#ffffff;fill-opacity:1;fill-rule:nonzero;stroke:none"
                     transform="matrix(1,0,0,-1,247.563,98.916)"><tspan
                       id="tspan394"
                       y="0"
                       x="0 7.1677403 12.54758 16.647018 21.766832 26.87768 31.997496 34.557404 37.381817">OpenShift</tspan></text>
<g
                     transform="translate(247.563,98.916)"
                     id="g398" /></g></g><g
                 transform="translate(-198.49,-37.429)"
                 id="g400" /></g></g><g
             id="g402"><g
               transform="translate(180.96,-54.711)"
               id="g404"><g
                 id="g406"><g
                   transform="translate(-230.033,-6.776)"
                   id="g408"><text
                     id="text412"
                     style="font-variant:normal;font-weight:normal;font-size:9.96259975px;font-family:CMR10;-inkscape-font-specification:CMR10;writing-mode:lr-tb;fill:#000000;fill-opacity:1;fill-rule:nonzero;stroke:none"
                     transform="matrix(1,0,0,-1,230.033,6.776)"><tspan
                       id="tspan410"
                       y="0"
                       x="0 6.7805457 12.036814 17.295074 21.224323 23.991934 28.419313 33.400612 39.495731 48.628448 53.609745 57.758175 63.293392 66.061005 71.596222">PhysicalMachine</tspan></text>
<g
                     transform="translate(230.033,6.776)"
                     id="g414" /></g></g><g
                 transform="translate(-180.96,54.711)"
                 id="g416" /></g></g><g
             id="g418"><g
               id="g420"><path
                 id="path422"
                 style="fill:none;stroke:#000000;stroke-width:0.3985;stroke-linecap:butt;stroke-linejoin:miter;stroke-miterlimit:10;stroke-dasharray:none;stroke-opacity:1"
                 d="m 177.44266,-52.221 h -4.22275 v 7.48945" /><g
                 transform="rotate(90,108.97573,64.24418)"
                 id="g424"><g
                   id="g426"><path
                     id="path428"
                     style="fill:none;stroke:#000000;stroke-width:0.31878999;stroke-linecap:round;stroke-linejoin:round;stroke-miterlimit:10;stroke-dasharray:none;stroke-opacity:1"
                     d="M -1.19551,1.59401 C -1.09587,0.99626 0,0.09961 0.29886,0 0,-0.09961 -1.09587,-0.99626 -1.19551,-1.59401" /></g></g></g><g
               id="g430"><path
                 id="path432"
                 style="fill:none;stroke:#000000;stroke-width:0.3985;stroke-linecap:butt;stroke-linejoin:miter;stroke-miterlimit:10;stroke-dasharray:none;stroke-opacity:1"
                 d="m 260.50389,-52.221 h 4.22275 v 7.48945" /><g
                 transform="rotate(90,154.72909,109.99755)"
                 id="g434"><g
                   id="g436"><path
                     id="path438"
                     style="fill:none;stroke:#000000;stroke-width:0.31878999;stroke-linecap:round;stroke-linejoin:round;stroke-miterlimit:10;stroke-dasharray:none;stroke-opacity:1"
                     d="M -1.19551,1.59401 C -1.09587,0.99626 0,0.09961 0.29886,0 0,-0.09961 -1.09587,-0.99626 -1.19551,-1.59401" /></g></g></g></g><g
             id="g440"><g
               transform="translate(173.218,2.277)"
               id="g442"><g
                 transform="translate(45.753)"
                 id="g444"><g
                   transform="translate(-45.753)"
                   id="g446" /></g><g
                 transform="translate(-173.218,-2.277)"
                 id="g448" /></g></g></g></g></g></g></svg>