<?xml version="1.0" encoding="UTF-8" standalone="no"?>
<svg
   xmlns:dc="http://purl.org/dc/elements/1.1/"
   xmlns:cc="http://creativecommons.org/ns#"
   xmlns:rdf="http://www.w3.org/1999/02/22-rdf-syntax-ns#"
   xmlns:svg="http://www.w3.org/2000/svg"
   xmlns="http://www.w3.org/2000/svg"
   viewBox="0 0 566.92932 379.01599"
   height="379.01599"
   width="566.92932"
   xml:space="preserve"
   id="svg2"
   version="1.1"><metadata
     id="metadata8"><rdf:RDF><cc:Work
         rdf:about=""><dc:format>image/svg+xml</dc:format><dc:type
           rdf:resource="http://purl.org/dc/dcmitype/StillImage" /></cc:Work></rdf:RDF></metadata><defs
     id="defs6" /><g
     transform="matrix(1.3333333,0,0,-1.3333333,0,379.016)"
     id="g10"><g
       transform="translate(212.598,170.876)"
       id="g12"><g
         id="g14"><g
           id="g16" /><g
           id="g18"><g
             id="g20"><g
               id="g22"><path
                 id="path24"
                 style="fill:#006699;fill-opacity:1;fill-rule:nonzero;stroke:none"
                 d="m 208.61604,113.38728 h -417.23208 c -2.20095,0 -3.98511,-1.78416 -3.98511,-3.9851 v -218.80436 c 0,-2.20094 1.78416,-3.9851 3.98511,-3.9851 h 417.23208 c 2.20095,0 3.98511,1.78416 3.98511,3.9851 v 218.80436 c 0,2.20094 -1.78416,3.9851 -3.98511,3.9851 z" /></g><g
               id="g26"><g
                 id="g28" /></g></g><g
             id="g30"><g
               transform="translate(-21.516,-102.852)"
               id="g32"><g
                 id="g34"><g
                   transform="translate(-191.082,-68.024)"
                   id="g36"><text
                     id="text40"
                     style="font-variant:normal;font-weight:normal;font-size:9.96259975px;font-family:CMR10;-inkscape-font-specification:CMR10;writing-mode:lr-tb;fill:#ffffff;fill-opacity:1;fill-rule:nonzero;stroke:none"
                     transform="matrix(1,0,0,-1,191.082,68.024)"><tspan
                       id="tspan38"
                       y="0"
                       x="0 7.4719501 11.401199 15.828579 19.730928 23.660179 29.1954 34.176701 38.60408">Userspace</tspan></text>
<g
                     transform="translate(191.082,68.024)"
                     id="g42" /></g></g><g
                 transform="translate(21.516,102.852)"
                 id="g44" /></g></g><g
             id="g46"><g
               id="g48"><path
                 id="path50"
                 style="fill:#003366;fill-opacity:1;fill-rule:nonzero;stroke:none"
                 d="m 208.61604,-114.18428 h -417.23208 c -2.20095,0 -3.98511,-1.78416 -3.98511,-3.98511 v -20.37658 c 0,-2.20095 1.78416,-3.98511 3.98511,-3.98511 h 417.23208 c 2.20095,0 3.98511,1.78416 3.98511,3.98511 v 20.37658 c 0,2.20095 -1.78416,3.98511 -3.98511,3.98511 z" /></g><g
               transform="translate(-14.404,-131.816)"
               id="g52"><g
                 id="g54"><g
                   transform="translate(-198.194,-39.06)"
                   id="g56"><text
                     id="text60"
                     style="font-variant:normal;font-weight:normal;font-size:9.96259975px;font-family:CMR10;-inkscape-font-specification:CMR10;writing-mode:lr-tb;fill:#ffffff;fill-opacity:1;fill-rule:nonzero;stroke:none"
                     transform="matrix(1,0,0,-1,198.194,39.06)"><tspan
                       id="tspan58"
                       y="0"
                       x="0 7.7489104 12.17629 16.07864 21.613861 26.041241">Kernel</tspan></text>
<g
                     transform="translate(198.194,39.06)"
                     id="g62" /></g></g><g
                 transform="translate(14.404,131.816)"
                 id="g64" /></g></g><g
             id="g66"><g
               id="g68"><path
                 id="path70"
                 style="fill:#000033;fill-opacity:1;fill-rule:nonzero;stroke:none"
                 d="m 208.61604,-142.5311 h -417.23208 c -2.20095,0 -3.98511,-1.78416 -3.98511,-3.9851 v -20.37658 c 0,-2.20094 1.78416,-3.9851 3.98511,-3.9851 h 417.23208 c 2.20095,0 3.98511,1.78416 3.98511,3.9851 v 20.37658 c 0,2.20094 -1.78416,3.9851 -3.98511,3.9851 z" /></g><g
               transform="translate(-21.06,-160.162)"
               id="g72"><g
                 id="g74"><g
                   transform="translate(-191.538,-10.714)"
                   id="g76"><text
                     id="text80"
                     style="font-variant:normal;font-weight:normal;font-size:9.96259975px;font-family:CMR10;-inkscape-font-specification:CMR10;writing-mode:lr-tb;fill:#ffffff;fill-opacity:1;fill-rule:nonzero;stroke:none"
                     transform="matrix(1,0,0,-1,191.538,10.714)"><tspan
                       id="tspan78"
                       y="0"
                       x="0 7.4719501 12.45325 16.3556 21.890821 28.806858 33.788158 37.69051">Hardware</tspan></text>
<g
                     transform="translate(191.538,10.714)"
                     id="g82" /></g></g><g
                 transform="translate(21.06,160.162)"
                 id="g84" /></g></g><g
             id="g86"><g
               id="g88"><path
                 id="path90"
                 style="fill:#808080;fill-opacity:1;fill-rule:nonzero;stroke:none"
                 d="m 194.44263,99.21385 h -388.88526 c -2.20094,0 -3.9851,-1.78416 -3.9851,-3.98511 v -176.2841 c 0,-2.20094 1.78416,-3.98511 3.9851,-3.98511 h 388.88526 c 2.20094,0 3.9851,1.78417 3.9851,3.98511 v 176.2841 c 0,2.20095 -1.78416,3.98511 -3.9851,3.98511 z" /></g><g
               transform="translate(-31.215,3.5)"
               id="g92"><g
                 id="g94"><g
                   transform="translate(-181.383,-174.376)"
                   id="g96"><text
                     id="text100"
                     style="font-variant:normal;font-weight:normal;font-size:14.34619999px;font-family:CMR12;-inkscape-font-specification:CMR12;writing-mode:lr-tb;fill:#ffffff;fill-opacity:1;fill-rule:nonzero;stroke:none"
                     transform="matrix(1,0,0,-1,181.383,174.376)"><tspan
                       id="tspan98"
                       y="0"
                       x="0 10.926065 19.117746 25.361212 33.165546 40.969879 48.774212 52.676376 56.968761">OpenShift</tspan></text>
<g
                     transform="translate(181.383,174.376)"
                     id="g102" /></g></g><g
                 transform="translate(31.215,-3.5)"
                 id="g104" /></g></g><g
             id="g106"><g
               id="g108"><path
                 id="path110"
                 style="fill:none;stroke:#000000;stroke-width:0.79701;stroke-linecap:butt;stroke-linejoin:miter;stroke-miterlimit:10;stroke-dasharray:0.79701, 1.99255;stroke-dashoffset:0;stroke-opacity:1"
                 d="m -177.5661,-62.76138 h 63.78032 v 48.18947 h -63.78032 z" /></g><g
               transform="translate(-160.756,-42.126)"
               id="g112"><g
                 id="g114"><g
                   transform="translate(-51.842,-128.75)"
                   id="g116"><text
                     id="text120"
                     style="font-variant:normal;font-weight:normal;font-size:9.96259975px;font-family:CMR10;-inkscape-font-specification:CMR10;writing-mode:lr-tb;fill:#000000;fill-opacity:1;fill-rule:nonzero;stroke:none"
                     transform="matrix(1,0,0,-1,51.842,128.75)"><tspan
                       id="tspan118"
                       y="0"
                       x="0 5.5352206 9.9625998 13.007171 17.98847 23.523691 26.291302">default</tspan></text>
<g
                     transform="translate(51.842,128.75)"
                     id="g122" /></g></g><g
                 transform="translate(160.756,42.126)"
                 id="g124" /></g></g><g
             id="g126"><g
               id="g128"><path
                 id="path130"
                 style="fill:none;stroke:#000000;stroke-width:0.79701;stroke-linecap:butt;stroke-linejoin:miter;stroke-miterlimit:10;stroke-dasharray:0.79701, 1.99255;stroke-dashoffset:0;stroke-opacity:1"
                 d="m -107.3195,-62.76138 h 63.78032 v 48.18947 h -63.78032 z" /></g><g
               transform="translate(-100.888,-41.157)"
               id="g132"><g
                 id="g134"><g
                   transform="translate(-111.71,-129.719)"
                   id="g136"><text
                     id="text140"
                     style="font-variant:normal;font-weight:normal;font-size:9.96259975px;font-family:CMR10;-inkscape-font-specification:CMR10;writing-mode:lr-tb;fill:#000000;fill-opacity:1;fill-rule:nonzero;stroke:none"
                     transform="matrix(1,0,0,-1,111.71,129.719)"><tspan
                       id="tspan138"
                       y="0"
                       x="0 5.2582603 10.793481 16.607655 21.035034 24.355568 29.890789 35.42601 40.961231 43.72884 46.496452">kube-public</tspan></text>
<g
                     transform="translate(111.71,129.719)"
                     id="g142" /></g></g><g
                 transform="translate(100.888,41.157)"
                 id="g144" /></g></g><g
             id="g146"><g
               id="g148"><path
                 id="path150"
                 style="fill:none;stroke:#000000;stroke-width:0.79701;stroke-linecap:butt;stroke-linejoin:miter;stroke-miterlimit:10;stroke-dasharray:0.79701, 1.99255;stroke-dashoffset:0;stroke-opacity:1"
                 d="m -37.07289,-62.76138 h 63.78032 v 48.18947 h -63.78032 z" /></g><g
               transform="translate(-32.22,-41.157)"
               id="g152"><g
                 id="g154"><g
                   transform="translate(-180.378,-129.719)"
                   id="g156"><text
                     id="text160"
                     style="font-variant:normal;font-weight:normal;font-size:9.96259975px;font-family:CMR10;-inkscape-font-specification:CMR10;writing-mode:lr-tb;fill:#000000;fill-opacity:1;fill-rule:nonzero;stroke:none"
                     transform="matrix(1,0,0,-1,180.378,129.719)"><tspan
                       id="tspan158"
                       y="0"
                       x="0 5.2582603 10.793481 16.607655 21.035034 24.355568 28.284817 33.543079 37.472328 41.346783 45.774162">kube-system</tspan></text>
<g
                     transform="translate(180.378,129.719)"
                     id="g162" /></g></g><g
                 transform="translate(32.22,41.157)"
                 id="g164" /></g></g><g
             id="g166"><g
               id="g168"><path
                 id="path170"
                 style="fill:none;stroke:#000000;stroke-width:0.79701;stroke-linecap:butt;stroke-linejoin:miter;stroke-miterlimit:10;stroke-dasharray:0.79701, 1.99255;stroke-dashoffset:0;stroke-opacity:1"
                 d="m 33.1737,-62.76138 h 63.78032 v 48.18947 H 33.1737 Z" /></g><g
               transform="translate(45.11,-41.157)"
               id="g172"><g
                 id="g174"><g
                   transform="translate(-257.708,-129.719)"
                   id="g176"><text
                     id="text180"
                     style="font-variant:normal;font-weight:normal;font-size:9.96259975px;font-family:CMR10;-inkscape-font-specification:CMR10;writing-mode:lr-tb;fill:#000000;fill-opacity:1;fill-rule:nonzero;stroke:none"
                     transform="matrix(1,0,0,-1,257.708,129.719)"><tspan
                       id="tspan178"
                       y="0"
                       x="0 4.9812999 10.795473 15.222853 20.758074 24.687323 30.222544 32.990154 36.034725">openshift</tspan></text>
<g
                     transform="translate(257.708,129.719)"
                     id="g182" /></g></g><g
                 transform="translate(-45.11,41.157)"
                 id="g184" /></g></g><g
             id="g186"><g
               id="g188"><path
                 id="path190"
                 style="fill:none;stroke:#000000;stroke-width:0.79701;stroke-linecap:butt;stroke-linejoin:miter;stroke-miterlimit:10;stroke-dasharray:0.79701, 1.99255;stroke-dashoffset:0;stroke-opacity:1"
                 d="m 103.42032,-62.76138 h 70.0986 v 48.18947 h -70.0986 z" /></g><g
               transform="translate(106.74,-41.157)"
               id="g192"><g
                 id="g194"><g
                   transform="translate(-319.338,-129.719)"
                   id="g196"><text
                     id="text200"
                     style="font-variant:normal;font-weight:normal;font-size:9.96259975px;font-family:CMR10;-inkscape-font-specification:CMR10;writing-mode:lr-tb;fill:#000000;fill-opacity:1;fill-rule:nonzero;stroke:none"
                     transform="matrix(1,0,0,-1,319.338,129.719)"><tspan
                       id="tspan198"
                       y="0"
                       x="0 4.9812999 10.795473 15.222853 20.758074 24.687323 30.222544 32.990154 36.034725 39.90918 43.229713 45.997326 51.532543 54.577114 58.479465">openshift-infra</tspan></text>
<g
                     transform="translate(319.338,129.719)"
                     id="g202" /></g></g><g
                 transform="translate(-106.74,41.157)"
                 id="g204" /></g></g><g
             id="g206"><g
               transform="translate(-23.143,-73.487)"
               id="g208"><g
                 id="g210"><g
                   transform="translate(-189.455,-97.389)"
                   id="g212"><text
                     id="text216"
                     style="font-variant:normal;font-weight:normal;font-size:9.96259975px;font-family:CMR10;-inkscape-font-specification:CMR10;writing-mode:lr-tb;fill:#000000;fill-opacity:1;fill-rule:nonzero;stroke:none"
                     transform="matrix(1,0,0,-1,189.455,97.389)"><tspan
                       id="tspan214"
                       y="0"
                       x="0 6.7805457 10.682896 16.222101 19.25671 23.694052 28.121431 31.995886">Projects</tspan></text>
<g
                     transform="translate(189.455,97.389)"
                     id="g218" /></g></g><g
                 transform="translate(23.143,73.487)"
                 id="g220" /></g></g><g
             id="g222"><g
               id="g224"><path
                 id="path226"
                 style="fill:none;stroke:#000000;stroke-width:0.79701;stroke-linecap:butt;stroke-linejoin:miter;stroke-miterlimit:10;stroke-dasharray:none;stroke-opacity:0.3"
                 d="m -177.96461,-63.86726 v -7.18499 h 151.30139" /><g
                 transform="rotate(90,-57.048675,-120.91593)"
                 id="g228"><g
                   id="g230"><path
                     id="path232"
                     style="fill:none;stroke:#000000;stroke-width:0.6376;stroke-linecap:round;stroke-linejoin:round;stroke-miterlimit:10;stroke-dasharray:none;stroke-opacity:0.3"
                     d="M -1.55415,2.0722 C -1.42464,1.29512 0,0.1295 0.38852,0 0,-0.1295 -1.42464,-1.29512 -1.55415,-2.0722" /></g></g></g><g
               id="g234"><path
                 id="path236"
                 style="fill:none;stroke:#000000;stroke-width:0.79701;stroke-linecap:butt;stroke-linejoin:miter;stroke-miterlimit:10;stroke-dasharray:none;stroke-opacity:0.3"
                 d="m 173.91742,-63.86726 v -7.18499 H 16.29776" /><g
                 transform="rotate(90,118.89234,55.02508)"
                 id="g238"><g
                   id="g240"><path
                     id="path242"
                     style="fill:none;stroke:#000000;stroke-width:0.6376;stroke-linecap:round;stroke-linejoin:round;stroke-miterlimit:10;stroke-dasharray:none;stroke-opacity:0.3"
                     d="M -1.55415,2.0722 C -1.42464,1.29512 0,0.1295 0.38852,0 0,-0.1295 -1.42464,-1.29512 -1.55415,-2.0722" /></g></g></g></g></g></g></g></g></svg>