<?xml version="1.0" encoding="UTF-8" standalone="no"?>
<svg
   xmlns:dc="http://purl.org/dc/elements/1.1/"
   xmlns:cc="http://creativecommons.org/ns#"
   xmlns:rdf="http://www.w3.org/1999/02/22-rdf-syntax-ns#"
   xmlns:svg="http://www.w3.org/2000/svg"
   xmlns="http://www.w3.org/2000/svg"
   viewBox="0 0 290.31601 274.02933"
   height="274.02933"
   width="290.31601"
   xml:space="preserve"
   id="svg2"
   version="1.1"><metadata
     id="metadata8"><rdf:RDF><cc:Work
         rdf:about=""><dc:format>image/svg+xml</dc:format><dc:type
           rdf:resource="http://purl.org/dc/dcmitype/StillImage" /></cc:Work></rdf:RDF></metadata><defs
     id="defs6" /><g
     transform="matrix(1.3333333,0,0,-1.3333333,0,274.02933)"
     id="g10"><g
       transform="translate(75.265,71.663)"
       id="g12"><g
         id="g14"><g
           id="g16" /><g
           id="g18"><g
             id="g20"><g
               id="g22"><g
                 id="g24" /></g></g><g
             id="g26"><g
               id="g28"><g
                 id="g30" /></g></g><g
             id="g32"><g
               id="g34"><g
                 id="g36" /></g></g><g
             id="g38"><g
               id="g40"><g
                 id="g42" /></g></g><g
             id="g44"><g
               id="g46"><g
                 id="g48" /></g></g><g
             id="g50"><g
               id="g52"><g
                 id="g54" /></g></g><g
             id="g56"><g
               id="g58"><g
                 id="g60" /></g></g><g
             id="g62"><g
               id="g64"><g
                 id="g66" /></g></g><g
             id="g68"><g
               id="g70"><g
                 id="g72" /></g></g><g
             id="g74"><g
               id="g76"><g
                 id="g78" /></g></g><g
             id="g80"><g
               id="g82"><path
                 id="path84"
                 style="fill:#808080;fill-opacity:1;fill-rule:nonzero;stroke:none"
                 d="M 66.88193,42.52022 H -66.88193 c -2.20094,0 -3.9851,-1.78417 -3.9851,-3.98511 v -77.07022 c 0,-2.20094 1.78416,-3.98511 3.9851,-3.98511 H 66.88193 c 2.20094,0 3.9851,1.78417 3.9851,3.98511 v 77.07022 c 0,2.20094 -1.78416,3.98511 -3.9851,3.98511 z" /></g><g
               transform="translate(-3.52)"
               id="g86"><g
                 transform="translate(3.52)"
                 id="g88"><g
                   transform="translate(-3.52)"
                   id="g90" /></g><g
                 transform="translate(3.52)"
                 id="g92" /></g></g><g
             id="g94"><g
               transform="translate(-22.139,-32.097)"
               id="g96"><g
                 id="g98"><g
                   transform="translate(-53.126,-39.566)"
                   id="g100"><text
                     id="text104"
                     style="font-variant:normal;font-weight:normal;font-size:9.96259975px;font-family:CMR10;-inkscape-font-specification:CMR10;writing-mode:lr-tb;fill:#000000;fill-opacity:1;fill-rule:nonzero;stroke:none"
                     transform="matrix(1,0,0,-1,53.126,39.566)"><tspan
                       id="tspan102"
                       y="0"
                       x="0 7.7489104 13.563084 17.990463 23.525684 29.060904 34.596127 37.363735 40.408306">OpenShift</tspan></text>
<g
                     transform="translate(53.126,39.566)"
                     id="g106" /></g></g><g
                 transform="translate(22.139,32.097)"
                 id="g108" /></g></g><g
             id="g110"><g
               id="g112"><g
                 id="g114" /></g></g><g
             id="g116"><g
               id="g118"><g
                 id="g120" /></g></g><g
             id="g122"><g
               id="g124"><g
                 id="g126" /></g></g><g
             id="g128"><g
               id="g130"><g
                 id="g132" /></g></g><g
             id="g134"><g
               id="g136"><g
                 id="g138" /></g></g><g
             id="g140"><g
               id="g142"><g
                 id="g144" /></g></g><g
             id="g146"><g
               id="g148"><g
                 id="g150" /></g></g><g
             id="g152"><g
               id="g154"><g
                 id="g156" /></g></g><g
             id="g158"><g
               id="g160"><path
                 id="path162"
                 style="fill:#b3b3ff;fill-opacity:1;fill-rule:nonzero;stroke:none"
                 d="M 52.70853,14.17339 H -52.70853 c -2.20094,0 -3.9851,-1.78417 -3.9851,-3.98511 v -20.37656 c 0,-2.20094 1.78416,-3.98511 3.9851,-3.98511 H 52.70853 c 2.20094,0 3.9851,1.78417 3.9851,3.98511 v 20.37656 c 0,2.20094 -1.78416,3.98511 -3.9851,3.98511 z" /></g><g
               transform="translate(-12.315,-2.491)"
               id="g164"><g
                 id="g166"><g
                   transform="translate(-62.95,-69.172)"
                   id="g168"><text
                     id="text172"
                     style="font-variant:normal;font-weight:normal;font-size:9.96259975px;font-family:CMR10;-inkscape-font-specification:CMR10;writing-mode:lr-tb;fill:#000000;fill-opacity:1;fill-rule:nonzero;stroke:none"
                     transform="matrix(1,0,0,-1,62.95,69.172)"><tspan
                       id="tspan170"
                       y="0"
                       x="0 9.1327152 14.114016 19.370283">Moby</tspan></text>
<g
                     transform="translate(62.95,69.172)"
                     id="g174" /></g></g><g
                 transform="translate(12.315,2.491)"
                 id="g176" /></g></g><g
             id="g178"><g
               transform="translate(-60.611,20.926)"
               id="g180"><g
                 id="g182" /><g
                 transform="translate(60.611,-20.926)"
                 id="g184" /></g></g><g
             id="g186"><g
               id="g188"><path
                 id="path190"
                 style="fill:#ecb3c6;fill-opacity:1;fill-rule:nonzero;stroke:#000000;stroke-width:0.3985;stroke-linecap:butt;stroke-linejoin:miter;stroke-miterlimit:10;stroke-dasharray:none;stroke-opacity:1"
                 d="m -46.7046,28.01326 h -6.20318 c -2.20094,0 -3.9851,-1.78416 -3.9851,-3.98511 v -6.20317 c 0,-2.20094 1.78416,-3.98511 3.9851,-3.98511 h 6.20318 c 2.20094,0 3.9851,1.78417 3.9851,3.98511 v 6.20317 c 0,2.20095 -1.78416,3.98511 -3.9851,3.98511 z" /></g><g
               transform="translate(-49.805,20.926)"
               id="g192"><g
                 id="g194" /><g
                 transform="translate(49.805,-20.926)"
                 id="g196" /></g></g><g
             id="g198"><g
               id="g200"><path
                 id="path202"
                 style="fill:#ecb3c6;fill-opacity:1;fill-rule:nonzero;stroke:#000000;stroke-width:0.3985;stroke-linecap:butt;stroke-linejoin:miter;stroke-miterlimit:10;stroke-dasharray:none;stroke-opacity:1"
                 d="m -32.13272,28.01326 h -6.20317 c -2.20094,0 -3.98511,-1.78416 -3.98511,-3.98511 v -6.20317 c 0,-2.20094 1.78417,-3.98511 3.98511,-3.98511 h 6.20317 c 2.20094,0 3.98511,1.78417 3.98511,3.98511 v 6.20317 c 0,2.20095 -1.78417,3.98511 -3.98511,3.98511 z" /></g><g
               transform="translate(-35.234,20.926)"
               id="g204"><g
                 id="g206" /><g
                 transform="translate(35.234,-20.926)"
                 id="g208" /></g></g><g
             id="g210"><g
               id="g212"><path
                 id="path214"
                 style="fill:#ecb3c6;fill-opacity:1;fill-rule:nonzero;stroke:#000000;stroke-width:0.3985;stroke-linecap:butt;stroke-linejoin:miter;stroke-miterlimit:10;stroke-dasharray:none;stroke-opacity:1"
                 d="m -17.56084,28.01326 h -6.20315 c -2.20095,0 -3.98511,-1.78416 -3.98511,-3.98511 v -6.20317 c 0,-2.20094 1.78416,-3.98511 3.98511,-3.98511 h 6.20315 c 2.20094,0 3.98511,1.78417 3.98511,3.98511 v 6.20317 c 0,2.20095 -1.78417,3.98511 -3.98511,3.98511 z" /></g><g
               transform="translate(-20.662,20.926)"
               id="g216"><g
                 id="g218" /><g
                 transform="translate(20.662,-20.926)"
                 id="g220" /></g></g><g
             id="g222"><g
               id="g224"><path
                 id="path226"
                 style="fill:#ecb3c6;fill-opacity:1;fill-rule:nonzero;stroke:#000000;stroke-width:0.3985;stroke-linecap:butt;stroke-linejoin:miter;stroke-miterlimit:10;stroke-dasharray:none;stroke-opacity:1"
                 d="m -2.98894,28.01326 h -6.20317 c -2.20094,0 -3.98511,-1.78416 -3.98511,-3.98511 v -6.20317 c 0,-2.20094 1.78417,-3.98511 3.98511,-3.98511 h 6.20317 c 2.20093,0 3.98509,1.78417 3.98509,3.98511 v 6.20317 c 0,2.20095 -1.78416,3.98511 -3.98509,3.98511 z" /></g><g
               transform="translate(-6.09,20.926)"
               id="g228"><g
                 id="g230" /><g
                 transform="translate(6.09,-20.926)"
                 id="g232" /></g></g><g
             id="g234"><g
               id="g236"><path
                 id="path238"
                 style="fill:#ecb3c6;fill-opacity:1;fill-rule:nonzero;stroke:#000000;stroke-width:0.3985;stroke-linecap:butt;stroke-linejoin:miter;stroke-miterlimit:10;stroke-dasharray:none;stroke-opacity:1"
                 d="M 11.58293,28.01326 H 5.37976 c -2.20094,0 -3.98511,-1.78416 -3.98511,-3.98511 v -6.20317 c 0,-2.20094 1.78417,-3.98511 3.98511,-3.98511 h 6.20317 c 2.20094,0 3.98511,1.78417 3.98511,3.98511 v 6.20317 c 0,2.20095 -1.78417,3.98511 -3.98511,3.98511 z" /></g><g
               transform="translate(8.481,20.926)"
               id="g240"><g
                 id="g242" /><g
                 transform="translate(-8.481,-20.926)"
                 id="g244" /></g></g><g
             id="g246"><g
               id="g248"><path
                 id="path250"
                 style="fill:none;stroke:#000000;stroke-width:0.79701;stroke-linecap:butt;stroke-linejoin:miter;stroke-miterlimit:10;stroke-dasharray:0.79701, 1.99255;stroke-dashoffset:0;stroke-opacity:1"
                 d="M 26.35406,28.01326 H 20.1509 c -2.20095,0 -3.98511,-1.78416 -3.98511,-3.98511 v -6.20317 c 0,-2.20094 1.78416,-3.98511 3.98511,-3.98511 h 6.20316 c 2.20095,0 3.98511,1.78417 3.98511,3.98511 v 6.20317 c 0,2.20095 -1.78416,3.98511 -3.98511,3.98511 z" /></g><g
               transform="translate(23.252,20.926)"
               id="g252"><g
                 id="g254" /><g
                 transform="translate(-23.252,-20.926)"
                 id="g256" /></g></g><g
             id="g258"><g
               id="g260"><path
                 id="path262"
                 style="fill:none;stroke:#000000;stroke-width:0.79701;stroke-linecap:butt;stroke-linejoin:miter;stroke-miterlimit:10;stroke-dasharray:0.79701, 1.99255;stroke-dashoffset:0;stroke-opacity:1"
                 d="m 41.32446,28.01326 h -6.20317 c -2.20094,0 -3.98511,-1.78416 -3.98511,-3.98511 v -6.20317 c 0,-2.20094 1.78417,-3.98511 3.98511,-3.98511 h 6.20317 c 2.20094,0 3.98511,1.78417 3.98511,3.98511 v 6.20317 c 0,2.20095 -1.78417,3.98511 -3.98511,3.98511 z" /></g><g
               transform="translate(38.222,20.926)"
               id="g264"><g
                 id="g266" /><g
                 transform="translate(-38.222,-20.926)"
                 id="g268" /></g></g><g
             id="g270"><g
               id="g272"><path
                 id="path274"
                 style="fill:none;stroke:#000000;stroke-width:0.79701;stroke-linecap:butt;stroke-linejoin:miter;stroke-miterlimit:10;stroke-dasharray:0.79701, 1.99255;stroke-dashoffset:0;stroke-opacity:1"
                 d="m 56.29485,28.01326 h -6.20318 c -2.20094,0 -3.9851,-1.78416 -3.9851,-3.98511 v -6.20317 c 0,-2.20094 1.78416,-3.98511 3.9851,-3.98511 h 6.20318 c 2.20094,0 3.9851,1.78417 3.9851,3.98511 v 6.20317 c 0,2.20095 -1.78416,3.98511 -3.9851,3.98511 z" /></g><g
               transform="translate(53.193,20.926)"
               id="g276"><g
                 id="g278" /><g
                 transform="translate(-53.193,-20.926)"
                 id="g280" /></g></g><g
             id="g282"><g
               transform="translate(-23.426,32.265)"
               id="g284"><g
                 id="g286"><g
                   transform="translate(-51.839,-103.928)"
                   id="g288"><text
                     id="text292"
                     style="font-variant:normal;font-weight:normal;font-size:9.96259975px;font-family:CMR10;-inkscape-font-specification:CMR10;writing-mode:lr-tb;fill:#000000;fill-opacity:1;fill-rule:nonzero;stroke:none"
                     transform="matrix(1,0,0,-1,51.839,103.928)"><tspan
                       id="tspan290"
                       y="0"
                       x="0 7.1949897 12.17629 17.432558 21.307013 26.288313 29.055923 34.591145 39.018524 42.920872">Containers</tspan></text>
<g
                     transform="translate(51.839,103.928)"
                     id="g294" /></g></g><g
                 transform="translate(23.426,-32.265)"
                 id="g296" /></g></g><g
             id="g298"><path
               id="path300"
               style="fill:none;stroke:#000000;stroke-width:0.3985;stroke-linecap:butt;stroke-linejoin:miter;stroke-miterlimit:10;stroke-dasharray:none;stroke-opacity:1"
               d="M -26.9462,35.66905 H -49.80618 V 28.67079" /><g
               transform="rotate(-90,-10.567695,39.238485)"
               id="g302"><g
                 id="g304"><path
                   id="path306"
                   style="fill:none;stroke:#000000;stroke-width:0.31878999;stroke-linecap:round;stroke-linejoin:round;stroke-miterlimit:10;stroke-dasharray:none;stroke-opacity:1"
                   d="M -1.19551,1.59401 C -1.09587,0.99626 0,0.09961 0.29886,0 0,-0.09961 -1.09587,-0.99626 -1.19551,-1.59401" /></g></g></g><g
             id="g308"><path
               id="path310"
               style="fill:none;stroke:#000000;stroke-width:0.3985;stroke-linecap:butt;stroke-linejoin:miter;stroke-miterlimit:10;stroke-dasharray:none;stroke-opacity:1"
               d="M 26.9462,35.66905 H 53.19327 V 28.87004" /><g
               transform="rotate(-90,41.031655,-12.161615)"
               id="g312"><g
                 id="g314"><path
                   id="path316"
                   style="fill:none;stroke:#000000;stroke-width:0.31878999;stroke-linecap:round;stroke-linejoin:round;stroke-miterlimit:10;stroke-dasharray:none;stroke-opacity:1"
                   d="M -1.19551,1.59401 C -1.09587,0.99626 0,0.09961 0.29886,0 0,-0.09961 -1.09587,-0.99626 -1.19551,-1.59401" /></g></g></g><g
             id="g318"><g
               id="g320"><path
                 id="path322"
                 style="fill:#b3e6fa;fill-opacity:1;fill-rule:nonzero;stroke:none"
                 d="M 66.88193,-43.31723 H -66.88193 c -2.20094,0 -3.9851,-1.78417 -3.9851,-3.98511 v -20.37657 c 0,-2.20094 1.78416,-3.98511 3.9851,-3.98511 H 66.88193 c 2.20094,0 3.9851,1.78417 3.9851,3.98511 v 20.37657 c 0,2.20094 -1.78416,3.98511 -3.9851,3.98511 z" /></g><g
               transform="translate(-34.205,-60.949)"
               id="g324"><g
                 id="g326"><g
                   transform="translate(-41.06,-10.714)"
                   id="g328"><text
                     id="text332"
                     style="font-variant:normal;font-weight:normal;font-size:9.96259975px;font-family:CMR10;-inkscape-font-specification:CMR10;writing-mode:lr-tb;fill:#000000;fill-opacity:1;fill-rule:nonzero;stroke:none"
                     transform="matrix(1,0,0,-1,41.06,10.714)"><tspan
                       id="tspan330"
                       y="0"
                       x="0 7.4719501 12.45325 16.3825 23.574501 32.707214 37.688515 41.846905 47.382126 50.149734 55.684956 63.429882">HostMachine1</tspan></text>
<g
                     transform="translate(41.06,10.714)"
                     id="g334" /></g></g><g
                 transform="translate(34.205,60.949)"
                 id="g336" /></g></g><g
             id="g338"><g
               id="g340"><path
                 id="path342"
                 style="fill:#ecb3c6;fill-opacity:1;fill-rule:nonzero;stroke:#000000;stroke-width:0.3985;stroke-linecap:butt;stroke-linejoin:miter;stroke-miterlimit:10;stroke-dasharray:none;stroke-opacity:1"
                 d="M 26.35406,99.47803 H 20.1509 c -2.20095,0 -3.98511,-1.78417 -3.98511,-3.98511 v -6.20317 c 0,-2.20095 1.78416,-3.98511 3.98511,-3.98511 h 6.20316 c 2.20095,0 3.98511,1.78416 3.98511,3.98511 v 6.20317 c 0,2.20094 -1.78416,3.98511 -3.98511,3.98511 z" /></g><g
               transform="translate(23.252,92.39)"
               id="g344"><g
                 id="g346" /><g
                 transform="translate(-23.252,-92.39)"
                 id="g348" /></g></g><g
             id="g350"><g
               id="g352"><path
                 id="path354"
                 style="fill:#ecb3c6;fill-opacity:1;fill-rule:nonzero;stroke:#000000;stroke-width:0.3985;stroke-linecap:butt;stroke-linejoin:miter;stroke-miterlimit:10;stroke-dasharray:none;stroke-opacity:1"
                 d="m 40.92595,99.47803 h -6.20317 c -2.20093,0 -3.98511,-1.78417 -3.98511,-3.98511 v -6.20317 c 0,-2.20095 1.78418,-3.98511 3.98511,-3.98511 h 6.20317 c 2.20094,0 3.98511,1.78416 3.98511,3.98511 v 6.20317 c 0,2.20094 -1.78417,3.98511 -3.98511,3.98511 z" /></g><g
               transform="translate(37.824,92.39)"
               id="g356"><g
                 id="g358" /><g
                 transform="translate(-37.824,-92.39)"
                 id="g360" /></g></g><g
             id="g362"><g
               id="g364"><path
                 id="path366"
                 style="fill:#ecb3c6;fill-opacity:1;fill-rule:nonzero;stroke:#000000;stroke-width:0.3985;stroke-linecap:butt;stroke-linejoin:miter;stroke-miterlimit:10;stroke-dasharray:none;stroke-opacity:1"
                 d="m 55.49783,99.47803 h -6.20315 c -2.20095,0 -3.98511,-1.78417 -3.98511,-3.98511 v -6.20317 c 0,-2.20095 1.78416,-3.98511 3.98511,-3.98511 h 6.20315 c 2.20095,0 3.98511,1.78416 3.98511,3.98511 v 6.20317 c 0,2.20094 -1.78416,3.98511 -3.98511,3.98511 z" /></g><g
               transform="translate(52.396,92.39)"
               id="g368"><g
                 id="g370" /><g
                 transform="translate(-52.396,-92.39)"
                 id="g372" /></g></g><g
             id="g374"><g
               id="g376"><path
                 id="path378"
                 style="fill:#ffb3b3;fill-opacity:0.4;fill-rule:nonzero;stroke:none"
                 d="m 65.13637,92.39134 c 0,15.08417 -12.22782,27.312 -27.312,27.312 -15.08418,0 -27.312,-12.22783 -27.312,-27.312 0,-15.08418 12.22782,-27.31199 27.312,-27.31199 15.08418,0 27.312,12.22781 27.312,27.31199 z" /></g><g
               transform="translate(15.966,92.39)"
               id="g380"><g
                 transform="translate(21.858)"
                 id="g382"><g
                   transform="translate(-21.858)"
                   id="g384" /></g><g
                 transform="translate(-15.966,-92.39)"
                 id="g386" /></g></g><g
             id="g388"><g
               transform="translate(29.176,123.62)"
               id="g390"><g
                 id="g392"><g
                   transform="translate(-104.441,-195.283)"
                   id="g394"><text
                     id="text398"
                     style="font-variant:normal;font-weight:normal;font-size:9.96259975px;font-family:CMR10;-inkscape-font-specification:CMR10;writing-mode:lr-tb;fill:#000000;fill-opacity:1;fill-rule:nonzero;stroke:none"
                     transform="matrix(1,0,0,-1,104.441,195.283)"><tspan
                       id="tspan396"
                       y="0"
                       x="0 6.5015926 11.761846">Pod</tspan></text>
<g
                     transform="translate(104.441,195.283)"
                     id="g400" /></g></g><g
                 transform="translate(-29.176,-123.62)"
                 id="g402" /></g></g><g
             id="g404"><path
               id="path406"
               style="fill:none;stroke:#000000;stroke-width:0.3985;stroke-linecap:butt;stroke-linejoin:miter;stroke-miterlimit:10;stroke-dasharray:none;stroke-opacity:1"
               d="M 23.25249,28.41176 V 84.64711" /><g
               transform="rotate(90,-30.69731,53.9498)"
               id="g408"><g
                 id="g410"><path
                   id="path412"
                   style="fill:none;stroke:#000000;stroke-width:0.31878999;stroke-linecap:round;stroke-linejoin:round;stroke-miterlimit:10;stroke-dasharray:none;stroke-opacity:1"
                   d="M -1.19551,1.59401 C -1.09587,0.99626 0,0.09961 0.29886,0 0,-0.09961 -1.09587,-0.99626 -1.19551,-1.59401" /></g></g></g><g
             id="g414"><path
               id="path416"
               style="fill:none;stroke:#000000;stroke-width:0.3985;stroke-linecap:butt;stroke-linejoin:miter;stroke-miterlimit:10;stroke-dasharray:none;stroke-opacity:1"
               d="m 38.18118,28.41176 -0.3137,56.23535" /><g
               transform="matrix(-0.00557,1,-1,-0.00557,37.8675,84.64711)"
               id="g418"><g
                 id="g420"><path
                   id="path422"
                   style="fill:none;stroke:#000000;stroke-width:0.31878999;stroke-linecap:round;stroke-linejoin:round;stroke-miterlimit:10;stroke-dasharray:none;stroke-opacity:1"
                   d="M -1.19551,1.59401 C -1.09587,0.99626 0,0.09961 0.29886,0 0,-0.09961 -1.09587,-0.99626 -1.19551,-1.59401" /></g></g></g><g
             id="g424"><path
               id="path426"
               style="fill:none;stroke:#000000;stroke-width:0.3985;stroke-linecap:butt;stroke-linejoin:miter;stroke-miterlimit:10;stroke-dasharray:none;stroke-opacity:1"
               d="M 53.1099,28.41176 52.4825,84.64714" /><g
               transform="matrix(-0.01112,0.99995,-0.99995,-0.01112,52.4825,84.64713)"
               id="g428"><g
                 id="g430"><path
                   id="path432"
                   style="fill:none;stroke:#000000;stroke-width:0.31878999;stroke-linecap:round;stroke-linejoin:round;stroke-miterlimit:10;stroke-dasharray:none;stroke-opacity:1"
                   d="M -1.19551,1.59401 C -1.09587,0.99626 0,0.09961 0.29886,0 0,-0.09961 -1.09587,-0.99626 -1.19551,-1.59401" /></g></g></g><g
             id="g434"><g
               transform="translate(-71.945,93.997)"
               id="g436"><g
                 id="g438"><g
                   transform="translate(-3.32,-165.66)"
                   id="g440"><text
                     id="text444"
                     style="font-variant:normal;font-weight:normal;font-size:9.96259975px;font-family:CMR10;-inkscape-font-specification:CMR10;writing-mode:lr-tb;fill:#000000;fill-opacity:1;fill-rule:nonzero;stroke:none"
                     transform="matrix(1,0,0,-1,3.32,165.66)"><tspan
                       id="tspan442"
                       y="0"
                       x="0 4.9812999 9.9625998 14.9439 19.9252 24.9065 29.8878 34.869099 39.850399 44.831699 49.813 54.7943 59.7756">1010101010101</tspan></text>
<g
                     transform="translate(3.32,165.66)"
                     id="g446" /></g></g><g
                 transform="translate(71.945,-93.997)"
                 id="g448" /></g></g><g
             id="g450"><g
               transform="translate(-71.945,84.363)"
               id="g452"><g
                 id="g454"><g
                   transform="translate(-3.32,-156.026)"
                   id="g456"><text
                     id="text460"
                     style="font-variant:normal;font-weight:normal;font-size:9.96259975px;font-family:CMR10;-inkscape-font-specification:CMR10;writing-mode:lr-tb;fill:#000000;fill-opacity:1;fill-rule:nonzero;stroke:none"
                     transform="matrix(1,0,0,-1,3.32,156.026)"><tspan
                       id="tspan458"
                       y="0"
                       x="0 4.9812999 9.9625998 14.9439 19.9252 24.9065 29.8878 34.869099 39.850399 44.831699 49.813 54.7943 59.7756">1111101010101</tspan></text>
<g
                     transform="translate(3.32,156.026)"
                     id="g462" /></g></g><g
                 transform="translate(71.945,-84.363)"
                 id="g464" /></g></g><g
             id="g466"><path
               id="path468"
               style="fill:none;stroke:#000000;stroke-width:0.3985;stroke-linecap:butt;stroke-linejoin:miter;stroke-miterlimit:10;stroke-dasharray:none;stroke-opacity:1"
               d="m -3.66754,97.20819 h 13.7151" /><g
               transform="translate(10.04756,97.20819)"
               id="g470"><g
                 id="g472"><path
                   id="path474"
                   style="fill:none;stroke:#000000;stroke-width:0.31878999;stroke-linecap:round;stroke-linejoin:round;stroke-miterlimit:10;stroke-dasharray:none;stroke-opacity:1"
                   d="M -1.19551,1.59401 C -1.09587,0.99626 0,0.09961 0.29886,0 0,-0.09961 -1.09587,-0.99626 -1.19551,-1.59401" /></g></g></g><g
             id="g476"><path
               id="path478"
               style="fill:none;stroke:#000000;stroke-width:0.3985;stroke-linecap:butt;stroke-linejoin:miter;stroke-miterlimit:10;stroke-dasharray:none;stroke-opacity:1"
               d="m -3.66754,87.57448 h 13.7151" /><g
               transform="translate(10.04756,87.57448)"
               id="g480"><g
                 id="g482"><path
                   id="path484"
                   style="fill:none;stroke:#000000;stroke-width:0.31878999;stroke-linecap:round;stroke-linejoin:round;stroke-miterlimit:10;stroke-dasharray:none;stroke-opacity:1"
                   d="M -1.19551,1.59401 C -1.09587,0.99626 0,0.09961 0.29886,0 0,-0.09961 -1.09587,-0.99626 -1.19551,-1.59401" /></g></g></g><g
             id="g486"><g
               transform="translate(-66.659,70.516)"
               id="g488"><g
                 id="g490"><g
                   transform="translate(-8.606,-142.179)"
                   id="g492"><text
                     id="text496"
                     style="font-variant:normal;font-weight:normal;font-size:9.96259975px;font-family:CMR10;-inkscape-font-specification:CMR10;writing-mode:lr-tb;fill:#000000;fill-opacity:1;fill-rule:nonzero;stroke:none"
                     transform="matrix(1,0,0,-1,8.606,142.179)"><tspan
                       id="tspan494"
                       y="0"
                       x="0 7.6104302 12.59173 16.466185 24.765032 28.694281 32.568737 36.471085 40.898464 45.879765">Datastream</tspan></text>
<g
                     transform="translate(8.606,142.179)"
                     id="g498" /></g></g><g
                 transform="translate(66.659,-70.516)"
                 id="g500" /></g></g><g
             id="g502"><g
               id="g504" /><g
               id="g506"><path
                 id="path508"
                 style="fill:#e6e6e6;fill-opacity:1;fill-rule:nonzero;stroke:#000000;stroke-width:0.3985;stroke-linecap:butt;stroke-linejoin:miter;stroke-miterlimit:10;stroke-dasharray:none;stroke-opacity:1"
                 d="m 94.08536,77.05276 c 0,-1.8339 10.78741,-3.32055 24.09474,-3.32055 13.30733,0 24.09474,1.48665 24.09474,3.32055 v 35.87908 c 0,1.83392 -10.78741,3.32057 -24.09474,3.32057 -13.30733,0 -24.09474,-1.48665 -24.09474,-3.32057 z m 0,35.87908 c 0,-1.83392 10.78741,-3.32057 24.09474,-3.32057 13.30733,0 24.09474,1.48665 24.09474,3.32057" /></g><g
               transform="translate(118.179,92.39)"
               id="g510"><g
                 id="g512" /><g
                 transform="translate(-118.179,-92.39)"
                 id="g514" /></g></g><g
             id="g516"><g
               transform="translate(108.396,63.094)"
               id="g518"><g
                 id="g520"><g
                   transform="translate(-183.661,-134.757)"
                   id="g522"><text
                     id="text526"
                     style="font-variant:normal;font-weight:normal;font-size:9.96259975px;font-family:CMR10;-inkscape-font-specification:CMR10;writing-mode:lr-tb;fill:#000000;fill-opacity:1;fill-rule:nonzero;stroke:none"
                     transform="matrix(1,0,0,-1,183.661,134.757)"><tspan
                       id="tspan524"
                       y="0"
                       x="0 7.6104302 10.37804 14.30729">Disk</tspan></text>
<g
                     transform="translate(183.661,134.757)"
                     id="g528" /></g></g><g
                 transform="translate(-108.396,-63.094)"
                 id="g530" /></g></g><g
             id="g532"><path
               id="path534"
               style="fill:none;stroke:#000000;stroke-width:0.3985;stroke-linecap:butt;stroke-linejoin:miter;stroke-miterlimit:10;stroke-dasharray:none;stroke-opacity:1"
               d="M 93.8876,96.67438 65.68658,96.73035" /><g
               transform="matrix(-1,0.00197,-0.00197,-1,65.68658,96.73035)"
               id="g536"><g
                 id="g538"><path
                   id="path540"
                   style="fill:none;stroke:#000000;stroke-width:0.31878999;stroke-linecap:round;stroke-linejoin:round;stroke-miterlimit:10;stroke-dasharray:none;stroke-opacity:1"
                   d="M -1.19551,1.59401 C -1.09587,0.99626 0,0.09961 0.29886,0 0,-0.09961 -1.09587,-0.99626 -1.19551,-1.59401" /></g></g></g><g
             id="g542"><path
               id="path544"
               style="fill:none;stroke:#000000;stroke-width:0.3985;stroke-linecap:butt;stroke-linejoin:miter;stroke-miterlimit:10;stroke-dasharray:none;stroke-opacity:1"
               d="M 93.42934,88.1074 65.2283,88.05144" /><g
               transform="matrix(1,0.00197,-0.00197,1,93.42934,88.1074)"
               id="g546"><g
                 id="g548"><path
                   id="path550"
                   style="fill:none;stroke:#000000;stroke-width:0.31878999;stroke-linecap:round;stroke-linejoin:round;stroke-miterlimit:10;stroke-dasharray:none;stroke-opacity:1"
                   d="M -1.19551,1.59401 C -1.09587,0.99626 0,0.09961 0.29886,0 0,-0.09961 -1.09587,-0.99626 -1.19551,-1.59401" /></g></g></g></g></g></g></g></svg>