<?xml version="1.0" encoding="UTF-8" standalone="no"?>
<svg
   xmlns:dc="http://purl.org/dc/elements/1.1/"
   xmlns:cc="http://creativecommons.org/ns#"
   xmlns:rdf="http://www.w3.org/1999/02/22-rdf-syntax-ns#"
   xmlns:svg="http://www.w3.org/2000/svg"
   xmlns="http://www.w3.org/2000/svg"
   viewBox="0 0 569.05469 152.244"
   height="152.244"
   width="569.05469"
   xml:space="preserve"
   id="svg2"
   version="1.1"><metadata
     id="metadata8"><rdf:RDF><cc:Work
         rdf:about=""><dc:format>image/svg+xml</dc:format><dc:type
           rdf:resource="http://purl.org/dc/dcmitype/StillImage" /></cc:Work></rdf:RDF></metadata><defs
     id="defs6" /><g
     transform="matrix(1.3333333,0,0,-1.3333333,0,152.244)"
     id="g10"><g
       transform="translate(70.866,14.173)"
       id="g12"><g
         id="g14"><g
           id="g16" /><g
           id="g18"><g
             id="g20"><g
               id="g22"><path
                 id="path24"
                 style="fill:#b3e6fa;fill-opacity:1;fill-rule:nonzero;stroke:none"
                 d="M 66.88193,14.17339 H -66.88193 c -2.20094,0 -3.9851,-1.78417 -3.9851,-3.98511 v -20.37656 c 0,-2.20094 1.78416,-3.98511 3.9851,-3.98511 H 66.88193 c 2.20094,0 3.9851,1.78417 3.9851,3.98511 v 20.37656 c 0,2.20094 -1.78416,3.98511 -3.9851,3.98511 z" /></g><g
               transform="translate(-34.205,-3.459)"
               id="g26"><g
                 id="g28"><g
                   transform="translate(-36.661,-10.714)"
                   id="g30"><text
                     id="text34"
                     style="font-variant:normal;font-weight:normal;font-size:9.96259975px;font-family:CMR10;-inkscape-font-specification:CMR10;writing-mode:lr-tb;fill:#000000;fill-opacity:1;fill-rule:nonzero;stroke:none"
                     transform="matrix(1,0,0,-1,36.661,10.714)"><tspan
                       id="tspan32"
                       y="0"
                       x="0 7.4719501 12.45325 16.3825 23.574501 32.707214 37.688515 41.846905 47.382126 50.149734 55.684956 63.429882">HostMachine1</tspan></text>
<g
                     transform="translate(36.661,10.714)"
                     id="g36" /></g></g><g
                 transform="translate(34.205,3.459)"
                 id="g38" /></g></g><g
             id="g40"><g
               id="g42"><path
                 id="path44"
                 style="fill:#b3e6fa;fill-opacity:1;fill-rule:nonzero;stroke:none"
                 d="M 209.41304,14.17339 H 75.64915 c -2.20094,0 -3.9851,-1.78417 -3.9851,-3.98511 v -20.37656 c 0,-2.20094 1.78416,-3.98511 3.9851,-3.98511 h 133.76389 c 2.20094,0 3.98511,1.78417 3.98511,3.98511 v 20.37656 c 0,2.20094 -1.78417,3.98511 -3.98511,3.98511 z" /></g><g
               transform="translate(108.324,-3.459)"
               id="g46"><g
                 id="g48"><g
                   transform="translate(-179.19,-10.714)"
                   id="g50"><text
                     id="text54"
                     style="font-variant:normal;font-weight:normal;font-size:9.96259975px;font-family:CMR10;-inkscape-font-specification:CMR10;writing-mode:lr-tb;fill:#000000;fill-opacity:1;fill-rule:nonzero;stroke:none"
                     transform="matrix(1,0,0,-1,179.19,10.714)"><tspan
                       id="tspan52"
                       y="0"
                       x="0 7.4719501 12.45325 16.3825 23.574501 32.707214 37.688515 41.846905 47.382126 50.149734 55.684956 63.429882">HostMachine2</tspan></text>
<g
                     transform="translate(179.19,10.714)"
                     id="g56" /></g></g><g
                 transform="translate(-108.324,3.459)"
                 id="g58" /></g></g><g
             id="g60"><g
               id="g62"><path
                 id="path64"
                 style="fill:#b3e6fa;fill-opacity:1;fill-rule:nonzero;stroke:none"
                 d="M 351.94414,14.17339 H 218.18027 c -2.20095,0 -3.98511,-1.78417 -3.98511,-3.98511 v -20.37656 c 0,-2.20094 1.78416,-3.98511 3.98511,-3.98511 h 133.76387 c 2.20094,0 3.9851,1.78417 3.9851,3.98511 v 20.37656 c 0,2.20094 -1.78416,3.98511 -3.9851,3.98511 z" /></g><g
               transform="translate(250.854,-3.459)"
               id="g66"><g
                 id="g68"><g
                   transform="translate(-321.72,-10.714)"
                   id="g70"><text
                     id="text74"
                     style="font-variant:normal;font-weight:normal;font-size:9.96259975px;font-family:CMR10;-inkscape-font-specification:CMR10;writing-mode:lr-tb;fill:#000000;fill-opacity:1;fill-rule:nonzero;stroke:none"
                     transform="matrix(1,0,0,-1,321.72,10.714)"><tspan
                       id="tspan72"
                       y="0"
                       x="0 7.4719501 12.45325 16.3825 23.574501 32.707214 37.688515 41.846905 47.382126 50.149734 55.674995 63.429882">HostMachine3</tspan></text>
<g
                     transform="translate(321.72,10.714)"
                     id="g76" /></g></g><g
                 transform="translate(-250.854,3.459)"
                 id="g78" /></g></g><g
             id="g80"><g
               id="g82"><path
                 id="path84"
                 style="fill:#808080;fill-opacity:1;fill-rule:nonzero;stroke:none"
                 d="M 351.14714,100.01085 H -66.08495 c -2.20092,0 -3.9851,-1.78417 -3.9851,-3.98511 V 18.9555 c 0,-2.20094 1.78418,-3.9851 3.9851,-3.9851 h 417.23209 c 2.20094,0 3.98511,1.78416 3.98511,3.9851 v 77.07024 c 0,2.20094 -1.78417,3.98511 -3.98511,3.98511 z" /></g><g
               transform="translate(120.39,54.999)"
               id="g86"><g
                 id="g88"><g
                   transform="translate(-191.256,-69.172)"
                   id="g90"><text
                     id="text94"
                     style="font-variant:normal;font-weight:normal;font-size:9.96259975px;font-family:CMR10;-inkscape-font-specification:CMR10;writing-mode:lr-tb;fill:#000000;fill-opacity:1;fill-rule:nonzero;stroke:none"
                     transform="matrix(1,0,0,-1,191.256,69.172)"><tspan
                       id="tspan92"
                       y="0"
                       x="0 7.7489104 13.563084 17.990463 23.525684 29.060904 34.596127 37.363735 40.408306">OpenShift</tspan></text>
<g
                     transform="translate(191.256,69.172)"
                     id="g96" /></g></g><g
                 transform="translate(-120.39,-54.999)"
                 id="g98" /></g></g><g
             id="g100"><g
               id="g102"><path
                 id="path104"
                 style="fill:#b3e6fa;fill-opacity:1;fill-rule:nonzero;stroke:none"
                 d="M 66.88193,14.17339 H -66.88193 c -2.20094,0 -3.9851,-1.78417 -3.9851,-3.98511 v -20.37656 c 0,-2.20094 1.78416,-3.98511 3.9851,-3.98511 H 66.88193 c 2.20094,0 3.9851,1.78417 3.9851,3.98511 v 20.37656 c 0,2.20094 -1.78416,3.98511 -3.9851,3.98511 z" /></g><g
               transform="translate(-34.205,-3.459)"
               id="g106"><g
                 id="g108"><g
                   transform="translate(-36.661,-10.714)"
                   id="g110"><text
                     id="text114"
                     style="font-variant:normal;font-weight:normal;font-size:9.96259975px;font-family:CMR10;-inkscape-font-specification:CMR10;writing-mode:lr-tb;fill:#000000;fill-opacity:1;fill-rule:nonzero;stroke:none"
                     transform="matrix(1,0,0,-1,36.661,10.714)"><tspan
                       id="tspan112"
                       y="0"
                       x="0 7.4719501 12.45325 16.3825 23.574501 32.707214 37.688515 41.846905 47.382126 50.149734 55.684956 63.429882">HostMachine1</tspan></text>
<g
                     transform="translate(36.661,10.714)"
                     id="g116" /></g></g><g
                 transform="translate(34.205,3.459)"
                 id="g118" /></g></g></g></g></g></g></svg>